<svg width="36" height="35" viewBox="0 0 36 35" fill="none" xmlns="http://www.w3.org/2000/svg">
<path d="M11.9565 25.1093L7.04444 28.1779C5.26726 29.2877 2.92653 28.7472 1.8167 26.9701L1.18107 25.9525C0.0712358 24.1753 0.611738 21.8346 2.38891 20.7247L7.30099 17.6561" stroke="black" stroke-width="1.1224" stroke-linecap="round" stroke-linejoin="round"/>
<path d="M27.5372 22.9109L11.9563 25.109L7.30078 17.6558L16.1117 4.6189L27.5372 22.9109Z" stroke="black" stroke-width="1.1224" stroke-linecap="round" stroke-linejoin="round"/>
<path d="M14.4658 9.82959L22.017 21.9152" stroke="black" stroke-width="1.1224" stroke-linecap="round" stroke-linejoin="round"/>
<path d="M21.6211 9.72442C23.1172 8.78899 25.089 9.24445 26.0244 10.742C26.9598 12.2381 26.5044 14.2099 25.0068 15.1453" stroke="black" stroke-width="1.1224" stroke-linecap="round" stroke-linejoin="round"/>
<path d="M12.8246 26.5317L15.0428 30.0818C15.8312 31.3429 15.4464 33.0048 14.1852 33.7932C12.9241 34.5816 11.2622 34.1968 10.4738 32.9356L8.11719 29.1636" stroke="black" stroke-width="1.1224" stroke-linecap="round" stroke-linejoin="round"/>
<path d="M28.0879 9.74727L31.0758 7.88074" stroke="black" stroke-width="1.1224" stroke-linecap="round" stroke-linejoin="round"/>
<path d="M24.5586 5.89321L25.7909 1.21606" stroke="black" stroke-width="1.1224" stroke-linecap="round" stroke-linejoin="round"/>
<path d="M30.0889 14.7504L34.8323 15.6944" stroke="black" stroke-width="1.1224" stroke-linecap="round" stroke-linejoin="round"/>
</svg>
