<svg width="374" height="164" viewBox="0 0 374 164" fill="none" xmlns="http://www.w3.org/2000/svg">
<g filter="url(#filter0_d_1_2)">
<path d="M27.6191 58.3646C27.6191 44.7272 38.6744 33.6719 52.3118 33.6719H322.215C335.853 33.6719 346.908 44.7272 346.908 58.3646V89.3006C346.908 101.364 338.191 111.662 326.293 113.654L191.268 136.262C188.617 136.706 185.91 136.706 183.259 136.262L48.2343 113.654C36.3361 111.662 27.6191 101.364 27.6191 89.3006V58.3646Z" fill="#0F0F0F"/>
<path d="M27.9559 58.3646C27.9559 44.9132 38.8605 34.0087 52.3118 34.0087H322.215C335.667 34.0087 346.571 44.9132 346.571 58.3646V89.3006C346.571 101.2 337.973 111.357 326.237 113.322L191.212 135.93C188.598 136.367 185.929 136.367 183.315 135.93L48.2899 113.322C36.554 111.357 27.9559 101.2 27.9559 89.3006V58.3646Z" stroke="#272727" stroke-width="0.673606"/>
</g>
<circle cx="33.6719" cy="33.6719" r="33.6719" transform="matrix(-1 0 0 1 220.672 0)" fill="#00FCD6" fill-opacity="0.2"/>
<circle cx="25.5906" cy="25.5906" r="25.5906" transform="matrix(-1 0 0 1 212.591 8.08118)" fill="#00FCD6"/>
<path d="M202.66 26.7057V23.1335C202.66 22.3131 201.995 21.647 201.174 21.647H173.095C172.273 21.647 171.608 22.3118 171.608 23.1335V43.0879C171.608 43.9083 172.273 44.5743 173.095 44.5743H201.175C201.995 44.5743 202.661 43.9095 202.661 43.0879V28.241" stroke="black" stroke-width="1.1224" stroke-linecap="round" stroke-linejoin="round"/>
<path d="M202.66 26.7057H173.459" stroke="black" stroke-width="1.1224" stroke-linecap="round" stroke-linejoin="round"/>
<path d="M200.889 23.2557H199.441V24.7036H200.889V23.2557Z" stroke="black" stroke-width="1.1224" stroke-linecap="round" stroke-linejoin="round"/>
<path d="M197.833 23.2557H196.385V24.7036H197.833V23.2557Z" stroke="black" stroke-width="1.1224" stroke-linecap="round" stroke-linejoin="round"/>
<path d="M194.774 23.2557H193.326V24.7036H194.774V23.2557Z" stroke="black" stroke-width="1.1224" stroke-linecap="round" stroke-linejoin="round"/>
<path d="M176.612 33.3981H173.585V40.5438H176.612V33.3981Z" stroke="black" stroke-width="1.1224" stroke-linecap="round" stroke-linejoin="round"/>
<path d="M200.605 31.6734L200.605 28.799L173.586 28.7989L173.586 31.6734L200.605 31.6734Z" stroke="black" stroke-width="1.1224" stroke-linecap="round" stroke-linejoin="round"/>
<path d="M188.533 33.3981H178.186V40.2967H188.533V33.3981Z" stroke="black" stroke-width="1.1224" stroke-linecap="round" stroke-linejoin="round"/>
<path d="M200.605 33.3981H190.257V40.2967H200.605V33.3981Z" stroke="black" stroke-width="1.1224" stroke-linecap="round" stroke-linejoin="round"/>
<defs>
<filter id="filter0_d_1_2" x="0.681641" y="6.73438" width="373.164" height="156.798" filterUnits="userSpaceOnUse" color-interpolation-filters="sRGB">
<feFlood flood-opacity="0" result="BackgroundImageFix"/>
<feColorMatrix in="SourceAlpha" type="matrix" values="0 0 0 0 0 0 0 0 0 0 0 0 0 0 0 0 0 0 127 0" result="hardAlpha"/>
<feOffset/>
<feGaussianBlur stdDeviation="13.4688"/>
<feComposite in2="hardAlpha" operator="out"/>
<feColorMatrix type="matrix" values="0 0 0 0 0 0 0 0 0 0.988235 0 0 0 0 0.839216 0 0 0 0.3 0"/>
<feBlend mode="normal" in2="BackgroundImageFix" result="effect1_dropShadow_1_2"/>
<feBlend mode="normal" in="SourceGraphic" in2="effect1_dropShadow_1_2" result="shape"/>
</filter>
</defs>
</svg>
