<svg width="33" height="32" viewBox="0 0 33 32" fill="none" xmlns="http://www.w3.org/2000/svg">
<path d="M3.01036 8.60304C3.01036 8.3497 2.98077 8.07417 3.06214 7.83192C3.1879 7.45468 3.4616 7.38626 3.80927 7.31784C4.39365 7.20319 4.97619 7.01642 5.57537 7.01642C6.17455 7.01642 6.73489 7.19764 7.31003 7.31044C7.62626 7.37332 7.90551 7.4103 8.06085 7.73946C8.18291 7.99835 8.14222 8.32566 8.14222 8.60304C8.14222 9.11157 8.93188 9.11157 8.93188 8.60304C8.93188 7.74871 8.76174 6.80746 7.78345 6.5874C7.07886 6.42837 6.30215 6.22866 5.57722 6.22681C4.85413 6.22681 4.07372 6.43022 3.37098 6.5874C2.39084 6.80746 2.2207 7.74871 2.2207 8.60304C2.2207 9.11157 3.01036 9.11157 3.01036 8.60304Z" fill="#191919"/>
<path d="M3.39003 3.8043C3.43812 4.99519 4.35168 5.98636 5.57593 5.99006C6.76134 5.99376 7.76737 4.98779 7.76182 3.8043C7.75812 2.61525 6.76689 1.61853 5.57593 1.61853C4.38497 1.61853 3.43812 2.6171 3.39003 3.8043C3.36969 4.31283 4.15935 4.31098 4.17969 3.8043C4.21113 3.04242 4.79182 2.40629 5.57778 2.40629C6.36374 2.40629 6.97586 3.04242 6.97586 3.8043C6.97586 4.56617 6.34155 5.206 5.57778 5.2023C4.79182 5.19675 4.21113 4.57172 4.17969 3.8043C4.15935 3.29761 3.36969 3.29576 3.39003 3.8043Z" fill="#191919"/>
<path d="M9.76715 5.10282C9.73941 6.85032 8.65941 8.46468 6.98763 9.05088C5.32694 9.63339 3.44618 9.1193 2.32735 7.75459C1.2196 6.40281 1.0846 4.44265 1.98152 2.94664C2.87289 1.45803 4.65194 0.65547 6.35886 0.98278C8.33763 1.36372 9.73387 3.10752 9.76715 5.10282C9.77455 5.6095 10.5642 5.61135 10.5568 5.10282C10.5235 3.00951 9.2401 1.14736 7.26688 0.418771C5.31215 -0.302421 3.03748 0.342953 1.72632 1.94807C0.415151 3.55318 0.230219 5.87394 1.29913 7.65658C2.37913 9.45771 4.51324 10.386 6.56783 9.98289C8.88873 9.52798 10.518 7.43283 10.555 5.10282C10.5624 4.59429 9.77455 4.59429 9.7653 5.10282H9.76715Z" fill="#191919"/>
<path d="M24.7008 8.60304C24.7008 8.3497 24.6712 8.07417 24.7526 7.83192C24.8783 7.45468 25.152 7.38626 25.4997 7.31784C26.0841 7.20319 26.6666 7.01642 27.2658 7.01642C27.865 7.01642 28.4253 7.19764 29.0005 7.31044C29.3167 7.37332 29.5959 7.4103 29.7513 7.73946C29.8733 7.99835 29.8326 8.32566 29.8326 8.60304C29.8326 9.11157 30.6223 9.11157 30.6223 8.60304C30.6223 7.74871 30.4522 6.80746 29.4739 6.5874C28.7693 6.42837 27.9926 6.22866 27.2676 6.22681C26.5446 6.22681 25.7642 6.43022 25.0614 6.5874C24.0813 6.80746 23.9111 7.74871 23.9111 8.60304C23.9111 9.11157 24.7008 9.11157 24.7008 8.60304Z" fill="#191919"/>
<path d="M25.0795 3.8043C25.1276 4.99519 26.0411 5.98636 27.2654 5.99006C28.4508 5.99376 29.4568 4.98779 29.4513 3.8043C29.4476 2.61525 28.4563 1.61853 27.2654 1.61853C26.0744 1.61853 25.1276 2.6171 25.0795 3.8043C25.0591 4.31283 25.8488 4.31098 25.8691 3.8043C25.9006 3.04242 26.4813 2.40629 27.2672 2.40629C28.0532 2.40629 28.6653 3.04242 28.6653 3.8043C28.6653 4.56617 28.031 5.206 27.2672 5.2023C26.4813 5.19675 25.9006 4.57172 25.8691 3.8043C25.8488 3.29761 25.0591 3.29576 25.0795 3.8043Z" fill="#191919"/>
<path d="M31.4576 5.10258C31.4298 6.85008 30.3498 8.46444 28.678 9.05064C27.0173 9.63314 25.1366 9.11906 24.0178 7.75434C22.91 6.40257 22.775 4.44241 23.6719 2.9464C24.5652 1.45778 26.3423 0.655225 28.0511 0.982536C30.0299 1.36347 31.4261 3.10728 31.4594 5.10258C31.4668 5.60926 32.2565 5.61111 32.2491 5.10258C32.2158 3.00927 30.9324 1.14712 28.9591 0.418527C27.0044 -0.302665 24.7297 0.342709 23.4186 1.94782C22.1074 3.55294 21.9243 5.8737 22.9932 7.65634C24.0732 9.45747 26.2073 10.3858 28.2619 9.98264C30.5828 9.52774 32.2121 7.43258 32.2491 5.10258C32.2565 4.59404 31.4687 4.59404 31.4594 5.10258H31.4576Z" fill="#191919"/>
<path d="M3.01036 30.2927C3.01036 30.0394 2.98077 29.7639 3.06214 29.5216C3.1879 29.1444 3.4616 29.076 3.80927 29.0075C4.39365 28.8929 4.97619 28.7061 5.57537 28.7061C6.17455 28.7061 6.73489 28.8873 7.31003 29.0001C7.62626 29.063 7.90551 29.1 8.06085 29.4292C8.18291 29.688 8.14222 30.0154 8.14222 30.2927C8.14222 30.7994 8.93188 30.8013 8.93188 30.2927C8.93188 29.4384 8.76174 28.4972 7.78345 28.2771C7.07886 28.1181 6.30215 27.9184 5.57722 27.9165C4.85413 27.9165 4.07372 28.1199 3.37098 28.2771C2.39084 28.4972 2.2207 29.4384 2.2207 30.2927C2.2207 30.7994 3.01036 30.8013 3.01036 30.2927Z" fill="#191919"/>
<path d="M3.39003 25.4937C3.43812 26.6846 4.35168 27.6758 5.57593 27.6795C6.76134 27.6832 7.76737 26.6772 7.76182 25.4937C7.75812 24.3047 6.76689 23.308 5.57593 23.308C4.38497 23.308 3.43812 24.3066 3.39003 25.4937C3.36969 26.0023 4.15935 26.0004 4.17969 25.4937C4.21113 24.7319 4.79182 24.0957 5.57778 24.0957C6.36374 24.0957 6.97586 24.7319 6.97586 25.4937C6.97586 26.2556 6.34155 26.8973 5.57778 26.8918C4.79182 26.8862 4.21113 26.2612 4.17969 25.4937C4.15935 24.9871 3.36969 24.9852 3.39003 25.4937Z" fill="#191919"/>
<path d="M9.76616 26.792C9.73842 28.5395 8.65841 30.1539 6.98663 30.7401C5.32594 31.3226 3.44519 30.8085 2.32635 29.4438C1.21861 28.092 1.08361 26.1319 1.98053 24.6359C2.87375 23.1472 4.65094 22.3447 6.35971 22.672C8.33848 23.0529 9.73472 24.7967 9.76801 26.792C9.7754 27.2987 10.5651 27.3006 10.5577 26.792C10.5244 24.6987 9.24095 22.8366 7.26773 22.108C5.313 21.3868 3.03834 22.0322 1.72717 23.6373C0.416003 25.2424 0.232921 27.5632 1.30183 29.3458C2.38183 31.1469 4.51594 32.0752 6.57053 31.6721C8.89143 31.2172 10.5207 29.122 10.5577 26.792C10.5651 26.2835 9.77725 26.2835 9.76801 26.792H9.76616Z" fill="#191919"/>
<path d="M24.7008 30.2927C24.7008 30.0394 24.6712 29.7639 24.7526 29.5216C24.8783 29.1444 25.152 29.076 25.4997 29.0075C26.0841 28.8929 26.6666 28.7061 27.2658 28.7061C27.865 28.7061 28.4253 28.8873 29.0005 29.0001C29.3167 29.063 29.5959 29.1 29.7513 29.4292C29.8733 29.688 29.8326 30.0154 29.8326 30.2927C29.8326 30.7994 30.6223 30.8013 30.6223 30.2927C30.6223 29.4384 30.4522 28.4972 29.4739 28.2771C28.7693 28.1181 27.9926 27.9184 27.2676 27.9165C26.5446 27.9165 25.7642 28.1199 25.0614 28.2771C24.0813 28.4972 23.9111 29.4384 23.9111 30.2927C23.9111 30.7994 24.7008 30.8013 24.7008 30.2927Z" fill="#191919"/>
<path d="M25.0795 25.4937C25.1276 26.6846 26.0411 27.6758 27.2654 27.6795C28.4508 27.6832 29.4568 26.6772 29.4513 25.4937C29.4476 24.3047 28.4563 23.308 27.2654 23.308C26.0744 23.308 25.1276 24.3066 25.0795 25.4937C25.0591 26.0023 25.8488 26.0004 25.8691 25.4937C25.9006 24.7319 26.4813 24.0957 27.2672 24.0957C28.0532 24.0957 28.6653 24.7319 28.6653 25.4937C28.6653 26.2556 28.031 26.8973 27.2672 26.8918C26.4813 26.8862 25.9006 26.2612 25.8691 25.4937C25.8488 24.9871 25.0591 24.9852 25.0795 25.4937Z" fill="#191919"/>
<path d="M31.4576 26.792C31.4298 28.5395 30.3498 30.1539 28.678 30.7401C27.0173 31.3226 25.1366 30.8085 24.0178 29.4438C22.91 28.092 22.775 26.1319 23.6719 24.6359C24.5652 23.1472 26.3423 22.3447 28.0511 22.672C30.0299 23.0529 31.4261 24.7967 31.4594 26.792C31.4668 27.2987 32.2565 27.3006 32.2491 26.792C32.2158 24.6987 30.9324 22.8366 28.9591 22.108C27.0044 21.3868 24.7297 22.0322 23.4186 23.6373C22.1074 25.2424 21.9243 27.5632 22.9932 29.3458C24.0732 31.1469 26.2073 32.0752 28.2619 31.6721C30.5828 31.2172 32.2121 29.122 32.2491 26.792C32.2565 26.2835 31.4687 26.2835 31.4594 26.792H31.4576Z" fill="#191919"/>
<path d="M21.0303 4.70874H11.8133C11.3066 4.70874 11.3048 5.49835 11.8133 5.49835H21.0303C21.5371 5.49835 21.5389 4.70874 21.0303 4.70874Z" fill="#191919"/>
<path d="M21.0303 26.3979H11.8133C11.3066 26.3979 11.3048 27.1876 11.8133 27.1876H21.0303C21.5371 27.1876 21.5389 26.3979 21.0303 26.3979Z" fill="#191919"/>
<path d="M5.9713 20.5564V11.3399C5.9713 10.8333 5.18164 10.8314 5.18164 11.3399V20.5564C5.18164 21.0649 5.9713 21.0649 5.9713 20.5564Z" fill="#191919"/>
<path d="M27.6617 20.5564V11.3399C27.6617 10.8333 26.8721 10.8314 26.8721 11.3399V20.5564C26.8721 21.0649 27.6617 21.0649 27.6617 20.5564Z" fill="#191919"/>
</svg>
