<svg width="42" height="26" viewBox="0 0 42 26" fill="none" xmlns="http://www.w3.org/2000/svg">
<path d="M9.1335 19.04C8.11502 18.4035 9.03365 17.2907 9.45303 16.6141C9.88738 15.9148 10.509 14.4863 11.5649 15.1705C12.5534 15.8096 11.7047 16.8547 11.2828 17.5363C10.8085 18.3007 10.2593 19.6516 9.13101 19.04C8.52691 18.7142 7.99021 19.6365 8.59431 19.9623C9.85243 20.644 10.9758 20.0551 11.6697 18.9348C12.159 18.1453 12.9952 17.1905 13.0826 16.2281C13.2224 14.7019 11.6847 13.534 10.2568 14.0828C9.28328 14.4588 8.78902 15.6567 8.27229 16.4888C7.98023 16.9599 7.6657 17.406 7.61327 17.9774C7.54088 18.7669 7.92032 19.5388 8.59431 19.9598C9.17844 20.3232 9.71264 19.4009 9.13101 19.0375L9.1335 19.04Z" fill="#191919"/>
<path d="M11.7714 20.6866C10.5732 19.9372 12.1658 18.1403 12.6326 17.3859C13.1019 16.6291 14.0555 14.2707 15.2862 15.0677C16.4769 15.8371 14.8943 17.6115 14.425 18.3683C13.8982 19.2179 13.067 21.3883 11.7714 20.6866C11.1673 20.3608 10.6306 21.283 11.2347 21.6088C12.1309 22.0925 13.2193 21.9798 13.9057 21.1853C14.2003 20.8445 14.415 20.4134 14.6496 20.035C15.2962 18.9924 16.075 17.9598 16.6067 16.8521C17.5378 14.9198 15.1913 12.965 13.4814 14.2657C13.072 14.5765 12.8323 15.0426 12.5677 15.4712C12.1583 16.1328 11.7465 16.7945 11.3371 17.4586C11.0425 17.9348 10.698 18.4034 10.4534 18.9072C9.98908 19.867 10.3336 21.05 11.2347 21.6138C11.8188 21.9772 12.353 21.055 11.7714 20.6916V20.6866Z" fill="#191919"/>
<path d="M14.407 22.3331C13.3061 21.6439 14.4894 20.2905 14.9287 19.5788C15.3805 18.8495 16.107 17.0701 17.2453 17.8069C18.3236 18.5061 17.2053 19.7843 16.761 20.4986C16.2642 21.3005 15.6152 22.9847 14.407 22.3306C13.8029 22.0048 13.2662 22.927 13.8703 23.2528C14.6042 23.6513 15.4604 23.6664 16.1619 23.1752C16.5738 22.8844 16.8109 22.4433 17.0705 22.0248C17.4075 21.481 17.7445 20.9371 18.0815 20.3958C18.3361 19.9848 18.6332 19.5788 18.738 19.0976C19.095 17.4435 17.3326 16.0526 15.8174 16.7719C14.8289 17.2405 14.2647 18.634 13.718 19.5161C13.4409 19.9622 13.079 20.4284 12.9467 20.9447C12.722 21.8268 13.1039 22.7717 13.8753 23.2528C14.4594 23.6162 14.9936 22.694 14.412 22.3306L14.407 22.3331Z" fill="#191919"/>
<path d="M17.0443 23.9798C16.1032 23.3908 16.8271 22.4184 17.229 21.7718C17.6459 21.0977 18.2225 19.9097 19.2061 20.5488C20.1172 21.1378 19.4607 22.05 19.0588 22.6966C18.6045 23.4284 18.1077 24.5562 17.0443 23.9798C16.4402 23.654 15.9035 24.5762 16.5076 24.902C17.2814 25.3206 18.2076 25.3131 18.9065 24.7416C19.3608 24.3707 19.6379 23.7868 19.9425 23.2956C20.2545 22.7918 20.6314 22.3006 20.7138 21.6991C20.8261 20.8846 20.4492 20.0551 19.7453 19.624C19.0014 19.1704 18.0228 19.2306 17.3463 19.7844C16.8945 20.1553 16.6149 20.7418 16.3104 21.2305C15.9984 21.7342 15.6214 22.2254 15.539 22.8269C15.4267 23.6464 15.8061 24.4635 16.5076 24.902C17.0917 25.2654 17.6259 24.3432 17.0443 23.9798Z" fill="#191919"/>
<path d="M30.3086 5.14574C29.0081 5.68708 27.7999 5.67454 26.6017 4.86505C25.6556 4.22597 25.009 3.627 23.8058 3.59943C23.1992 3.5869 22.5876 3.59943 21.981 3.59943C21.4144 3.59943 20.7953 3.53928 20.2386 3.6696C19.2177 3.9102 18.3664 4.82996 17.5876 5.48157C16.5516 6.34871 15.4109 7.14818 14.5147 8.16819C14.0778 8.66442 13.5062 9.44133 13.973 10.1005C14.4398 10.7571 15.5107 10.9576 16.2596 10.9225C17.7424 10.8523 19.2052 10.0879 20.361 9.1832C20.1463 9.21076 19.9316 9.23833 19.7169 9.2659C22.0909 10.7496 24.4673 12.2357 26.8413 13.7194C28.3041 14.6341 29.7669 15.5489 31.2297 16.4636C31.5992 16.6942 31.9811 16.9148 32.3431 17.1579C33.092 17.6641 33.1693 18.8921 32.1084 19.1001C31.3845 19.243 30.4085 18.3633 29.8418 18.0075C29.1678 17.5864 28.4963 17.1654 27.8223 16.7468C27.2382 16.3834 26.704 17.3057 27.2856 17.6691C27.9397 18.0776 28.5912 18.4836 29.2452 18.8921C29.8793 19.2881 30.5807 19.8821 31.3096 20.1001C32.5802 20.4811 33.9457 19.5488 34.0031 18.2029C34.0405 17.3258 33.5563 16.6692 32.8548 16.2155C29.8243 14.2607 26.734 12.3886 23.676 10.4789C22.5377 9.76714 21.3969 9.05538 20.2586 8.34112C20.0389 8.20328 19.7993 8.27847 19.6146 8.42382C19.8118 8.26844 19.5147 8.494 19.4523 8.53911C19.2576 8.67695 19.0554 8.80476 18.8507 8.92756C18.2341 9.29347 17.5751 9.60423 16.8737 9.76463C16.5142 9.84483 16.1348 9.88994 15.7678 9.84232C15.5856 9.81726 14.8991 9.64183 14.8766 9.52905C14.8292 9.27342 15.4109 8.77218 15.5656 8.61429C15.9875 8.18824 16.4468 7.79728 16.9111 7.41634C17.7524 6.72213 18.5836 6.01037 19.4398 5.3337C19.994 4.89512 20.4883 4.66957 21.1897 4.66957H22.9171C23.3889 4.66957 23.9456 4.60942 24.4074 4.72971C25.024 4.89011 25.4609 5.36378 25.9701 5.71715C26.4244 6.03293 26.9137 6.29858 27.4429 6.45397C28.5188 6.77225 29.5822 6.60183 30.6007 6.17829C31.2248 5.91764 30.9502 4.88259 30.3186 5.14825L30.3086 5.14574Z" fill="#191919"/>
<path d="M26.9263 17.4485C27.418 17.7568 27.9173 18.055 28.4041 18.3708C28.6262 18.5162 28.8409 18.6289 28.9832 18.8745C29.3177 19.456 28.9907 20.2229 28.3392 20.3807C27.6976 20.5361 26.9937 19.9021 26.4794 19.5788C26.0601 19.3181 25.6407 19.055 25.2213 18.7918C24.6372 18.4284 24.103 19.3507 24.6846 19.7141C26.0376 20.5612 28.0172 22.3656 29.5374 20.8995C30.4585 20.0098 30.3587 18.4836 29.3477 17.7117C28.761 17.2656 28.0895 16.9122 27.4655 16.5212C26.8813 16.1578 26.3471 17.0801 26.9288 17.4435L26.9263 17.4485Z" fill="#191919"/>
<path d="M24.6827 19.7195C25.0746 19.9651 25.484 20.1931 25.8609 20.4563C26.6547 21.0101 26.48 22.3986 25.3667 22.3785C24.8375 22.371 24.2883 21.8848 23.8564 21.6166C23.5619 21.4337 23.2673 21.2482 22.9752 21.0653C22.3911 20.7019 21.8569 21.6241 22.4385 21.9875C23.6717 22.7569 25.2219 24.1353 26.6547 22.995C27.5334 22.2958 27.7107 20.9926 27.0292 20.0929C26.5923 19.5165 25.821 19.1706 25.2194 18.7947C24.6353 18.4313 24.1011 19.3536 24.6827 19.7169V19.7195Z" fill="#191919"/>
<path d="M22.4385 21.99C22.6857 22.1453 22.9603 22.2832 23.1924 22.4611C23.9064 23.0125 23.7541 24.2154 22.7606 24.3332C22.0866 24.4134 21.2753 23.6766 20.7311 23.3358C20.147 22.9699 19.6128 23.8947 20.1944 24.258C21.3577 24.9848 22.6982 26.0299 24.0012 24.9021C24.7251 24.2781 24.9273 23.203 24.4855 22.3534C24.161 21.7318 23.5444 21.4211 22.9752 21.0652C22.3911 20.7018 21.8569 21.6241 22.4385 21.9875V21.99Z" fill="#191919"/>
<path d="M11.0647 5.89522C12.0557 6.24608 13.0842 6.38142 14.1051 6.05812C14.6393 5.8877 15.1186 5.61452 15.5679 5.2787C16.0872 4.89274 16.6713 4.03062 17.3752 4.44163C17.9694 4.78748 18.5061 3.86521 17.9119 3.51936C16.7537 2.8452 16.0073 3.57951 15.1186 4.28625C13.9504 5.21604 12.7222 5.35138 11.3442 4.86518C10.6952 4.63711 10.4181 5.66966 11.0622 5.89522H11.0647Z" fill="#191919"/>
<path d="M34.5219 12.9199C33.4035 13.2983 32.5348 14.2356 32.3251 15.416C32.2053 16.0877 33.2313 16.3784 33.3511 15.6992C33.4959 14.8922 34.0201 14.2156 34.8039 13.9499C35.4505 13.7319 35.1734 12.6993 34.5219 12.9199Z" fill="#191919"/>
<path d="M8.89006 14.128C8.61547 13.311 7.93648 12.6619 7.07776 12.5065C6.79568 12.4563 6.50362 12.5842 6.42374 12.8799C6.35384 13.138 6.51111 13.4864 6.79568 13.5365C7.29494 13.6267 7.71182 13.9601 7.86409 14.4112C8.08127 15.0603 9.10973 14.7821 8.89006 14.128Z" fill="#191919"/>
<path d="M31.6646 4.41666C32.9427 3.5019 34.2208 2.58965 35.4964 1.6749C35.2542 1.61224 35.0096 1.54708 34.7675 1.48192C36.6047 5.10586 38.4445 8.72979 40.2817 12.3537C40.3466 12.1106 40.4091 11.865 40.474 11.6219C39.0935 12.2585 37.7131 12.8976 36.3326 13.5341C36.5748 13.5993 36.8194 13.662 37.0616 13.7271C35.3266 10.3789 33.5892 7.0306 31.8543 3.68485C31.5373 3.07335 30.6187 3.61468 30.9357 4.22368C32.6706 7.57194 34.408 10.9202 36.1429 14.2659C36.2852 14.5391 36.6197 14.5742 36.8718 14.4589C38.2523 13.8223 39.6327 13.1833 41.0132 12.5467C41.2852 12.4214 41.3252 12.053 41.2054 11.8149C39.3681 8.19096 37.5284 4.56703 35.6911 0.943093C35.5688 0.7025 35.1868 0.589722 34.9622 0.750117C33.6841 1.66487 32.406 2.57712 31.1304 3.49188C30.5762 3.88785 31.1079 4.81514 31.6671 4.41415L31.6646 4.41666Z" fill="#191919"/>
<path d="M10.6181 3.30877C9.33998 2.39402 8.06189 1.48177 6.78629 0.567012C6.56163 0.406617 6.1797 0.519395 6.05738 0.759988C4.22012 4.38392 2.38037 8.00786 0.543108 11.6318C0.423287 11.8699 0.460731 12.2358 0.735321 12.3636C2.11576 13.0002 3.4962 13.6392 4.87664 14.2758C5.12876 14.3911 5.46326 14.361 5.60555 14.0828C7.34046 10.7346 9.07787 7.38632 10.8128 4.04058C11.1298 3.43157 10.2112 2.89024 9.89415 3.50175C8.15924 6.85 6.42183 10.1983 4.68692 13.544C4.92906 13.4788 5.1737 13.4162 5.41584 13.351C4.0354 12.7145 2.65496 12.0754 1.27452 11.4388C1.33942 11.6819 1.40183 11.9275 1.46673 12.1706C3.30399 8.54669 5.14374 4.92275 6.981 1.29882C6.73886 1.36398 6.49423 1.42663 6.25209 1.49179C7.53018 2.40655 8.80827 3.3188 10.0839 4.23355C10.643 4.63454 11.1747 3.70725 10.6206 3.31128L10.6181 3.30877Z" fill="#191919"/>
</svg>
