<svg width="31" height="28" viewBox="0 0 31 28" fill="none" xmlns="http://www.w3.org/2000/svg">
<path d="M28.6192 26.3213C28.594 26.6581 28.8245 26.9481 29.1472 26.995C29.4699 27.0419 29.7716 26.8287 29.8429 26.5046C30.3458 24.1637 30.5721 22.053 30.5721 20.1299C30.5721 11.0346 25.4551 6.32713 20.0238 2.97985L21.2182 0.954418C21.3439 0.74548 21.3355 0.476847 21.1972 0.276436C21.0589 0.0717603 20.8201 -0.0305766 20.5812 0.00779924L13.021 1.30834C12.8324 1.34245 12.6731 1.45758 12.5809 1.62814C12.4887 1.7987 12.4804 1.99911 12.5558 2.1782L15.4265 9.06465C15.5229 9.29065 15.7366 9.44415 15.9797 9.44842C16.2228 9.45268 16.4491 9.31623 16.5538 9.0945L17.5512 7.01791C29.5369 12.5569 28.6653 25.7499 28.6192 26.3213ZM17.4926 5.6193C17.1908 5.49138 16.8388 5.6193 16.6963 5.92204L16.0384 7.29933L14.0058 2.42126L19.4664 1.48316L18.645 2.87324C18.5612 3.01822 18.5361 3.18878 18.578 3.35508C18.6199 3.51712 18.7205 3.65783 18.863 3.74311C24.5038 7.12024 29.516 11.5378 29.34 20.5478C28.3216 15.6825 25.4509 9.03481 17.4968 5.6193L17.4926 5.6193Z" fill="#191919"/>
<path d="M9.9834 3.20361C9.9834 1.98835 8.81416 1.0332 7.32224 1.0332L2.66206 1.0332C1.17014 1.0332 0.00090118 1.98835 0.000901127 3.20361L0.000900998 6.17139C0.000900945 7.38665 1.17014 8.34179 2.66206 8.34179L7.32224 8.34179C8.81416 8.34179 9.9834 7.38665 9.9834 6.17139L9.9834 3.20361ZM7.32224 7.07963L2.66206 7.07963C1.90772 7.07963 1.24138 6.65323 1.24138 6.17139L1.24138 3.20361C1.24138 2.7175 1.90353 2.29536 2.66206 2.29536L7.32224 2.29536C8.07658 2.29536 8.74292 2.72177 8.74292 3.20361L8.74292 6.17139C8.74292 6.65749 8.08077 7.07963 7.32224 7.07963Z" fill="#191919"/>
<path d="M14.3545 12.1748C14.3545 10.9595 13.1853 10.0044 11.6933 10.0044L2.66215 10.0044C1.17022 10.0044 0.000985104 10.9595 0.000985051 12.1748L0.000984921 15.1426C0.000984868 16.3578 1.17022 17.313 2.66215 17.313L11.6933 17.313C13.1853 17.313 14.3545 16.3578 14.3545 15.1426L14.3545 12.1748ZM11.6933 16.0551L2.66215 16.0551C1.9078 16.0551 1.24146 15.6287 1.24146 15.1468L1.24146 12.1791C1.24146 11.693 1.90361 11.2708 2.66215 11.2708L11.6933 11.2708C12.4477 11.2708 13.114 11.6972 13.114 12.1791L13.114 15.1468C13.114 15.6329 12.4519 16.0551 11.6933 16.0551Z" fill="#191919"/>
<path d="M19.5967 25.0015L19.5967 22.0337C19.5967 20.8184 18.4274 19.8633 16.9355 19.8633L2.66164 19.8633C1.16971 19.8633 0.000476795 20.8184 0.000476742 22.0337L0.000476613 25.0015C0.000476559 26.2167 1.16971 27.1719 2.66164 27.1719L16.9355 27.1719C18.4274 27.1719 19.5967 26.2167 19.5967 25.0015ZM2.66164 25.9097C1.90729 25.9097 1.24095 25.4833 1.24095 25.0015L1.24095 22.0337C1.24095 21.5476 1.9031 21.1254 2.66164 21.1254L16.9355 21.1254C17.6941 21.1254 18.3562 21.5518 18.3562 22.0337L18.3562 25.0015C18.3562 25.4876 17.6941 25.9097 16.9355 25.9097L2.66164 25.9097Z" fill="#191919"/>
</svg>
