<svg width="26" height="26" viewBox="0 0 26 26" fill="none" xmlns="http://www.w3.org/2000/svg">
<path d="M3.39395 26C3.10695 26 2.87402 25.7663 2.87402 25.4784V0.521648C2.87402 0.233698 3.10695 0 3.39395 0C3.68095 0 3.91388 0.233698 3.91388 0.521648V25.4784C3.91388 25.7663 3.68095 26 3.39395 26Z" fill="#191919"/>
<path d="M8.015 17.3972C8.0719 17.7504 8.37347 18 8.72625 18C8.75755 18 8.78884 18 8.82014 17.9944C13.0535 17.4476 16.2143 16.3092 18.4846 14.5203C19.6027 13.6371 20.5188 12.6024 21.2784 11.3519C21.8929 10.3453 22.3993 9.20685 22.8232 7.88339L24.1746 8.07406C24.4392 8.11051 24.7009 8.00116 24.8602 7.79086C25.0167 7.57777 25.0452 7.30018 24.9285 7.06184L22.6525 2.4017C22.5558 2.20262 22.3652 2.05681 22.1461 2.01475C21.9327 1.96989 21.6994 2.02877 21.5287 2.17178L17.5344 5.56454C17.3267 5.74119 17.2385 6.02158 17.3068 6.28235C17.375 6.54592 17.5856 6.745 17.8559 6.80107L19.0536 7.05063C18.7207 8.73018 18.0379 10.2499 17.0223 11.5678C15.4035 13.6735 13.1929 14.9269 11.6253 15.6082C10.7291 15.998 9.94676 16.2447 9.44604 16.3849C9.16723 16.4634 8.94532 16.5139 8.80876 16.5448C8.73763 16.5588 8.68073 16.5728 8.64375 16.5784L8.60676 16.5868C8.20562 16.6569 7.94672 17.013 8.00931 17.4L8.015 17.3972ZM10.7405 16.8448C11.1132 16.7158 11.5286 16.556 11.9724 16.3625C13.631 15.6419 15.9725 14.3128 17.7022 12.0641C18.8801 10.5331 19.6397 8.75822 19.964 6.78986C19.9981 6.57115 19.8559 6.36366 19.6368 6.3188L18.2741 6.0356L21.9697 2.898L24.0807 7.21886L22.5956 7.00857C22.5757 7.00576 22.5558 7.00296 22.5359 7.00296C22.3538 7.00296 22.1859 7.12072 22.1319 7.30018C21.708 8.70495 21.1959 9.88821 20.5643 10.9201C19.8559 12.0837 19.0052 13.0482 17.964 13.867C16.1887 15.2662 13.8131 16.2475 10.7405 16.8448Z" fill="#191919"/>
<path d="M25.3944 23.0609H0.519929C0.232928 23.0609 0 22.8272 0 22.5392C0 22.2513 0.232928 22.0176 0.519929 22.0176H25.3944C25.6814 22.0176 25.9143 22.2513 25.9143 22.5392C25.9143 22.8272 25.6814 23.0609 25.3944 23.0609Z" fill="#191919"/>
</svg>
