<svg width="29" height="28" viewBox="0 0 29 28" fill="none" xmlns="http://www.w3.org/2000/svg">
<path d="M12.8696 23.5685C12.9539 24.4195 13.3359 25.2204 13.9445 25.8263C14.0183 25.9001 14.1184 25.9396 14.2185 25.9396C14.258 25.9396 14.2975 25.9343 14.3371 25.9212C14.4741 25.8764 14.5768 25.7604 14.6032 25.6182C14.7033 25.0491 15.1933 24.6355 15.7703 24.6355H17.7146C18.2072 24.6355 18.6393 24.9332 18.8184 25.3942C18.8685 25.5233 18.9844 25.6182 19.124 25.6393C19.261 25.6603 19.4007 25.605 19.4876 25.497C20.0936 24.7382 20.3728 23.7819 20.278 22.8071C20.1041 21.0551 18.7078 19.6562 16.9558 19.4849C16.8241 19.4718 16.695 19.4639 16.5738 19.4639C15.5252 19.4639 14.5189 19.9091 13.8128 20.6889C13.0988 21.4767 12.7642 22.4989 12.8696 23.5685ZM16.5738 24.0717C15.7966 24.0717 15.1643 23.4394 15.1643 22.6622C15.1643 21.885 15.7966 21.2527 16.5738 21.2527C17.351 21.2527 17.9833 21.885 17.9833 22.6622C17.9833 23.4394 17.351 24.0717 16.5738 24.0717ZM14.3924 21.2132C14.9509 20.5967 15.7439 20.2437 16.5738 20.2437C16.6686 20.2437 16.7714 20.249 16.8794 20.2595C18.2625 20.3965 19.3664 21.5004 19.5034 22.8835C19.5587 23.4578 19.4507 24.0243 19.1952 24.5248C18.8869 24.1718 18.4601 23.94 17.9833 23.8741C18.2652 23.5474 18.4364 23.1233 18.4364 22.6596C18.4364 21.6347 17.6013 20.7996 16.5764 20.7996C15.5516 20.7996 14.7164 21.6347 14.7164 22.6596C14.7164 23.1522 14.9114 23.6001 15.2249 23.9347C14.7586 24.0717 14.3581 24.3747 14.1052 24.7857C13.8549 24.3984 13.6969 23.9531 13.6494 23.4921C13.5651 22.6464 13.8312 21.8376 14.395 21.2132H14.3924Z" fill="#191919"/>
<path d="M3.15392 16.1605C3.26457 16.2711 3.43318 16.3027 3.57808 16.2421C3.72298 16.1815 3.81783 16.0393 3.81783 15.8812V15.5387C3.81783 14.3347 4.71884 13.3283 5.9123 13.194C5.91756 13.194 5.92283 13.194 5.92547 13.194C6.01768 13.1834 6.09935 13.1781 6.17838 13.1781H9.56642C10.8679 13.1781 11.927 14.2372 11.927 15.5387V15.8812C11.927 16.0393 12.0218 16.1815 12.1667 16.2421C12.2141 16.2632 12.2668 16.2711 12.3169 16.2711C12.417 16.2711 12.5171 16.2316 12.5909 16.1578C13.8818 14.8827 14.5905 13.186 14.5905 11.3814C14.5905 7.6772 11.5766 4.66064 7.86977 4.66064C4.16295 4.66064 1.1543 7.67984 1.1543 11.384C1.1543 13.1887 1.86563 14.8853 3.15392 16.1605ZM8.23333 12.401H7.5141C6.25742 12.2244 5.28527 11.1443 5.28527 9.84017C5.28527 8.41224 6.44711 7.25041 7.8724 7.25041C9.29769 7.25041 10.4622 8.41224 10.4622 9.84017C10.4622 11.1443 9.49001 12.2244 8.23333 12.401ZM7.87503 5.44311C11.1498 5.44311 13.8159 8.10927 13.8159 11.384C13.8159 12.6723 13.4076 13.8974 12.6488 14.9169C12.3775 13.5812 11.2552 12.5485 9.87202 12.4168C10.6413 11.8187 11.1392 10.8887 11.1392 9.84017C11.1392 8.04077 9.67443 6.57333 7.8724 6.57333C6.07037 6.57333 4.60819 8.03814 4.60819 9.84017C4.60819 10.8887 5.10612 11.8214 5.87541 12.4168C5.86487 12.4168 5.85433 12.4168 5.8438 12.4168C5.82799 12.4168 5.81218 12.4194 5.79637 12.422C4.43168 12.588 3.36205 13.6102 3.0986 14.9143C2.33984 13.8974 1.93149 12.6697 1.93149 11.3814C1.93149 8.10664 4.59765 5.44047 7.8724 5.44047L7.87503 5.44311Z" fill="#191919"/>
<path d="M22.8628 11.1625C25.6396 11.1625 27.8974 8.9047 27.8974 6.12789C27.8974 3.35107 25.6396 1.09326 22.8628 1.09326C20.0859 1.09326 17.8281 3.35107 17.8281 6.12789C17.8281 8.9047 20.0859 11.1625 22.8628 11.1625ZM22.8628 1.87045C25.2101 1.87045 27.1202 3.7805 27.1202 6.12525C27.1202 8.47 25.2101 10.3827 22.8628 10.3827C20.5154 10.3827 18.608 8.47264 18.608 6.12525C18.608 3.77787 20.518 1.87045 22.8628 1.87045Z" fill="#191919"/>
<path d="M0 11.3839C0 15.7256 3.53293 19.2586 7.87467 19.2586C9.04178 19.2586 10.2062 18.9925 11.2627 18.4866L12.8013 20.1991C12.0188 21.1818 11.6605 22.4042 11.7843 23.6767C12.0083 25.9451 13.8182 27.7524 16.0839 27.9763C16.242 27.9921 16.408 28 16.5713 28C17.9281 28 19.2296 27.423 20.1385 26.4193C21.0632 25.3997 21.4953 24.0798 21.3609 22.7019C21.137 20.4336 19.3271 18.6263 17.0587 18.3997C16.0839 18.3022 15.0907 18.513 14.2266 18.9925L12.854 17.4671C14.6718 15.9733 15.7441 13.7313 15.7441 11.3839C15.7441 10.7648 15.6677 10.143 15.5201 9.5318L17.388 8.87053C18.426 10.936 20.5363 12.2507 22.8626 12.2507C26.2401 12.2507 28.988 9.50282 28.988 6.12533C28.988 2.74784 26.2401 0 22.8626 0C19.4851 0 16.7373 2.74784 16.7373 6.12533C16.7373 6.44411 16.7636 6.76816 16.8163 7.08957L14.8641 7.77983C13.5152 5.17426 10.8096 3.50922 7.87204 3.50922C3.53293 3.50922 0 7.04215 0 11.3839ZM7.87467 4.28905C10.6278 4.28905 13.1543 5.91193 14.3161 8.42793C14.4005 8.60971 14.6112 8.69928 14.7983 8.63079L17.3933 7.71396C17.5777 7.6481 17.6857 7.45578 17.6436 7.26346C17.5593 6.88145 17.5171 6.49944 17.5171 6.12533C17.5171 3.17727 19.9146 0.777192 22.8626 0.777192C25.8107 0.777192 28.2081 3.17463 28.2081 6.12533C28.2081 9.07603 25.8107 11.4708 22.8626 11.4708C20.726 11.4708 18.7975 10.1983 17.9518 8.23034C17.8702 8.04065 17.6568 7.94844 17.4644 8.01694L14.9247 8.91532C14.7298 8.98382 14.6218 9.19458 14.6797 9.39217C14.872 10.0482 14.9695 10.7174 14.9695 11.3813C14.9695 13.6233 13.8814 15.7599 12.0583 17.0982C11.9688 17.1641 11.9134 17.2616 11.9003 17.3722C11.8897 17.4802 11.924 17.5909 11.9977 17.6726L13.8656 19.7486C13.9947 19.8909 14.2055 19.9198 14.3688 19.8145C15.146 19.3086 16.0734 19.082 16.9849 19.1716C18.8845 19.3587 20.3993 20.8762 20.589 22.7731C20.7023 23.9296 20.3387 25.0361 19.5642 25.8924C18.8028 26.7354 17.7121 27.2175 16.574 27.2175C16.4343 27.2175 16.2973 27.2096 16.163 27.1965C14.2635 27.0094 12.7486 25.4945 12.5615 23.595C12.4483 22.4385 12.8118 21.332 13.5706 20.4915C13.5811 20.481 13.6048 20.4573 13.6154 20.4467C13.7444 20.2992 13.7418 20.0779 13.6127 19.9304L11.6447 17.7411C11.5683 17.6568 11.4629 17.612 11.3549 17.612C11.2943 17.612 11.2311 17.6278 11.1731 17.6568C10.143 18.1995 9.03387 18.4761 7.87731 18.4761C3.965 18.4761 0.782461 15.2936 0.782461 11.3813C0.782461 7.46895 3.965 4.28641 7.87731 4.28641L7.87467 4.28905Z" fill="#191919"/>
</svg>
