<svg width="27" height="26" viewBox="0 0 27 26" fill="none" xmlns="http://www.w3.org/2000/svg">
<g clip-path="url(#clip0_80_21536)">
<path d="M7.92697 20.3985C6.69474 20.3985 5.69336 19.3938 5.69336 18.1575C5.69336 16.9212 6.69474 15.9165 7.92697 15.9165C8.48122 15.9165 9.01258 16.121 9.42229 16.4934C9.89126 16.9181 10.1595 17.5253 10.1595 18.1575C10.1595 19.3938 9.15816 20.3985 7.92593 20.3985H7.92697ZM7.92697 16.9598C7.26874 16.9598 6.73322 17.4971 6.73322 18.1575C6.73322 18.8179 7.26874 19.3552 7.92697 19.3552C8.5852 19.3552 9.12073 18.8179 9.12073 18.1575C9.12073 17.8195 8.97723 17.495 8.72558 17.2676C8.50721 17.0693 8.22333 16.9598 7.92697 16.9598Z" fill="#191919"/>
<path d="M9.07451 17.402C8.94973 17.402 8.82599 17.3581 8.72616 17.2674C8.51299 17.0744 8.49635 16.7447 8.68872 16.5308L12.3272 12.4849C12.5196 12.27 12.8482 12.2543 13.0613 12.4473C13.2745 12.6404 13.2911 12.97 13.0988 13.1839L9.4603 17.2298C9.35735 17.3435 9.21593 17.402 9.07451 17.402Z" fill="#191919"/>
<path d="M13.8605 13.7988C13.3063 13.7988 12.7749 13.5943 12.3652 13.2219C11.8962 12.7973 11.6279 12.1901 11.6279 11.5578C11.6279 10.3226 12.6293 9.31787 13.8615 9.31787C14.7569 9.31787 15.5638 9.85204 15.9153 10.6773C16.0348 10.9558 16.0952 11.2521 16.0952 11.5578C16.0952 12.7941 15.0938 13.7988 13.8615 13.7988H13.8605ZM13.8605 10.3612C13.2023 10.3612 12.6667 10.8985 12.6667 11.5578C12.6667 11.8959 12.8102 12.2203 13.0619 12.4478C13.2803 12.646 13.5641 12.7555 13.8605 12.7555C14.5187 12.7555 15.0543 12.2182 15.0543 11.5578C15.0543 11.394 15.022 11.2355 14.9586 11.0883C14.7704 10.646 14.3388 10.3612 13.8605 10.3612Z" fill="#191919"/>
<path d="M15.4355 11.4043C15.2338 11.4043 15.0425 11.2854 14.9582 11.0882C14.8449 10.8232 14.9676 10.5165 15.2317 10.4038L20.0951 8.31723C20.3582 8.20247 20.665 8.32662 20.7773 8.59162C20.8906 8.85661 20.7679 9.16334 20.5038 9.27602L15.6404 11.3626C15.5738 11.3918 15.5042 11.4054 15.4355 11.4054V11.4043Z" fill="#191919"/>
<path d="M21.8752 10.3609C20.9799 10.3609 20.173 9.82674 19.8205 9.00045C19.7019 8.72293 19.6416 8.42664 19.6416 8.11991C19.6416 6.8836 20.643 5.87891 21.8752 5.87891C23.1074 5.87891 24.1088 6.8836 24.1088 8.11991C24.1088 9.35621 23.1074 10.3609 21.8752 10.3609ZM21.8752 6.9222C21.217 6.9222 20.6815 7.4595 20.6815 8.11991C20.6815 8.28371 20.7137 8.44229 20.7771 8.58939C20.9653 9.03175 21.3969 9.31761 21.8752 9.31761C22.5334 9.31761 23.069 8.78031 23.069 8.11991C23.069 7.4595 22.5334 6.9222 21.8752 6.9222Z" fill="#191919"/>
<path d="M26.3613 4.78134C26.1419 4.78134 25.9371 4.6405 25.8664 4.41932L25.0594 1.89872L22.5471 2.70936C22.2736 2.79595 21.9814 2.64676 21.8931 2.37237C21.8057 2.09798 21.9555 1.80482 22.2289 1.71614L25.2362 0.745872C25.5097 0.660322 25.8019 0.80847 25.8903 1.08286L26.8573 4.10007C26.9447 4.37446 26.7949 4.66762 26.5215 4.75631C26.4684 4.773 26.4154 4.78134 26.3624 4.78134H26.3613Z" fill="#191919"/>
<path d="M3.39395 26C3.10695 26 2.87402 25.7663 2.87402 25.4784V0.521648C2.87402 0.233698 3.10695 0 3.39395 0C3.68095 0 3.91388 0.233698 3.91388 0.521648V25.4784C3.91388 25.7663 3.68095 26 3.39395 26Z" fill="#191919"/>
<path d="M25.3944 23.0609H0.519929C0.232928 23.0609 0 22.8272 0 22.5392C0 22.2513 0.232928 22.0176 0.519929 22.0176H25.3944C25.6814 22.0176 25.9143 22.2513 25.9143 22.5392C25.9143 22.8272 25.6814 23.0609 25.3944 23.0609Z" fill="#191919"/>
<path d="M22.6551 7.1152C22.575 7.1152 22.4939 7.09642 22.418 7.05782C22.1622 6.92637 22.0623 6.61129 22.1934 6.35568L24.9313 1.00461C25.0623 0.749005 25.3764 0.646762 25.6311 0.779261C25.8869 0.910716 25.9868 1.22579 25.8557 1.4814L23.1178 6.83247C23.0263 7.01192 22.8433 7.1152 22.6551 7.1152Z" fill="#191919"/>
</g>
<defs>
<clipPath id="clip0_80_21536">
<rect width="26.8814" height="26" fill="white"/>
</clipPath>
</defs>
</svg>
