<svg width="31" height="25" viewBox="0 0 31 25" fill="none" xmlns="http://www.w3.org/2000/svg">
<path d="M9.39371 22.4529C9.25311 22.4529 9.12812 22.3494 9.10469 22.2074L8.82738 20.4316C8.80394 20.2743 8.91331 20.1286 9.07344 20.1017C9.23358 20.0787 9.382 20.1861 9.40543 20.3434L9.68274 22.1192C9.70617 22.2765 9.59681 22.4222 9.43668 22.4491C9.42105 22.4491 9.40543 22.4491 9.39371 22.4491V22.4529Z" fill="black"/>
<path d="M10.6397 22.9477C10.5499 22.9477 10.464 22.9094 10.4054 22.8327C10.3077 22.7061 10.3351 22.5258 10.464 22.4299L13.03 20.5352C13.1589 20.4393 13.3425 20.4661 13.4401 20.5927C13.5378 20.7193 13.5104 20.8996 13.3816 20.9954L10.8155 22.8902C10.7647 22.9285 10.7022 22.9477 10.6397 22.9477Z" fill="black"/>
<path d="M17.2867 20.5619C17.2867 20.5619 17.2672 20.5619 17.2593 20.5619L15.5252 20.4008C15.3651 20.3855 15.2479 20.2436 15.2596 20.0863C15.2752 19.9291 15.4197 19.814 15.5799 19.8255L17.314 19.9866C17.4742 20.0019 17.5913 20.1438 17.5796 20.3011C17.564 20.4507 17.439 20.5619 17.2867 20.5619Z" fill="black"/>
<path d="M19.6226 19.9102C19.5328 19.9102 19.4468 19.8719 19.3883 19.7951C19.2906 19.6686 19.314 19.4883 19.4429 19.3924L21.0755 18.1765C21.2044 18.0807 21.388 18.1075 21.4856 18.2302C21.5833 18.3568 21.5599 18.5371 21.431 18.633L19.7984 19.8488C19.7437 19.8872 19.6851 19.9064 19.6226 19.9064V19.9102Z" fill="black"/>
<path d="M23.5559 17.5668C23.427 17.5668 23.3138 17.4862 23.2747 17.3597C23.2317 17.2062 23.3177 17.049 23.4739 17.003L26.2353 16.2205C26.3915 16.1783 26.5516 16.2665 26.5985 16.4161C26.6415 16.5695 26.5555 16.7268 26.3993 16.7728L23.6379 17.5553C23.6106 17.5629 23.5833 17.5668 23.5559 17.5668Z" fill="black"/>
<path d="M28.0355 15.2307C28.0003 15.2307 27.9652 15.223 27.9339 15.2115C27.7816 15.1539 27.7074 14.989 27.7621 14.8394L28.6682 12.4691C28.7268 12.3195 28.8947 12.2466 29.0471 12.3003C29.1994 12.3578 29.2736 12.5228 29.2189 12.6724L28.3128 15.0427C28.2698 15.1578 28.1565 15.2307 28.0394 15.2307H28.0355Z" fill="black"/>
<path d="M28.6801 10.59C28.5864 10.59 28.4927 10.544 28.4341 10.4596L26.5866 7.721C26.4968 7.58676 26.5359 7.41032 26.6687 7.3221C26.8054 7.23389 26.985 7.27224 27.0749 7.40265L28.9223 10.1412C29.0121 10.2755 28.9731 10.4519 28.8403 10.5401C28.7895 10.5708 28.7348 10.5861 28.6801 10.5861V10.59Z" fill="black"/>
<path d="M25.0989 5.9719C25.0325 5.9719 24.97 5.94889 24.9153 5.9067L22.0758 3.62839C21.9508 3.52867 21.9313 3.34456 22.0329 3.22182C22.1344 3.09909 22.318 3.07991 22.4469 3.17963L25.2863 5.45794C25.4113 5.55766 25.4309 5.74177 25.3293 5.8645C25.2707 5.93354 25.1887 5.9719 25.1028 5.9719H25.0989Z" fill="black"/>
<path d="M19.9507 2.71939C19.9507 2.71939 19.9272 2.71939 19.9116 2.71939L14.3029 2.01749C14.1428 1.99831 14.0295 1.85256 14.0491 1.69531C14.0686 1.53805 14.217 1.42682 14.3771 1.446L19.9858 2.1479C20.146 2.16708 20.2592 2.31283 20.2397 2.47008C20.2202 2.61584 20.0952 2.72323 19.9507 2.72323V2.71939Z" fill="black"/>
<path d="M6.413 5.30842C6.30755 5.30842 6.206 5.25472 6.15522 5.155C6.08101 5.01308 6.13569 4.84049 6.2763 4.76761L11.7522 1.91781C11.8967 1.84493 12.0724 1.89863 12.1467 2.03671C12.2209 2.17863 12.1662 2.35122 12.0256 2.4241L6.5497 5.2739C6.50674 5.29691 6.45987 5.30842 6.413 5.30842Z" fill="black"/>
<path d="M2.2689 10.8122C2.21812 10.8122 2.16735 10.8007 2.12048 10.77C1.97987 10.6894 1.93691 10.513 2.01893 10.3749L4.33505 6.57006C4.41707 6.43198 4.59673 6.38979 4.73734 6.47034C4.87795 6.55088 4.92091 6.72732 4.83889 6.86539L2.52277 10.6702C2.46809 10.7623 2.37045 10.8122 2.27281 10.8122H2.2689Z" fill="black"/>
<path d="M3.22965 16.2052C3.11248 16.2052 2.99921 16.1323 2.95624 16.0172L1.78061 12.9258C1.72593 12.7762 1.80014 12.6113 1.95246 12.5537C2.10479 12.5 2.27274 12.5729 2.32742 12.7225L3.50305 15.8139C3.56164 15.9635 3.48352 16.1284 3.3312 16.186C3.29605 16.1975 3.2648 16.2052 3.22965 16.2052Z" fill="black"/>
<path d="M7.91282 18.5829C7.84642 18.5829 7.78003 18.5599 7.72535 18.5177L6.90904 17.8503L4.94054 17.5818C4.7804 17.5588 4.66714 17.4131 4.69057 17.2558C4.71401 17.0986 4.86243 16.9873 5.02256 17.0103L7.07308 17.2903C7.12776 17.298 7.17854 17.321 7.2215 17.3555L8.1042 18.0766C8.22919 18.1802 8.24481 18.3604 8.14326 18.4832C8.08468 18.5522 8.00265 18.5867 7.91673 18.5867L7.91282 18.5829Z" fill="black"/>
<path d="M6.49509 11.4797C6.35839 11.4797 6.23731 11.3877 6.20997 11.2534L5.25306 6.93463C5.21791 6.77737 5.31946 6.62778 5.47569 6.59327C5.63192 6.55875 5.78815 6.65847 5.8233 6.81189L6.78021 11.1307C6.81536 11.288 6.71381 11.4375 6.55758 11.4721C6.53805 11.4759 6.51462 11.4797 6.49509 11.4797Z" fill="black"/>
<path d="M4.39795 16.3278C4.34327 16.3278 4.28859 16.3124 4.23781 16.2818C4.10111 16.1935 4.06206 16.0171 4.15189 15.8829L5.81574 13.3667C5.90557 13.2325 6.08524 13.1941 6.22194 13.2824C6.35864 13.3706 6.3977 13.547 6.30787 13.6813L4.64401 16.1974C4.58933 16.2818 4.49559 16.3278 4.39795 16.3278Z" fill="black"/>
<path d="M7.72968 11.863C7.65157 11.863 7.57345 11.8323 7.51487 11.7709C7.4055 11.6559 7.41332 11.4718 7.53049 11.3644L10.7918 8.38799C10.909 8.28059 11.0964 8.28826 11.2058 8.40333C11.3152 8.51839 11.3074 8.7025 11.1902 8.80989L7.92888 11.7863C7.8742 11.8361 7.79999 11.863 7.72968 11.863Z" fill="black"/>
<path d="M10.7017 7.62466C10.6704 7.62466 10.6431 7.62083 10.6119 7.60932L6.40926 6.28606C6.25693 6.2362 6.17101 6.07511 6.21788 5.92552C6.26865 5.77594 6.43269 5.69156 6.58502 5.74142L10.7876 7.06468C10.9399 7.11454 11.0259 7.27563 10.979 7.42522C10.9399 7.54795 10.8228 7.62466 10.7017 7.62466Z" fill="black"/>
<path d="M16.3613 6.41267C16.2246 6.41267 16.1035 6.31678 16.0762 6.18254C16.0684 6.13651 16.0605 6.09049 16.0566 6.04446C16.0527 5.98309 16.0488 5.93323 16.0488 5.88337C16.0488 5.72611 16.1816 5.5957 16.3418 5.5957C16.5019 5.5957 16.6347 5.72611 16.6347 5.88337C16.6347 5.91789 16.6347 5.95241 16.6386 5.98309C16.6386 6.01378 16.6425 6.04446 16.6503 6.07131C16.6816 6.22857 16.58 6.37815 16.4199 6.40884C16.4003 6.40884 16.3808 6.41267 16.3613 6.41267Z" fill="black"/>
<path d="M16.7013 5.28149C16.6271 5.28149 16.5568 5.25464 16.4982 5.20094L13.7876 2.66182C13.6705 2.55059 13.6666 2.37032 13.7798 2.25526C13.8931 2.14019 14.0767 2.13635 14.1938 2.24758L16.9044 4.78671C17.0216 4.89794 17.0255 5.07821 16.9122 5.19327C16.8537 5.25081 16.7795 5.28149 16.7013 5.28149Z" fill="black"/>
<path d="M13.0456 3.13752C12.9987 3.13752 12.9519 3.13752 12.905 3.12985C12.7449 3.11451 12.616 2.97643 12.6277 2.81917C12.6394 2.66191 12.7722 2.53918 12.9323 2.55452H12.9519C12.9792 2.55452 13.0105 2.56219 13.0417 2.56219C13.2018 2.56219 13.3346 2.6926 13.3346 2.84986C13.3346 3.00711 13.2018 3.13752 13.0417 3.13752H13.0456Z" fill="black"/>
<path d="M12.1703 6.75046C12.1703 6.75046 12.1351 6.75046 12.1195 6.74662C11.9594 6.71977 11.8539 6.57019 11.8813 6.41293L12.5296 2.78068C12.557 2.62342 12.7093 2.51987 12.8694 2.54671C13.0296 2.57356 13.135 2.72315 13.1077 2.88041L12.4593 6.51265C12.4359 6.65073 12.3109 6.75046 12.1703 6.75046Z" fill="black"/>
<path d="M13.139 7.5023C13.0218 7.5023 12.9085 7.42942 12.8656 7.31436C12.8616 7.29902 12.8577 7.28751 12.8499 7.276C12.7679 7.13792 12.8148 6.96149 12.9554 6.88094C13.096 6.8004 13.2757 6.84642 13.3577 6.9845C13.3811 7.02669 13.4006 7.06505 13.4163 7.11107C13.4709 7.26066 13.3967 7.42559 13.2444 7.47929C13.2093 7.49079 13.178 7.49846 13.1429 7.49846L13.139 7.5023Z" fill="black"/>
<path d="M13.1859 7.61359C13.0648 7.61359 12.9476 7.53688 12.9086 7.41797C12.8578 7.26839 12.9398 7.10346 13.096 7.0536L16.3144 6.01033C16.4667 5.96047 16.6346 6.04102 16.6854 6.19444C16.7362 6.34403 16.6542 6.50895 16.4979 6.55882L13.2796 7.60208C13.2484 7.61359 13.2171 7.61742 13.1898 7.61742L13.1859 7.61359Z" fill="black"/>
<path d="M22.798 9.02123C22.6613 9.02123 22.5402 8.92917 22.5129 8.79493L21.4817 4.14626C21.4817 4.14626 21.4427 4.1501 21.4232 4.15394C21.2865 4.16544 21.1888 4.16544 21.0912 4.15394C20.931 4.13859 20.81 4.00051 20.8256 3.83942C20.8412 3.68216 20.9857 3.56326 21.1458 3.57861C21.2122 3.58628 21.2865 3.58628 21.3607 3.57861C21.3919 3.57861 21.4153 3.57477 21.4388 3.5671C21.4896 3.55559 21.5169 3.55176 21.5403 3.54409C21.5599 3.53641 21.5794 3.53258 21.595 3.52874C21.6731 3.50189 21.7669 3.50573 21.8411 3.54792C21.9153 3.59011 21.9739 3.65532 21.9895 3.73586L23.0831 8.67219C23.1183 8.82561 23.0167 8.97903 22.8605 9.01356C22.8409 9.01739 22.8175 9.02123 22.798 9.02123Z" fill="black"/>
<path d="M20.7434 4.06179C20.7161 4.06179 20.6848 4.05795 20.6575 4.05028C20.5989 4.03111 20.5403 4.00426 20.4778 3.96974C20.3411 3.88536 20.2943 3.70892 20.3802 3.57468C20.4661 3.44043 20.6458 3.39824 20.7825 3.47879C20.8098 3.49413 20.8255 3.5018 20.8294 3.5018C20.9856 3.54783 21.0715 3.70892 21.0246 3.86234C20.9856 3.98508 20.8684 4.06563 20.7434 4.06563V4.06179Z" fill="black"/>
<path d="M18.6496 5.3541C18.5637 5.3541 18.4817 5.31958 18.4231 5.25054C18.3216 5.12781 18.3372 4.94754 18.4622 4.84398L20.2588 3.38648C20.3682 3.29826 20.5244 3.29826 20.6338 3.38648L20.6806 3.41716C20.7197 3.44401 20.7392 3.45552 20.7627 3.46702C20.9033 3.54373 20.9579 3.72017 20.8798 3.85825C20.8017 3.99633 20.622 4.05002 20.4814 3.97331C20.4775 3.97331 20.4736 3.96948 20.4658 3.96564L18.8332 5.2889C18.7785 5.33493 18.7121 5.3541 18.6457 5.3541H18.6496Z" fill="black"/>
<path d="M18.9433 6.29767C18.9433 6.29767 18.9277 6.29767 18.916 6.29767C18.7558 6.28233 18.6348 6.14425 18.6504 5.98699C18.6504 5.94864 18.6582 5.91795 18.6582 5.8796C18.6582 5.84124 18.6582 5.80672 18.6504 5.77604C18.6504 5.74152 18.6426 5.707 18.6348 5.67631L19.2128 5.57275C19.2206 5.62645 19.2284 5.67248 19.2363 5.72234C19.2402 5.7722 19.2441 5.8259 19.2441 5.8796C19.2441 5.93329 19.2402 5.97932 19.2363 6.03302C19.2245 6.1826 19.0956 6.29767 18.9433 6.29767Z" fill="black"/>
<path d="M22.044 9.48901C21.9816 9.48901 21.9191 9.46983 21.8644 9.42764L18.4976 6.88852C18.3687 6.79263 18.3453 6.61236 18.4429 6.48579C18.5406 6.35922 18.7242 6.3362 18.853 6.43209L22.2198 8.97121C22.3487 9.0671 22.3721 9.24737 22.2745 9.37394C22.2159 9.44682 22.13 9.48517 22.0401 9.48517L22.044 9.48901Z" fill="black"/>
<path d="M23.9231 9.29728C23.8567 9.29728 23.7864 9.27427 23.7317 9.22824C23.6067 9.12468 23.595 8.94441 23.7004 8.82168L25.0362 7.28746C25.1417 7.16473 25.3252 7.15322 25.4502 7.25678C25.5752 7.36034 25.5869 7.54061 25.4815 7.66335L24.1457 9.19756C24.0871 9.26276 24.0051 9.29728 23.9231 9.29728Z" fill="black"/>
<path d="M28.1256 11.3796C28.1061 11.3796 28.0826 11.3796 28.0631 11.372L24.2901 10.5435C24.1339 10.509 24.0324 10.3556 24.0675 10.1983C24.1027 10.041 24.2589 9.94516 24.419 9.97968L28.192 10.8082C28.3482 10.8427 28.4498 10.9961 28.4146 11.1534C28.3834 11.2876 28.2623 11.3796 28.1295 11.3796H28.1256Z" fill="black"/>
<path d="M26.4929 15.7064C26.4382 15.7064 26.3835 15.691 26.3328 15.6604C26.1961 15.5721 26.1609 15.3957 26.2468 15.2615C26.2781 15.2154 26.3093 15.1771 26.3445 15.1349C26.3601 15.1119 26.3953 15.0697 26.4421 15.0313C26.4695 15.0045 26.4968 14.9776 26.5281 14.9546C26.653 14.8549 26.8366 14.8702 26.9421 14.993C27.0436 15.1157 27.028 15.296 26.903 15.3995C26.8913 15.411 26.8561 15.4456 26.8405 15.4571C26.8288 15.4647 26.8171 15.4801 26.7976 15.5031C26.7702 15.5376 26.7546 15.5568 26.739 15.5798C26.6843 15.6642 26.5906 15.7102 26.4929 15.7102V15.7064Z" fill="black"/>
<path d="M26.6142 15.8174L26.333 15.7368L26.0635 15.6179C26.0752 15.5834 26.0908 15.545 26.1064 15.5105C26.1806 15.3686 26.3564 15.3149 26.5009 15.3839C26.6454 15.4568 26.704 15.6294 26.6298 15.7713C26.622 15.7867 26.6181 15.802 26.6142 15.8135V15.8174Z" fill="black"/>
<path d="M26.2819 16.2166C26.2819 16.2166 26.2507 16.2166 26.2351 16.2128L21.3451 15.4073C21.1888 15.3805 21.0834 15.2386 21.1029 15.0852C21.1029 15.0698 21.1029 15.0545 21.1029 15.0391C21.1029 14.8819 21.2357 14.7515 21.3958 14.7515C21.4935 14.7515 21.5794 14.7975 21.6341 14.8704L26.1804 15.6183C26.2546 15.5876 26.3444 15.5876 26.4265 15.6221C26.5593 15.6873 26.6217 15.8369 26.5749 15.9712C26.5749 15.9827 26.571 15.9903 26.5671 16.0018C26.5319 16.1284 26.4147 16.2128 26.2859 16.2128L26.2819 16.2166Z" fill="black"/>
<path d="M21.3916 15.0312C21.2315 15.0312 21.0987 14.9008 21.0987 14.7435C21.0596 14.5901 21.1534 14.4443 21.3096 14.406C21.4658 14.3676 21.626 14.4712 21.665 14.6246C21.6728 14.6476 21.6807 14.6898 21.6807 14.7435C21.6807 14.9008 21.5479 15.0312 21.3877 15.0312H21.3916Z" fill="black"/>
<path d="M21.1532 14.4251C21.0712 14.4251 20.9853 14.3906 20.9228 14.3292C20.9228 14.3292 20.9228 14.3292 20.9189 14.3254C20.829 14.241 20.8017 14.1106 20.8525 13.9955C20.9189 13.8498 21.0946 13.7884 21.243 13.8536C21.2899 13.8728 21.3368 13.915 21.368 13.9572C21.4813 14.0722 21.4657 14.241 21.3485 14.3522C21.2938 14.4021 21.2235 14.4251 21.1532 14.4251Z" fill="black"/>
<path d="M20.763 14.0954C20.7123 14.0954 20.6615 14.0838 20.6146 14.0532C20.474 13.9726 20.4311 13.7962 20.5131 13.6581L22.1574 10.9387C22.2394 10.8006 22.4191 10.7584 22.5597 10.839C22.7003 10.9195 22.7433 11.096 22.6612 11.234L21.0169 13.9534C20.9622 14.0455 20.8646 14.0954 20.763 14.0954Z" fill="black"/>
<path d="M22.9108 11.5447C22.8678 11.5447 22.8249 11.5371 22.7819 11.5255C22.6257 11.4834 22.5319 11.3261 22.5749 11.1727C22.6179 11.0193 22.778 10.931 22.9342 10.9694C23.0944 10.9694 23.2154 11.096 23.2154 11.2571C23.2154 11.4181 23.0709 11.5447 22.9108 11.5447Z" fill="black"/>
<path d="M23.0752 11.5564C22.915 11.5564 22.7822 11.426 22.7822 11.2687C22.7822 11.1115 22.915 10.9811 23.0752 10.9811C23.1025 10.9811 23.1259 10.9811 23.1533 10.9772C23.2158 10.9734 23.2548 10.9657 23.29 10.958L23.3329 10.9465C23.4853 10.9005 23.6532 10.9811 23.704 11.1268C23.7548 11.2726 23.6845 11.4298 23.536 11.4835C23.5009 11.495 23.4696 11.5027 23.4345 11.5104C23.4345 11.5104 23.3954 11.518 23.3915 11.518C23.3407 11.5257 23.2861 11.5334 23.2392 11.541C23.1611 11.5487 23.122 11.5487 23.0791 11.5487L23.0752 11.5564Z" fill="black"/>
<path d="M23.716 11.3916C23.6144 11.3916 23.5168 11.3456 23.4621 11.2535C23.3801 11.1231 23.4152 10.9543 23.5441 10.87C23.548 10.87 23.5558 10.8623 23.5636 10.8584C23.5793 10.8469 23.5988 10.8354 23.6144 10.8278C23.7472 10.7395 23.9464 10.7664 24.0362 10.8968C24.1261 11.0272 24.1026 11.1998 23.9698 11.288L23.8058 11.0502L23.962 11.2919C23.9386 11.3072 23.9113 11.3225 23.8878 11.3379C23.8761 11.3456 23.8683 11.3494 23.8605 11.3532C23.8136 11.3762 23.7667 11.3877 23.716 11.3877V11.3916Z" fill="black"/>
<path d="M26.8087 15.388C26.7189 15.388 26.6291 15.3458 26.5705 15.2691L23.6021 11.1958C23.5084 11.0654 23.5396 10.8851 23.6685 10.793C23.8013 10.701 23.9849 10.7317 24.0786 10.8582L27.047 14.9316C27.1407 15.062 27.1095 15.2423 26.9806 15.3343C26.9298 15.3688 26.8712 15.388 26.8087 15.388Z" fill="black"/>
<path d="M18.9274 19.4539C18.904 19.4539 18.8766 19.4539 18.8493 19.4424C18.693 19.4002 18.5993 19.2429 18.6423 19.0895L19.4742 16.071C19.5172 15.9175 19.6773 15.8255 19.8335 15.8677C19.9898 15.9099 20.0835 16.0671 20.0405 16.2205L19.2086 19.2391C19.1735 19.3657 19.0563 19.4501 18.9274 19.4501V19.4539Z" fill="black"/>
<path d="M21.4814 16.9144C21.3955 16.9144 21.3096 16.8761 21.251 16.807L20.6768 16.0975C20.5753 15.9747 20.5987 15.7906 20.7237 15.6947C20.8526 15.595 21.0362 15.618 21.1338 15.7408L21.708 16.4503C21.8095 16.5731 21.7861 16.7572 21.6611 16.8531C21.6064 16.8953 21.5439 16.9144 21.4775 16.9144H21.4814Z" fill="black"/>
<path d="M14.1117 19.0049C13.9633 19.0049 13.8344 18.8936 13.8187 18.7441C13.8031 18.5868 13.9242 18.4449 14.0843 18.4295C14.139 18.4257 14.1898 18.4219 14.2445 18.4219C14.4046 18.4219 14.5374 18.5523 14.5374 18.7095C14.5374 18.8668 14.4046 18.9972 14.2445 18.9972C14.2093 18.9972 14.1742 18.9972 14.139 19.0049C14.1312 19.0049 14.1195 19.0049 14.1117 19.0049Z" fill="black"/>
<path d="M13.8151 19.0665C13.694 19.0665 13.5808 18.9936 13.5378 18.8747L12.62 16.2704C12.5926 16.1975 12.6004 16.117 12.6356 16.0479C12.6707 15.9789 12.7332 15.9252 12.8113 15.9022C12.9441 15.814 13.1199 15.8523 13.2136 15.9827C13.2722 16.0671 13.2761 16.1668 13.2371 16.2551L14.0963 18.6868C14.151 18.8364 14.069 19.0013 13.9167 19.055C13.8854 19.0665 13.8542 19.0703 13.819 19.0703L13.8151 19.0665Z" fill="black"/>
<path d="M13.2056 16.3049C13.104 16.3049 13.0064 16.2512 12.9517 16.1592C12.8736 16.0211 12.9204 15.8447 13.0611 15.7679C13.0728 15.7603 13.0845 15.7526 13.0923 15.7449C13.2134 15.6414 13.4009 15.6529 13.5063 15.7718C13.6118 15.8907 13.6 16.0748 13.479 16.1783C13.436 16.2129 13.393 16.2436 13.3501 16.2666C13.3032 16.2934 13.2563 16.3049 13.2056 16.3049Z" fill="black"/>
<path d="M13.6782 15.7448C13.6431 15.7448 13.604 15.7371 13.5689 15.7256C13.4205 15.6681 13.3462 15.4993 13.4048 15.3536C13.4165 15.3229 13.4244 15.296 13.4361 15.2654C13.4829 15.1119 13.647 15.0276 13.7993 15.0736C13.9555 15.1196 14.0415 15.2807 13.9946 15.4303C13.979 15.4763 13.9673 15.5223 13.9477 15.5684C13.9009 15.6796 13.7915 15.7486 13.6743 15.7486L13.6782 15.7448Z" fill="black"/>
<path d="M13.7519 15.4955C13.7246 15.4955 13.6972 15.4955 13.6699 15.484C13.5136 15.4418 13.4238 15.2807 13.4668 15.1273C13.4746 15.1081 13.4746 15.0851 13.4746 15.0621C13.4746 15.0276 13.4824 14.9931 13.4824 14.9586C13.4824 14.8013 13.6152 14.6709 13.7753 14.6709C13.9355 14.6709 14.0683 14.8013 14.0683 14.9586C14.0683 15.0084 14.0683 15.0583 14.0605 15.1081C14.0526 15.1772 14.0448 15.2309 14.0292 15.2846C13.9941 15.4112 13.8769 15.4917 13.748 15.4917L13.7519 15.4955Z" fill="black"/>
<path d="M13.7409 14.9471C13.612 14.9471 13.4948 14.8627 13.4597 14.7361L13.4363 14.6594C13.3894 14.506 13.4792 14.3488 13.6355 14.3027C13.7917 14.2567 13.9518 14.3449 13.9987 14.4983L14.0221 14.5789C14.0651 14.7323 13.9753 14.8896 13.819 14.9318C13.7917 14.9394 13.7682 14.9433 13.7409 14.9433V14.9471Z" fill="black"/>
<path d="M13.42 14.3714C13.3419 14.3714 13.2638 14.3408 13.2052 14.2794C13.0958 14.1643 13.0997 13.9802 13.2169 13.8728L15.6541 11.629C15.7713 11.5216 15.9587 11.5255 16.0681 11.6405C16.1775 11.7556 16.1735 11.9397 16.0564 12.0471L13.6192 14.2909C13.5645 14.3446 13.4903 14.3676 13.42 14.3676V14.3714Z" fill="black"/>
<path d="M16.0795 12.3118C16.0249 12.3118 15.9702 12.2964 15.9194 12.2657C15.8803 12.2427 15.8452 12.212 15.8061 12.1852C15.7475 12.1392 15.7163 12.1085 15.6772 12.074C15.564 11.9627 15.5601 11.7786 15.6772 11.6674C15.7905 11.5562 15.978 11.5523 16.0913 11.6674C16.1186 11.6942 16.142 11.7134 16.1694 11.7364C16.1928 11.7518 16.2162 11.7709 16.2397 11.7863C16.3764 11.8707 16.4154 12.0509 16.3256 12.1852C16.2709 12.2696 16.1772 12.3156 16.0795 12.3156V12.3118Z" fill="black"/>
<path d="M16.5446 12.5038C16.5446 12.5038 16.5095 12.5038 16.4899 12.4999C16.4392 12.4923 16.3884 12.4769 16.3337 12.4616C16.1775 12.4156 16.0876 12.2583 16.1345 12.1049C16.1775 11.9515 16.3415 11.8671 16.4977 11.9093C16.529 11.9169 16.5641 11.9284 16.5954 11.9323C16.7555 11.9591 16.861 12.1087 16.8297 12.266C16.8024 12.4041 16.6813 12.5038 16.5407 12.5038H16.5446Z" fill="black"/>
<path d="M16.8066 12.5306C16.6465 12.5306 16.5137 12.4002 16.5137 12.243C16.5137 12.0857 16.6465 11.9553 16.8066 11.9553C16.8418 11.9553 16.8808 11.9553 16.916 11.9476C16.9511 11.9476 16.9824 11.94 17.0175 11.9323L17.1347 11.9054C17.2909 11.8748 17.4471 11.9745 17.4784 12.1317C17.5096 12.289 17.4081 12.4386 17.248 12.4693L17.2089 12.4769C17.1816 12.4846 17.1542 12.4884 17.1269 12.4961C17.08 12.5038 17.0292 12.5153 16.9706 12.5191C16.9199 12.523 16.8652 12.5268 16.8105 12.5268L16.8066 12.5306Z" fill="black"/>
<path d="M17.2084 12.4691C17.0873 12.4691 16.9701 12.3924 16.931 12.2735C16.8803 12.1239 16.9623 11.959 17.1146 11.9091C17.142 11.9015 17.1693 11.8899 17.1966 11.8784C17.2357 11.8631 17.263 11.8478 17.2943 11.8324C17.4388 11.7595 17.6146 11.8171 17.6888 11.959C17.763 12.1009 17.7044 12.2735 17.5599 12.3464C17.513 12.3694 17.4661 12.3924 17.4193 12.4116C17.3841 12.4269 17.3372 12.4461 17.2982 12.4576C17.2669 12.4691 17.2357 12.4729 17.2044 12.4729L17.2084 12.4691Z" fill="black"/>
<path d="M19.2709 14.2026C19.185 14.2026 19.103 14.1681 19.0444 14.0952L17.4079 12.1314C17.3063 12.0087 17.3258 11.8284 17.4508 11.7287C17.5758 11.629 17.7594 11.6443 17.8648 11.7709L19.5013 13.7347C19.6029 13.8574 19.5834 14.0377 19.4584 14.1374C19.4037 14.1796 19.3373 14.2026 19.2748 14.2026H19.2709Z" fill="black"/>
<path d="M19.1301 14.3219C19.0676 14.3219 19.0091 14.3027 18.9583 14.2644C18.8333 14.1646 18.7942 13.9997 18.8958 13.877C18.9192 13.8501 18.9427 13.8271 18.9661 13.8041C19.0794 13.6929 19.2668 13.689 19.3801 13.8041C19.4934 13.9153 19.5012 14.0918 19.3879 14.2068C19.3254 14.2835 19.2278 14.3257 19.1301 14.3257V14.3219Z" fill="black"/>
<path d="M18.9586 14.575C18.9156 14.575 18.8727 14.5674 18.8336 14.5482C18.6891 14.4791 18.6266 14.3065 18.6969 14.1646C18.7203 14.1186 18.7438 14.0764 18.775 14.0381C18.8688 13.9115 19.0523 13.8808 19.1851 13.9767C19.314 14.0726 19.3453 14.249 19.2476 14.3794C19.2398 14.3909 19.232 14.4024 19.2242 14.4178C19.1734 14.5213 19.068 14.5789 18.9586 14.5789V14.575Z" fill="black"/>
<path d="M18.798 15.0583C18.798 15.0583 18.7745 15.0583 18.7628 15.0583C18.6027 15.0392 18.4894 14.9011 18.5128 14.7438L18.8019 14.7822L18.5128 14.7323C18.5128 14.7055 18.5206 14.6594 18.5363 14.6096C18.591 14.46 18.755 14.3833 18.9112 14.4331C19.0635 14.4868 19.1456 14.6479 19.0909 14.8013C19.0714 14.9471 18.9464 15.0622 18.798 15.0622V15.0583Z" fill="black"/>
<path d="M18.8144 15.4381C18.6777 15.4381 18.5527 15.3422 18.5254 15.2041C18.5059 15.1044 18.498 15.0085 18.498 14.9088C18.498 14.7515 18.6308 14.6211 18.791 14.6211C18.9511 14.6211 19.0839 14.7515 19.0839 14.9088C19.0839 14.974 19.0917 15.0315 19.1034 15.0929C19.1347 15.2501 19.0292 15.3997 18.873 15.4304C18.8535 15.4304 18.8339 15.4342 18.8183 15.4342L18.8144 15.4381Z" fill="black"/>
<path d="M18.8453 15.572C18.7359 15.572 18.6305 15.5107 18.5836 15.4033C18.5563 15.3419 18.5446 15.2882 18.5328 15.2345C18.5016 15.0773 18.607 14.9277 18.7633 14.897C18.9195 14.8663 19.0757 14.9699 19.107 15.1233C19.107 15.1386 19.1109 15.1578 19.1187 15.1732C19.1734 15.3189 19.107 15.4877 18.9586 15.549C18.9195 15.5644 18.8804 15.572 18.8453 15.572Z" fill="black"/>
<path d="M18.9505 15.8097C18.849 15.8097 18.7474 15.756 18.6927 15.6601C18.6693 15.618 18.6498 15.5834 18.6342 15.5412C18.5678 15.3955 18.6342 15.2267 18.7826 15.1615C18.931 15.0963 19.1028 15.1615 19.1692 15.3073C19.181 15.3341 19.1927 15.3571 19.2083 15.384C19.2864 15.5221 19.2356 15.6985 19.0911 15.7752C19.0482 15.7982 18.9974 15.8097 18.9505 15.8097Z" fill="black"/>
<path d="M15.2289 19.4309C15.1469 19.4309 15.0687 19.4002 15.0102 19.335C14.9047 19.2161 14.9125 19.0358 15.0336 18.9284L18.9237 15.5455C19.0448 15.4419 19.2284 15.4496 19.3377 15.5685C19.4432 15.6874 19.4354 15.8676 19.3143 15.975L15.4242 19.358C15.3695 19.4078 15.2992 19.4309 15.2289 19.4309Z" fill="black"/>
<path d="M11.2802 14.7244C11.2411 14.7244 11.1982 14.7168 11.1591 14.6976L7.84703 13.2324C7.69861 13.1672 7.63221 12.9984 7.69861 12.8527C7.765 12.7069 7.93686 12.6417 8.08528 12.7069L11.3974 14.1721C11.5458 14.2373 11.6122 14.4061 11.5458 14.5518C11.4989 14.6592 11.3895 14.7206 11.2802 14.7206V14.7244Z" fill="black"/>
<path d="M9.75638 18.426C9.68998 18.426 9.62359 18.403 9.5689 18.357C9.44392 18.2534 9.4283 18.0731 9.53375 17.9504L11.4085 15.7565C11.514 15.6337 11.6975 15.6184 11.8225 15.7219C11.9475 15.8255 11.9631 16.0058 11.8577 16.1285L9.98292 18.3224C9.92433 18.3915 9.84231 18.426 9.75638 18.426Z" fill="black"/>
<path d="M17.0139 9.97606C17.0139 9.97606 16.9827 9.97606 16.9671 9.97606C16.8069 9.94921 16.6976 9.80346 16.7249 9.64621L17.1467 7.10325C17.1741 6.94599 17.3225 6.8386 17.4826 6.86544C17.6427 6.89229 17.7521 7.03804 17.7248 7.1953L17.3029 9.73826C17.2795 9.88017 17.1545 9.9799 17.0139 9.9799V9.97606Z" fill="black"/>
<path d="M15.7242 10.5247C15.6656 10.5247 15.6109 10.5094 15.5602 10.4749L12.8652 8.68367C12.7324 8.59545 12.6972 8.41518 12.7871 8.28477C12.8769 8.15436 13.0605 8.11984 13.1933 8.20806L15.8883 9.99925C16.021 10.0875 16.0562 10.2677 15.9664 10.3981C15.9078 10.4787 15.8179 10.5247 15.7242 10.5247Z" fill="black"/>
<path d="M1.60136 13.198C0.718659 13.198 0 12.4923 0 11.6293C0 10.7663 0.718659 10.0605 1.60136 10.0605C1.89429 10.0605 2.17941 10.1373 2.42157 10.283C2.90979 10.5707 3.19882 11.0731 3.19882 11.6293C3.19882 12.2813 2.7809 12.872 2.15598 13.0983C1.99194 13.1635 1.80446 13.198 1.60136 13.198ZM1.60136 10.632C1.04284 10.632 0.585864 11.077 0.585864 11.6254C0.585864 12.1739 1.04284 12.6188 1.60136 12.6188C1.72634 12.6188 1.84352 12.5997 1.94507 12.5575C2.34736 12.4117 2.61295 12.0358 2.61295 11.6254C2.61295 11.2726 2.42938 10.9542 2.11692 10.7701C1.9646 10.6781 1.78493 10.632 1.60136 10.632Z" fill="black"/>
<path d="M5.25761 7.19159C4.96859 7.19159 4.68347 7.11105 4.4335 6.96146C3.95699 6.6853 3.66016 6.16751 3.66016 5.61903C3.66016 4.7522 4.37882 4.05029 5.25761 4.05029C5.84738 4.05029 6.39028 4.36864 6.6715 4.8826C6.79648 5.1089 6.85897 5.35437 6.85897 5.61903C6.85897 5.78012 6.83163 5.94888 6.78086 6.1023C6.6051 6.63161 6.15203 7.03817 5.59741 7.15707C5.47633 7.18009 5.36697 7.19543 5.25761 7.19543V7.19159ZM5.25761 4.62562C4.69909 4.62562 4.24602 5.07054 4.24602 5.61903C4.24602 5.96806 4.4335 6.29408 4.73815 6.47051C4.96077 6.60476 5.19512 6.65078 5.47633 6.59325C5.82785 6.52038 6.11297 6.26339 6.22233 5.92587C6.25749 5.82614 6.27311 5.72258 6.27311 5.61903C6.27311 5.4541 6.23405 5.29684 6.15594 5.15493C5.97627 4.82507 5.63256 4.62179 5.25761 4.62179V4.62562Z" fill="black"/>
<path d="M13.0457 3.13732C12.9988 3.13732 12.952 3.13732 12.909 3.12965C12.909 3.12965 12.8582 3.12582 12.8543 3.12198L12.7801 3.11048C12.2919 3.02993 11.8662 2.72692 11.6357 2.29734C11.5146 2.07488 11.4482 1.8179 11.4482 1.55708C11.4482 0.69409 12.1669 -0.0078125 13.0496 -0.0078125C13.9323 -0.0078125 14.6471 0.69409 14.6471 1.55708C14.6471 1.62612 14.6432 1.699 14.6314 1.7642C14.5924 2.09022 14.444 2.39323 14.2096 2.64254C14.2018 2.65021 14.1901 2.66172 14.1823 2.66939C14.1471 2.70391 14.1198 2.73076 14.0885 2.75377C14.0495 2.78829 14.0065 2.82281 13.9596 2.84966C13.9284 2.87267 13.8776 2.90719 13.8151 2.93404C13.7878 2.95322 13.7292 2.9839 13.6667 3.00308C13.491 3.08363 13.2722 3.12965 13.0457 3.12965V3.13732ZM13.0457 0.575188C12.4872 0.575188 12.0302 1.02011 12.0302 1.56476C12.0302 1.72968 12.0693 1.89078 12.1474 2.03269C12.2958 2.30501 12.5653 2.49679 12.8699 2.54665L12.9246 2.55432C12.9871 2.55816 13.0184 2.56199 13.0496 2.56199C13.1902 2.56199 13.3269 2.53515 13.4519 2.47761C13.491 2.46227 13.5105 2.4546 13.5261 2.44309C13.5808 2.41241 13.6003 2.4009 13.6159 2.3894C13.6589 2.36255 13.6823 2.34337 13.7058 2.32036C13.7214 2.30501 13.737 2.29734 13.7448 2.28584C13.7487 2.282 13.7683 2.25899 13.7761 2.25515C13.7839 2.24748 13.7917 2.24364 13.7995 2.23597C13.9401 2.08255 14.026 1.89461 14.0534 1.69516C14.0612 1.64914 14.0612 1.60695 14.0612 1.56476C14.0612 1.02011 13.6081 0.575188 13.0496 0.575188H13.0457Z" fill="black"/>
<path d="M21.2508 4.16139C21.1961 4.16139 21.1414 4.16139 21.0906 4.15372C21.0047 4.14221 20.9266 4.13071 20.8524 4.11153C20.8211 4.10769 20.7938 4.09619 20.7704 4.08852C20.7626 4.08852 20.7313 4.07701 20.7235 4.07317L20.6727 4.054C20.6024 4.02715 20.5556 4.00797 20.5126 3.98496C20.5009 3.98112 20.4892 3.97345 20.4774 3.96961C20.4267 3.93893 20.3837 3.91592 20.3485 3.88907C19.9189 3.60524 19.6533 3.12196 19.6533 2.59649C19.6533 2.52745 19.6572 2.45841 19.6689 2.39321C19.7666 1.6146 20.4501 1.02393 21.2508 1.02393C22.1335 1.02393 22.8482 1.72966 22.8482 2.59649C22.8482 2.96087 22.7193 3.31374 22.485 3.5899C22.2897 3.82386 22.0202 4.00413 21.7234 4.09235C21.6648 4.10769 21.614 4.12304 21.5632 4.13071C21.5125 4.13838 21.4617 4.14988 21.407 4.15372C21.3562 4.15756 21.3016 4.16139 21.2469 4.16139H21.2508ZM20.743 3.45565C20.743 3.45565 20.7626 3.46332 20.7704 3.471C20.7899 3.4825 20.8133 3.49401 20.8407 3.50168L20.8797 3.51702L20.9383 3.54003C20.9383 3.54003 20.9813 3.54771 20.9969 3.55154C21.0438 3.56688 21.0985 3.57455 21.1492 3.57839C21.2 3.58223 21.2898 3.58223 21.3562 3.57839C21.3914 3.57839 21.4265 3.57072 21.4578 3.56305C21.4929 3.55538 21.5242 3.54771 21.5593 3.54003C21.739 3.48634 21.9069 3.37127 22.0358 3.22169C22.1843 3.04909 22.2624 2.82663 22.2624 2.59649C22.2624 2.04801 21.8093 1.59926 21.2508 1.59926C20.743 1.59926 20.3095 1.9713 20.247 2.46609C20.2392 2.50828 20.2392 2.5543 20.2392 2.59649C20.2392 2.92635 20.4071 3.23319 20.6844 3.4173C20.7079 3.43264 20.7274 3.44415 20.7469 3.45565H20.743Z" fill="black"/>
<path d="M26.1062 8.06618C25.7313 8.06618 25.3642 7.93577 25.0712 7.69797C24.7119 7.39112 24.5088 6.95387 24.5088 6.49361C24.5088 6.13307 24.6377 5.7802 24.872 5.50021C25.1728 5.13583 25.6219 4.92871 26.1062 4.92871C26.9889 4.92871 27.7076 5.63061 27.7076 6.49361C27.7076 7.02291 27.442 7.51002 26.9929 7.80152C26.7351 7.97412 26.4304 8.06618 26.1062 8.06618ZM26.1062 5.50404C25.8055 5.50404 25.5165 5.63828 25.3251 5.86842C25.1728 6.04869 25.0947 6.26348 25.0947 6.49744C25.0947 6.79278 25.2235 7.06894 25.4501 7.26071C25.7899 7.53687 26.3132 7.56372 26.6648 7.32592C26.9538 7.13798 27.1217 6.8273 27.1217 6.49361C27.1217 5.94896 26.6648 5.50404 26.1062 5.50404Z" fill="black"/>
<path d="M29.4021 12.9412C29.2108 12.9412 29.0233 12.9067 28.8397 12.8415C28.2187 12.6113 27.8008 12.0206 27.8008 11.3686C27.8008 11.265 27.8125 11.15 27.8359 11.0349C27.9258 10.636 28.164 10.2908 28.5116 10.0645C28.7733 9.89193 29.0819 9.80371 29.3982 9.80371C30.277 9.80371 30.9918 10.5056 30.9918 11.3724C30.9918 12.2393 30.277 12.945 29.3982 12.945L29.4021 12.9412ZM29.4021 10.3752C29.199 10.3752 29.0038 10.4327 28.8397 10.5401C28.6171 10.6859 28.4648 10.9045 28.4101 11.1538C28.3945 11.2305 28.3866 11.3034 28.3866 11.3686C28.3866 11.7828 28.6522 12.1549 29.0428 12.3006C29.16 12.3428 29.2811 12.3658 29.4021 12.3658C29.9568 12.3658 30.4098 11.9171 30.4098 11.3686C30.4098 10.8201 29.9568 10.3752 29.4021 10.3752Z" fill="black"/>
<path d="M27.5711 17.7124C26.8602 17.7124 26.2314 17.2444 26.0361 16.5732C25.9932 16.4198 25.9736 16.2817 25.9736 16.1436C25.9736 16.0286 25.9854 15.9289 26.0049 15.8253C26.0205 15.7563 26.0322 15.7064 26.0478 15.6565C26.0752 15.5875 26.0869 15.5491 26.1064 15.5146C26.1377 15.4379 26.1884 15.3459 26.247 15.2615C26.2666 15.2346 26.2861 15.2078 26.3095 15.1809C26.3134 15.1733 26.3408 15.1426 26.3447 15.1387C26.3837 15.0965 26.4111 15.0659 26.4423 15.0352C26.4736 15.0045 26.5009 14.9776 26.5282 14.9585C26.5595 14.9316 26.6025 14.8971 26.6454 14.8664C27.0594 14.5672 27.6453 14.4867 28.1413 14.6785C28.7545 14.9048 29.1685 15.4916 29.1685 16.1436C29.1685 17.0105 28.4499 17.7124 27.5711 17.7124ZM27.5711 15.1464C27.3563 15.1464 27.1532 15.2116 26.9813 15.3343C26.9462 15.3574 26.9266 15.3765 26.9071 15.3919C26.8876 15.4072 26.872 15.4226 26.8641 15.4341C26.8368 15.4609 26.8173 15.4839 26.7977 15.5031L26.7704 15.5376C26.7704 15.5376 26.7509 15.5606 26.7392 15.576C26.7001 15.6297 26.6689 15.6872 26.6415 15.7524C26.6259 15.7869 26.622 15.8023 26.6142 15.8176C26.6025 15.8598 26.5907 15.8982 26.5829 15.9365C26.5673 16.0094 26.5595 16.0708 26.5595 16.1436C26.5595 16.2319 26.5712 16.3239 26.5986 16.4198C26.7196 16.8417 27.1219 17.137 27.5711 17.137C28.1296 17.137 28.5827 16.6921 28.5827 16.1436C28.5827 15.7294 28.321 15.3574 27.9304 15.2154C27.8132 15.1694 27.6922 15.1464 27.5711 15.1464Z" fill="black"/>
<path d="M22.2937 19.2043C21.786 19.2043 21.3251 18.978 21.0205 18.5791C20.8056 18.3144 20.6924 17.9846 20.6924 17.6317C20.6924 17.1523 20.915 16.7035 21.2978 16.4044C21.579 16.1857 21.9344 16.063 22.2937 16.063C23.0046 16.063 23.6373 16.5309 23.8326 17.2021C23.8756 17.3556 23.8951 17.4936 23.8951 17.6317C23.8951 18.4986 23.1764 19.2043 22.2937 19.2043ZM22.2937 16.6345C22.0633 16.6345 21.8446 16.7074 21.661 16.8493C21.4189 17.041 21.2782 17.3249 21.2782 17.6279C21.2782 17.8503 21.3485 18.0575 21.4853 18.2262C21.6805 18.4832 21.9735 18.6251 22.2937 18.6251C22.8523 18.6251 23.3092 18.1764 23.3092 17.6279C23.3092 17.5397 23.2975 17.4476 23.2702 17.3517C23.1491 16.9337 22.7468 16.6345 22.2937 16.6345Z" fill="black"/>
<path d="M18.5877 21.9734C17.705 21.9734 16.9863 21.2677 16.9863 20.4047C16.9863 20.351 16.9902 20.3049 16.9941 20.2551C17.0762 19.442 17.7597 18.8359 18.5877 18.8359C18.7361 18.8359 18.8767 18.8551 19.0095 18.8935C19.3454 18.9817 19.6461 19.1811 19.8571 19.4573C20.068 19.7258 20.1812 20.0556 20.1812 20.4047C20.1812 21.2715 19.4665 21.9734 18.5877 21.9734ZM18.5877 19.4074C18.0643 19.4074 17.6269 19.791 17.5761 20.3011C17.5761 20.3318 17.5683 20.3663 17.5683 20.4008C17.5683 20.9493 18.0253 21.3942 18.5838 21.3942C19.1423 21.3942 19.5915 20.9493 19.5915 20.4008C19.5915 20.1784 19.5212 19.9713 19.3845 19.8025C19.2517 19.6261 19.0603 19.4995 18.8455 19.4458C18.7595 19.4228 18.6736 19.4113 18.5838 19.4113L18.5877 19.4074Z" fill="black"/>
<path d="M14.2478 21.5591C13.7401 21.5591 13.2714 21.3329 12.9707 20.934C12.7598 20.6616 12.6504 20.3356 12.6504 19.9943C12.6504 19.3269 13.08 18.7285 13.7206 18.5099C13.7713 18.4946 13.8104 18.4792 13.8495 18.4754C13.9237 18.4562 14.0057 18.4409 14.0838 18.4332C14.2596 18.4178 14.447 18.4255 14.6189 18.4639L14.6619 18.4754C14.7009 18.4869 14.7361 18.4946 14.7751 18.5099C14.8298 18.5252 14.9001 18.5521 14.9626 18.5866C14.9978 18.6058 15.0446 18.6288 15.0837 18.6556C15.0993 18.6633 15.1618 18.6978 15.2204 18.7477C15.2868 18.7976 15.361 18.8589 15.4235 18.928C15.4352 18.9356 15.443 18.9471 15.4508 18.9548C15.7047 19.2425 15.8453 19.6145 15.8453 19.9943C15.8453 20.0556 15.8453 20.1093 15.8336 20.1669C15.7633 20.9493 15.0798 21.5591 14.2478 21.5591ZM13.826 18.7784L13.9002 19.0584C13.5058 19.1926 13.2363 19.5723 13.2363 19.9981C13.2363 20.2129 13.3066 20.42 13.4394 20.5926C13.6307 20.8457 13.9237 20.9877 14.2478 20.9877C14.7712 20.9877 15.2048 20.6041 15.2516 20.0901C15.2594 20.0403 15.2594 20.0211 15.2594 19.9981C15.2594 19.7641 15.1813 19.5455 15.029 19.3614C15.0173 19.3537 15.0095 19.3422 15.0017 19.3345C14.9626 19.2885 14.9118 19.2425 14.8532 19.2003C14.822 19.1734 14.8025 19.1619 14.7712 19.1466C14.7283 19.1159 14.7087 19.1121 14.6931 19.1044C14.6501 19.0814 14.6111 19.0699 14.572 19.0584C14.5369 19.0469 14.5252 19.043 14.5095 19.0392L14.4666 19.0277C14.3845 19.0085 14.2518 19.0008 14.1424 19.0124C14.0955 19.0162 14.0447 19.0239 13.994 19.0392C13.9783 19.043 13.9588 19.0469 13.9432 19.0507L13.826 18.7861V18.7784Z" fill="black"/>
<path d="M9.59648 24.9998C8.71378 24.9998 7.99512 24.294 7.99512 23.431C7.99512 22.6524 8.56536 22.0004 9.35042 21.8853C9.4051 21.87 9.49102 21.8623 9.59648 21.8623C10.1042 21.8623 10.569 22.0886 10.8737 22.4875C11.0807 22.756 11.1939 23.0935 11.1939 23.431C11.1939 24.2979 10.4753 24.9998 9.59648 24.9998ZM9.59648 22.4376C9.53789 22.4376 9.49493 22.4376 9.45978 22.4491C8.94031 22.5297 8.58098 22.9401 8.58098 23.431C8.58098 23.9795 9.03795 24.4244 9.59648 24.4244C10.155 24.4244 10.6081 23.9795 10.6081 23.431C10.6081 23.2162 10.5339 23.0053 10.405 22.8327C10.2136 22.5795 9.92066 22.4376 9.59648 22.4376Z" fill="black"/>
<path d="M8.91679 20.6887C8.03409 20.6887 7.31543 19.9829 7.31543 19.1161C7.31543 18.7479 7.44432 18.3989 7.68648 18.1112C7.98722 17.7506 8.43638 17.5474 8.91679 17.5474C9.29565 17.5474 9.65107 17.6739 9.944 17.9156C10.3072 18.2186 10.5142 18.6558 10.5142 19.1161C10.5142 19.887 9.93229 20.5544 9.15895 20.6695C9.08474 20.681 9.00272 20.6887 8.91679 20.6887ZM8.91679 18.1227C8.61214 18.1227 8.33093 18.2531 8.13954 18.4794C7.98331 18.6635 7.90129 18.8821 7.90129 19.1161C7.90129 19.6646 8.35827 20.1133 8.91679 20.1133C8.96757 20.1133 9.01834 20.1133 9.06521 20.1018C9.56124 20.029 9.92838 19.6032 9.92838 19.1161C9.92838 18.8246 9.79559 18.5446 9.56515 18.3528C9.38158 18.2032 9.15504 18.1189 8.91679 18.1189V18.1227Z" fill="black"/>
<path d="M3.6912 18.6864C2.8085 18.6864 2.08984 17.9806 2.08984 17.1176C2.08984 16.4694 2.50776 15.8788 3.12878 15.6486C3.60137 15.4722 4.14427 15.5336 4.56219 15.8021C5.01526 16.0936 5.28866 16.5845 5.28866 17.1176C5.28866 17.2097 5.28085 17.2864 5.26913 17.3554C5.16367 18.1072 4.48798 18.6864 3.69511 18.6864H3.6912ZM3.6912 16.1242C3.57013 16.1242 3.44905 16.1472 3.33187 16.1894C2.93739 16.3352 2.67571 16.7072 2.67571 17.1176C2.67571 17.6661 3.13268 18.111 3.6912 18.111C4.19114 18.111 4.61687 17.7428 4.68717 17.2596C4.69498 17.2212 4.69889 17.1828 4.69889 17.1176C4.69889 16.7801 4.52704 16.4694 4.23801 16.2815C4.07787 16.1779 3.88649 16.1204 3.6912 16.1204V16.1242Z" fill="black"/>
<path d="M6.77226 14.0187C6.45589 14.0187 6.15124 13.9305 5.89737 13.7579C5.44821 13.4703 5.1748 12.9793 5.1748 12.4462C5.1748 11.7098 5.70208 11.0654 6.43246 10.912C6.55354 10.8889 6.6629 10.8774 6.77226 10.8774C7.21752 10.8774 7.63543 11.0539 7.94399 11.3761C8.2213 11.6714 8.37362 12.0511 8.37362 12.4462C8.37362 12.6686 8.32675 12.8911 8.23301 13.0905C7.97523 13.6544 7.40109 14.0187 6.77226 14.0187ZM6.77226 11.4528C6.70586 11.4528 6.63165 11.4604 6.55354 11.4758C6.09656 11.5717 5.76067 11.9821 5.76067 12.4462C5.76067 12.7837 5.93252 13.0944 6.22155 13.2823C6.38168 13.3897 6.57307 13.4472 6.77226 13.4472C7.17065 13.4472 7.53388 13.2133 7.69792 12.8566C7.75651 12.73 7.78776 12.5919 7.78776 12.45C7.78776 12.1969 7.69402 11.9629 7.51435 11.7711C7.31907 11.5678 7.05738 11.4566 6.77226 11.4566V11.4528Z" fill="black"/>
<path d="M11.948 9.29699C11.5028 9.29699 11.0771 9.11289 10.7763 8.7907C10.5029 8.50304 10.3506 8.12332 10.3506 7.72442C10.3506 7.571 10.374 7.40991 10.4248 7.25265C10.6396 6.59294 11.2528 6.15186 11.948 6.15186C12.0457 6.15186 12.1394 6.16336 12.2332 6.18254C12.2878 6.19021 12.3503 6.20555 12.4089 6.22473C12.4206 6.22473 12.4324 6.22857 12.4402 6.2324C12.5144 6.25541 12.5847 6.28226 12.6472 6.31678C12.6862 6.33212 12.7409 6.36281 12.7995 6.40116C12.8073 6.40116 12.8112 6.40884 12.819 6.41267C12.8698 6.44336 12.9245 6.48555 12.9713 6.52774C12.9753 6.52774 13.0026 6.55075 13.026 6.5776C13.0534 6.60061 13.1002 6.63897 13.1432 6.6965C13.2174 6.76938 13.2994 6.88444 13.3619 7.00718C13.3736 7.02636 13.3893 7.06088 13.4049 7.09923C13.4283 7.14142 13.4479 7.19128 13.4635 7.24498C13.5143 7.3984 13.5416 7.56333 13.5416 7.72826C13.5416 8.04277 13.4479 8.34578 13.2721 8.6066C12.9713 9.04001 12.4753 9.30083 11.9441 9.30083L11.948 9.29699ZM11.948 6.72719C11.5067 6.72719 11.12 7.00718 10.9833 7.42142C10.9521 7.52114 10.9364 7.6247 10.9364 7.72442C10.9364 7.97757 11.0341 8.21537 11.2099 8.39948C11.4012 8.6066 11.6629 8.72166 11.948 8.72166C12.2839 8.72166 12.6003 8.55673 12.7917 8.28058C12.901 8.11948 12.9635 7.92004 12.9635 7.72059C12.9635 7.61319 12.9479 7.50963 12.9128 7.40991C12.901 7.37539 12.8932 7.35621 12.8893 7.34471C12.8815 7.3332 12.8776 7.32169 12.8737 7.30635C12.8698 7.29101 12.8659 7.2795 12.8581 7.268C12.8112 7.17978 12.7643 7.11457 12.7097 7.05704C12.6784 7.01869 12.6628 7.00718 12.6433 6.988C12.6433 6.988 12.612 6.95732 12.6081 6.95732C12.5808 6.9343 12.5612 6.91896 12.5417 6.90362C12.53 6.89595 12.5183 6.89211 12.5066 6.88444C12.4753 6.86143 12.4402 6.84225 12.405 6.82691C12.3542 6.80006 12.3191 6.78855 12.2839 6.77705C12.2683 6.77705 12.2488 6.76938 12.2332 6.7617C12.2097 6.75403 12.1785 6.74636 12.1394 6.73869C12.0652 6.72335 12.0105 6.71951 11.9559 6.71951L11.948 6.72719Z" fill="black"/>
<path d="M12.4715 16.531C12.0926 16.531 11.7372 16.4044 11.4443 16.1628C11.081 15.8636 10.874 15.4264 10.874 14.9623C10.874 14.7437 10.9209 14.5289 11.0146 14.3218C11.2685 13.7579 11.8427 13.3936 12.4715 13.3936C12.9089 13.3936 13.3347 13.5738 13.6354 13.8883C13.6471 13.896 13.6784 13.9305 13.7057 13.9612C13.7057 13.9612 13.7291 13.9919 13.733 13.9919C13.8541 14.1453 13.9439 14.3141 13.9986 14.4944C13.9986 14.4944 14.0103 14.5289 14.0182 14.5634C14.0182 14.5749 14.0299 14.6094 14.0338 14.6439C14.0572 14.7398 14.0689 14.8434 14.0689 14.9585C14.0689 15.0122 14.065 15.0658 14.0611 15.1157C14.0533 15.1771 14.0494 15.2308 14.0338 15.2845C14.0338 15.3152 14.0143 15.3727 13.9947 15.4302C13.983 15.4686 13.9674 15.5146 13.9518 15.5568C13.8932 15.6872 13.8307 15.7908 13.7565 15.8867C13.7252 15.9403 13.6627 16.0056 13.6159 16.0516C13.5768 16.0938 13.526 16.136 13.4714 16.1782C13.4362 16.2088 13.3932 16.2357 13.3503 16.2625C13.2839 16.3124 13.1706 16.3738 13.0573 16.4121C12.8855 16.485 12.6785 16.5272 12.4676 16.5272L12.4715 16.531ZM12.4715 13.9689C12.0731 13.9689 11.7099 14.199 11.5497 14.5557C11.4911 14.6861 11.4599 14.8242 11.4599 14.9623C11.4599 15.2576 11.5927 15.5338 11.8192 15.7217C12.1043 15.9557 12.5144 16.0171 12.8464 15.879C12.9245 15.8521 12.9792 15.8214 13.03 15.7869C13.073 15.7601 13.0808 15.7524 13.0925 15.7447C13.1316 15.7141 13.1628 15.691 13.1901 15.6604C13.2214 15.6297 13.2565 15.5952 13.2722 15.5683C13.3347 15.4839 13.3737 15.4187 13.4089 15.342C13.4167 15.3228 13.4245 15.2921 13.4362 15.2615C13.4479 15.2231 13.4557 15.1886 13.4635 15.1579C13.4753 15.108 13.4753 15.085 13.4792 15.062C13.4792 15.0313 13.487 14.993 13.487 14.9585C13.487 14.8894 13.4792 14.828 13.4674 14.7782C13.4635 14.7552 13.4596 14.736 13.4596 14.713H13.5885L13.7408 14.6554L13.4479 14.6976C13.4479 14.6976 13.4401 14.6708 13.4362 14.6593C13.405 14.5519 13.3464 14.4407 13.2683 14.3448C13.2448 14.3179 13.237 14.3064 13.2253 14.2987C13.0144 14.0801 12.7449 13.965 12.4676 13.965L12.4715 13.9689Z" fill="black"/>
<path d="M20.1033 16.4812C19.9588 16.4812 19.8143 16.462 19.6815 16.4237C19.3807 16.3431 19.1113 16.1782 18.9042 15.9481C18.83 15.8675 18.7597 15.7678 18.7011 15.6604C18.6777 15.6221 18.6621 15.5837 18.6426 15.5415C18.6113 15.4725 18.5918 15.4149 18.5762 15.3574C18.5684 15.3344 18.5527 15.2845 18.5449 15.2385C18.5449 15.227 18.541 15.2155 18.5371 15.2078C18.5176 15.1119 18.5059 15.0084 18.5059 14.9048C18.5059 14.8511 18.5098 14.7974 18.5137 14.7476C18.5137 14.7207 18.5176 14.6785 18.5293 14.6363C18.5449 14.5404 18.5723 14.4407 18.6074 14.3525C18.6191 14.318 18.6347 14.2835 18.6504 14.2528C18.666 14.2106 18.6894 14.1722 18.7168 14.13C18.7246 14.1109 18.748 14.0725 18.7793 14.0303C18.8144 13.9766 18.8613 13.9153 18.916 13.8577L18.9706 13.8002C19.0214 13.7503 19.0605 13.7158 19.0956 13.6851C19.5995 13.2824 20.3728 13.2287 20.9235 13.5547C20.9665 13.5777 21.0173 13.6122 21.0641 13.6468C21.1344 13.6966 21.1969 13.7503 21.2516 13.8117C21.2711 13.8309 21.2946 13.8577 21.318 13.8846C21.3336 13.8999 21.3453 13.9153 21.3571 13.9306C21.361 13.9344 21.3649 13.9421 21.3688 13.9459C21.4625 14.0648 21.5367 14.1991 21.5953 14.3448C21.607 14.3678 21.6187 14.41 21.6305 14.4522C21.6344 14.4676 21.6383 14.4868 21.6422 14.5098C21.6539 14.552 21.6656 14.5941 21.6695 14.6363C21.6734 14.6555 21.6773 14.6824 21.6812 14.713C21.6891 14.7744 21.693 14.8396 21.693 14.9048C21.693 14.9585 21.6891 15.0122 21.6851 15.0621C21.6422 15.4878 21.4352 15.8714 21.0915 16.136C20.8103 16.3547 20.4587 16.4774 20.0994 16.4774L20.1033 16.4812ZM19.1464 14.038L19.3339 14.2605C19.3065 14.2873 19.2792 14.3257 19.2558 14.3602C19.2362 14.387 19.2323 14.3985 19.2245 14.41C19.2011 14.4522 19.1933 14.4637 19.1894 14.4752C19.1855 14.4906 19.1776 14.5059 19.1698 14.5174C19.1659 14.5289 19.162 14.5404 19.1542 14.552C19.1269 14.621 19.1113 14.6785 19.1034 14.7361C19.1034 14.7552 19.0956 14.7744 19.0878 14.7936C19.0878 14.8319 19.0878 14.8703 19.0878 14.9048C19.0878 14.9662 19.0917 15.0314 19.1034 15.0889C19.1152 15.1503 19.123 15.1733 19.1308 15.1963C19.1425 15.2462 19.1581 15.2769 19.1698 15.3037C19.1816 15.3306 19.1933 15.3536 19.2089 15.3804C19.248 15.4495 19.2909 15.5108 19.3378 15.5645C19.4706 15.7141 19.6424 15.8177 19.8338 15.8675C20.1346 15.9481 20.4783 15.8829 20.7282 15.6873C20.9431 15.5185 21.0758 15.2769 21.1032 15.0084C21.1032 14.9777 21.111 14.9393 21.111 14.9048C21.111 14.8626 21.111 14.8204 21.1032 14.7782C21.1032 14.7667 21.1032 14.7514 21.1032 14.7399C21.0954 14.6977 21.0876 14.6785 21.0798 14.6593C21.0758 14.644 21.0719 14.6325 21.0719 14.6172C21.0641 14.5941 21.0602 14.5788 21.0563 14.5673C21.0173 14.4676 20.9743 14.387 20.9196 14.3142C20.904 14.2988 20.8923 14.2835 20.8806 14.2643C20.8649 14.2489 20.8493 14.2298 20.8337 14.2106C20.7907 14.1646 20.7556 14.1377 20.7126 14.107C20.6853 14.0879 20.6579 14.0687 20.6306 14.0533C20.2634 13.8347 19.7869 13.8769 19.4628 14.1339C19.4393 14.1531 19.4159 14.1722 19.3964 14.1952L19.1503 14.0342L19.1464 14.038Z" fill="black"/>
<path d="M16.8064 12.5305C16.6854 12.5305 16.576 12.519 16.4784 12.4959C16.4393 12.4883 16.3885 12.4768 16.3377 12.4614C16.1932 12.4154 16.0526 12.3502 15.9159 12.262C15.8808 12.239 15.8417 12.2121 15.8066 12.1814C15.748 12.1354 15.7167 12.1047 15.6777 12.0702L15.6503 12.0433C15.3613 11.748 15.2051 11.3645 15.2051 10.9579C15.2051 10.6549 15.2949 10.3596 15.4629 10.1064C15.4707 10.0949 15.4746 10.0834 15.4824 10.0719C15.7831 9.64614 16.2792 9.38916 16.8064 9.38916C16.8767 9.38916 16.9744 9.38916 17.0759 9.41601C17.8376 9.52724 18.4039 10.1793 18.4039 10.9579C18.4039 11.4258 18.193 11.8707 17.8219 12.1738C17.736 12.239 17.6579 12.2888 17.572 12.3348C17.5212 12.3617 17.4704 12.3885 17.4118 12.4077C17.3845 12.4192 17.3454 12.4346 17.3064 12.4499C17.2868 12.4576 17.2673 12.4653 17.2439 12.4691L17.2048 12.4768C17.1775 12.4844 17.1501 12.4883 17.1228 12.4959C17.0759 12.5036 17.0252 12.5151 16.9666 12.519C16.9158 12.5228 16.8611 12.5266 16.8064 12.5266V12.5305ZM15.9823 10.3787C15.9823 10.3787 15.9745 10.3941 15.9667 10.4017C15.8534 10.5705 15.7909 10.7623 15.7909 10.9617C15.7909 11.2187 15.8886 11.4603 16.0683 11.6445C16.1151 11.6905 16.1425 11.7135 16.1659 11.7365C16.1893 11.7518 16.2128 11.771 16.2362 11.7864C16.326 11.8439 16.4159 11.8861 16.5018 11.9129C16.5291 11.9206 16.5604 11.9283 16.5955 11.936C16.6971 11.959 16.8103 11.9628 16.9119 11.9513C16.947 11.9513 16.9783 11.9436 17.0134 11.936L17.0994 11.9168C17.0994 11.9168 17.115 11.9129 17.1228 11.9091C17.1462 11.9014 17.1697 11.8899 17.1931 11.8823C17.24 11.8631 17.2634 11.8516 17.2868 11.8401C17.3454 11.8055 17.404 11.7672 17.4587 11.7288C17.6852 11.5447 17.818 11.2609 17.818 10.9656C17.818 10.4708 17.4587 10.0604 16.9666 9.9875C16.5994 9.91079 16.205 10.0757 15.9784 10.3826L15.9823 10.3787Z" fill="black"/>
<path d="M17.6424 7.44843C17.5525 7.44843 17.4666 7.44076 17.3846 7.42542C16.8026 7.3372 16.3183 6.93447 16.1269 6.37448C16.1074 6.30928 16.0879 6.24407 16.0762 6.1827C16.0645 6.13284 16.0605 6.09065 16.0566 6.04079C16.0488 5.96791 16.0488 5.92572 16.0488 5.8797C16.0488 5.71477 16.0723 5.56135 16.1191 5.4156L16.1308 5.37724C16.1816 5.22766 16.2402 5.11259 16.3144 5.00136C16.3496 4.9515 16.373 4.92081 16.4003 4.89397C16.4199 4.86712 16.455 4.82876 16.4941 4.79041C16.7909 4.48356 17.2127 4.30713 17.6424 4.30713C18.1228 4.30713 18.5719 4.51808 18.8766 4.88246C18.9039 4.91314 18.9313 4.94766 18.9547 4.98218C18.9781 5.01287 18.9977 5.04355 19.0172 5.07807C19.068 5.15862 19.1109 5.25067 19.1461 5.34272L19.1695 5.4156C19.1695 5.4156 19.1812 5.45395 19.1812 5.45779C19.193 5.49998 19.2047 5.53834 19.2086 5.58436C19.2164 5.62272 19.2242 5.67258 19.2281 5.72244C19.232 5.7723 19.2359 5.826 19.2359 5.8797C19.2359 5.93339 19.232 5.97942 19.2281 6.03312C19.2203 6.08682 19.2164 6.12134 19.2086 6.15586C19.2047 6.19805 19.1969 6.24407 19.1734 6.29777C19.1734 6.30544 19.1578 6.3553 19.1422 6.39749C19.0914 6.54708 19.0094 6.69667 18.9 6.83858C18.5915 7.22597 18.1306 7.44843 17.6307 7.44843H17.6424ZM17.6424 4.88629C17.369 4.88629 17.1034 4.99752 16.912 5.19314C16.8886 5.21999 16.869 5.23916 16.8534 5.25834C16.83 5.28903 16.8183 5.30437 16.8065 5.31971C16.7597 5.39258 16.7206 5.46546 16.6972 5.5345L16.6777 5.59587C16.6503 5.68409 16.6347 5.77997 16.6347 5.8797C16.6347 5.91038 16.6347 5.93723 16.6386 5.96791C16.6425 6.01394 16.6464 6.04079 16.6503 6.06764C16.6581 6.10983 16.6737 6.15586 16.6855 6.19805C16.8026 6.54324 17.1112 6.80022 17.4822 6.85776C17.8611 6.92296 18.2204 6.77338 18.4509 6.48571C18.5173 6.39749 18.568 6.30544 18.6032 6.20572C18.6149 6.17887 18.6188 6.15586 18.6266 6.13284C18.6266 6.1175 18.6423 6.04846 18.6462 6.03312C18.6462 6.02161 18.6501 6.00627 18.654 5.99093C18.6579 5.94874 18.6618 5.91422 18.6618 5.8797C18.6618 5.84518 18.6618 5.80682 18.654 5.77614C18.654 5.74162 18.6462 5.7071 18.6383 5.67641C18.6344 5.64573 18.6305 5.63422 18.6266 5.62272L18.5954 5.53066C18.5759 5.4808 18.5524 5.4271 18.5212 5.37724L18.4977 5.33505C18.4977 5.33505 18.4782 5.3082 18.4743 5.30437C18.4626 5.28903 18.4509 5.27368 18.4352 5.25451C18.24 5.0167 17.9548 4.88629 17.6502 4.88629H17.6424Z" fill="black"/>
<path d="M23.075 11.5563C23.0086 11.5563 22.9461 11.5524 22.8875 11.5448C22.8485 11.5448 22.8172 11.5371 22.7938 11.5294C22.7508 11.5217 22.6922 11.5102 22.6297 11.4911C22.5868 11.4834 22.5243 11.4604 22.4501 11.4297C22.3915 11.4067 22.3368 11.3798 22.2821 11.3453C22.2704 11.3415 22.2626 11.3376 22.2548 11.33C21.7666 11.0423 21.4736 10.536 21.4736 9.97603C21.4736 9.627 21.5869 9.29714 21.8056 9.02098C21.9775 8.80236 22.2118 8.62976 22.4813 8.52236C22.5594 8.49168 22.6454 8.46867 22.7274 8.44949C22.8524 8.42264 22.9617 8.41113 23.0711 8.41113C23.4539 8.41113 23.8249 8.54538 24.11 8.78701C24.4654 9.08235 24.6724 9.51577 24.6724 9.97603C24.6724 10.0988 24.6568 10.2177 24.6295 10.3289C24.5514 10.6894 24.3287 11.0231 24.0085 11.2533L23.9577 11.2878C23.9577 11.2878 23.9225 11.3108 23.8874 11.33C23.8796 11.3338 23.8522 11.353 23.8444 11.3568C23.7507 11.4067 23.653 11.4489 23.5593 11.4757C23.5437 11.4834 23.532 11.4872 23.5163 11.4911C23.5124 11.4911 23.5046 11.4911 23.5007 11.4949C23.4773 11.5026 23.4539 11.5064 23.4304 11.5102C23.4304 11.5102 23.3914 11.5179 23.3875 11.5179C23.3367 11.5256 23.282 11.5333 23.2351 11.5409C23.157 11.5486 23.118 11.5486 23.075 11.5486V11.5563ZM22.5399 10.8314C22.5399 10.8314 22.5712 10.8467 22.5829 10.8544C22.6102 10.8697 22.6336 10.8851 22.6649 10.8966C22.6766 10.9004 22.6961 10.9081 22.7039 10.9157C22.7196 10.9196 22.7508 10.9349 22.786 10.9426C22.8485 10.9618 22.8758 10.9656 22.9031 10.9694C22.9149 10.9694 22.9383 10.9733 22.95 10.9771C23.0164 10.9848 23.0867 10.9886 23.1531 10.9809C23.2156 10.9771 23.2547 10.9694 23.2898 10.9618L23.3328 10.9503C23.3328 10.9503 23.3484 10.9464 23.3562 10.9426C23.364 10.9426 23.3718 10.9387 23.3757 10.9349C23.3835 10.9349 23.3914 10.9272 23.3992 10.9272C23.4499 10.9119 23.5085 10.8889 23.5632 10.8582L23.6062 10.8314C23.614 10.8237 23.6374 10.8122 23.6452 10.8083C23.8679 10.6472 24.0085 10.4401 24.0592 10.2062C24.0788 10.1295 24.0866 10.0604 24.0866 9.9837C24.0866 9.6922 23.9577 9.41988 23.7312 9.23194C23.4929 9.02865 23.2156 8.94427 22.8524 9.01715C22.8055 9.02865 22.7508 9.04016 22.7 9.06317C22.5282 9.13221 22.3759 9.24344 22.2665 9.38152C22.1298 9.55796 22.0556 9.76508 22.0556 9.9837C22.0556 10.3327 22.2353 10.6472 22.5321 10.8314H22.5399Z" fill="black"/>
</svg>
