<svg width="104" height="104" viewBox="0 0 104 104" fill="none" xmlns="http://www.w3.org/2000/svg">
<g clip-path="url(#clip0_0_4)">
<path d="M7.90111 27.8673C7.90111 27.0346 7.80385 26.129 8.0713 25.3328C8.48462 24.0929 9.38421 23.868 10.5269 23.6431C12.4477 23.2663 14.3624 22.6524 16.3317 22.6524C18.3011 22.6524 20.1428 23.2481 22.0332 23.6188C23.0726 23.8255 23.9904 23.947 24.501 25.0289C24.9022 25.8798 24.7684 26.9556 24.7684 27.8673C24.7684 29.5387 27.3639 29.5387 27.3639 27.8673C27.3639 25.0593 26.8047 21.9656 23.5892 21.2423C21.2734 20.7196 18.7205 20.0632 16.3378 20.0571C13.9612 20.0571 11.3961 20.7257 9.08638 21.2423C5.86487 21.9656 5.30566 25.0593 5.30566 27.8673C5.30566 29.5387 7.90111 29.5387 7.90111 27.8673Z" fill="#00FCD6"/>
<path d="M9.14787 12.0951C9.3059 16.0093 12.3086 19.2671 16.3324 19.2793C20.2286 19.2914 23.5352 15.985 23.517 12.0951C23.5049 8.18701 20.2469 4.91099 16.3324 4.91099C12.418 4.91099 9.3059 8.19309 9.14787 12.0951C9.08101 13.7666 11.6764 13.7605 11.7433 12.0951C11.8466 9.59102 13.7552 7.5002 16.3385 7.5002C18.9218 7.5002 20.9337 9.59102 20.9337 12.0951C20.9337 14.5993 18.8489 16.7022 16.3385 16.6901C13.7552 16.6718 11.8466 14.6175 11.7433 12.0951C11.6764 10.4298 9.08101 10.4237 9.14787 12.0951Z" fill="#00FCD6"/>
<path d="M30.1117 16.3622C30.0205 22.1059 26.4708 27.412 20.976 29.3387C15.5177 31.2532 9.33603 29.5636 5.65864 25.078C2.01773 20.635 1.57402 14.1924 4.522 9.27534C7.45175 4.38258 13.2991 1.74474 18.9094 2.82054C25.4132 4.0726 30.0023 9.80412 30.1117 16.3622C30.136 18.0276 32.7315 18.0337 32.7071 16.3622C32.5977 9.48199 28.3794 3.36148 21.8938 0.966765C15.469 -1.40364 7.99272 0.717569 3.68319 5.99324C-0.626335 11.2689 -1.23417 18.8967 2.2791 24.7559C5.82884 30.6758 12.8432 33.727 19.5962 32.402C27.2245 30.9068 32.5795 24.0205 32.7011 16.3622C32.7254 14.6908 30.136 14.6908 30.1056 16.3622H30.1117Z" fill="#00FCD6"/>
<path d="M79.195 27.8673C79.195 27.0346 79.0978 26.129 79.3652 25.3328C79.7786 24.0929 80.6782 23.868 81.8209 23.6431C83.7416 23.2663 85.6563 22.6524 87.6257 22.6524C89.5951 22.6524 91.4368 23.2481 93.3271 23.6188C94.3665 23.8255 95.2844 23.947 95.7949 25.0289C96.1961 25.8798 96.0624 26.9556 96.0624 27.8673C96.0624 29.5387 98.6578 29.5387 98.6578 27.8673C98.6578 25.0593 98.0986 21.9656 94.8832 21.2423C92.5674 20.7196 90.0145 20.0632 87.6318 20.0571C85.2551 20.0571 82.6901 20.7257 80.3803 21.2423C77.1588 21.9656 76.5996 25.0593 76.5996 27.8673C76.5996 29.5387 79.195 29.5387 79.195 27.8673Z" fill="#00FCD6"/>
<path d="M80.4407 12.0953C80.5988 16.0095 83.6015 19.2673 87.6253 19.2794C91.5215 19.2916 94.8281 15.9852 94.8099 12.0953C94.7977 8.18715 91.5397 4.91113 87.6253 4.91113C83.7109 4.91113 80.5988 8.19323 80.4407 12.0953C80.3739 13.7667 82.9693 13.7606 83.0362 12.0953C83.1395 9.59116 85.0481 7.50034 87.6314 7.50034C90.2147 7.50034 92.2266 9.59116 92.2266 12.0953C92.2266 14.5994 90.1417 16.7024 87.6314 16.6902C85.0481 16.672 83.1395 14.6176 83.0362 12.0953C82.9693 10.4299 80.3739 10.4238 80.4407 12.0953Z" fill="#00FCD6"/>
<path d="M101.405 16.3618C101.313 22.1055 97.7637 27.4115 92.2689 29.3382C86.8105 31.2528 80.6289 29.5631 76.9515 25.0776C73.3106 20.6346 72.8669 14.192 75.8149 9.27489C78.7507 4.38213 84.592 1.74429 90.2083 2.82009C96.7121 4.07215 101.301 9.80367 101.411 16.3618C101.435 18.0271 104.03 18.0332 104.006 16.3618C103.897 9.48153 99.6783 3.36103 93.1928 0.966311C86.768 -1.40409 79.2917 0.717115 74.9821 5.99279C70.6726 11.2685 70.0709 18.8963 73.5841 24.7555C77.1339 30.6754 84.1482 33.7265 90.9012 32.4015C98.5295 30.9063 103.885 24.02 104.006 16.3618C104.03 14.6903 101.441 14.6903 101.411 16.3618H101.405Z" fill="#00FCD6"/>
<path d="M7.90111 99.1559C7.90111 98.3232 7.80385 97.4176 8.0713 96.6214C8.48462 95.3815 9.38421 95.1566 10.5269 94.9317C12.4477 94.5549 14.3624 93.941 16.3317 93.941C18.3011 93.941 20.1428 94.5366 22.0332 94.9074C23.0726 95.114 23.9904 95.2356 24.501 96.3175C24.9022 97.1684 24.7684 98.2442 24.7684 99.1559C24.7684 100.821 27.3639 100.827 27.3639 99.1559C27.3639 96.3479 26.8047 93.2542 23.5892 92.5309C21.2734 92.0082 18.7205 91.3518 16.3378 91.3457C13.9612 91.3457 11.3961 92.0143 9.08638 92.5309C5.86487 93.2542 5.30566 96.3479 5.30566 99.1559C5.30566 100.821 7.90111 100.827 7.90111 99.1559Z" fill="#00FCD6"/>
<path d="M9.14787 83.3836C9.3059 87.2978 12.3086 90.5555 16.3324 90.5677C20.2286 90.5799 23.5352 87.2734 23.517 83.3836C23.5049 79.4754 20.2469 76.1994 16.3324 76.1994C12.418 76.1994 9.3059 79.4815 9.14787 83.3836C9.08101 85.055 11.6764 85.0489 11.7433 83.3836C11.8466 80.8794 13.7552 78.7886 16.3385 78.7886C18.9218 78.7886 20.9337 80.8794 20.9337 83.3836C20.9337 85.8877 18.8489 87.9967 16.3385 87.9785C13.7552 87.9603 11.8466 85.9059 11.7433 83.3836C11.6764 81.7182 9.08101 81.7121 9.14787 83.3836Z" fill="#00FCD6"/>
<path d="M30.1116 87.6504C30.0204 93.394 26.4707 98.7001 20.9759 100.627C15.5176 102.541 9.33592 100.852 5.65854 96.3662C2.01763 91.9232 1.57391 85.4805 4.52189 80.5635C7.45772 75.6707 13.299 73.0329 18.9153 74.1087C25.4191 75.3607 30.0083 81.0922 30.1177 87.6504C30.142 89.3157 32.7374 89.3218 32.7131 87.6504C32.6037 80.7701 28.3854 74.6496 21.8998 72.2549C15.475 69.8845 7.99869 72.0057 3.68916 77.2814C-0.620364 82.557 -1.22212 90.1849 2.29115 96.044C5.84089 101.964 12.8553 105.015 19.6083 103.69C27.2366 102.195 32.5916 95.3086 32.7131 87.6504C32.7374 85.9789 30.1481 85.9789 30.1177 87.6504H30.1116Z" fill="#00FCD6"/>
<path d="M79.195 99.1559C79.195 98.3232 79.0978 97.4176 79.3652 96.6214C79.7786 95.3815 80.6782 95.1566 81.8209 94.9317C83.7416 94.5549 85.6563 93.941 87.6257 93.941C89.5951 93.941 91.4368 94.5366 93.3271 94.9074C94.3665 95.114 95.2844 95.2356 95.7949 96.3175C96.1961 97.1684 96.0624 98.2442 96.0624 99.1559C96.0624 100.821 98.6578 100.827 98.6578 99.1559C98.6578 96.3479 98.0986 93.2542 94.8832 92.5309C92.5674 92.0082 90.0145 91.3518 87.6318 91.3457C85.2551 91.3457 82.6901 92.0143 80.3803 92.5309C77.1588 93.2542 76.5996 96.3479 76.5996 99.1559C76.5996 100.821 79.195 100.827 79.195 99.1559Z" fill="#00FCD6"/>
<path d="M80.4407 83.3834C80.5988 87.2976 83.6015 90.5554 87.6253 90.5675C91.5215 90.5797 94.8281 87.2733 94.8099 83.3834C94.7977 79.4752 91.5397 76.1992 87.6253 76.1992C83.7109 76.1992 80.5988 79.4813 80.4407 83.3834C80.3739 85.0548 82.9693 85.0487 83.0362 83.3834C83.1395 80.8792 85.0481 78.7884 87.6314 78.7884C90.2147 78.7884 92.2266 80.8792 92.2266 83.3834C92.2266 85.8875 90.1417 87.9965 87.6314 87.9783C85.0481 87.9601 83.1395 85.9057 83.0362 83.3834C82.9693 81.718 80.3739 81.7119 80.4407 83.3834Z" fill="#00FCD6"/>
<path d="M101.405 87.6504C101.313 93.394 97.7637 98.7001 92.2689 100.627C86.8105 102.541 80.6289 100.852 76.9515 96.3662C73.3106 91.9232 72.8669 85.4805 75.8149 80.5635C78.7507 75.6707 84.592 73.0329 90.2083 74.1087C96.7121 75.3607 101.301 81.0922 101.411 87.6504C101.435 89.3157 104.03 89.3218 104.006 87.6504C103.897 80.7701 99.6783 74.6496 93.1928 72.2549C86.768 69.8845 79.2917 72.0057 74.9821 77.2814C70.6726 82.557 70.0709 90.1849 73.5841 96.044C77.1339 101.964 84.1482 105.015 90.9012 103.69C98.5295 102.195 103.885 95.3086 104.006 87.6504C104.03 85.9789 101.441 85.9789 101.411 87.6504H101.405Z" fill="#00FCD6"/>
<path d="M67.1287 15.0674H36.8344C35.1689 15.0674 35.1628 17.6626 36.8344 17.6626H67.1287C68.7941 17.6626 68.8002 15.0674 67.1287 15.0674Z" fill="#00FCD6"/>
<path d="M67.1287 86.3556H36.8344C35.1689 86.3556 35.1628 88.9509 36.8344 88.9509H67.1287C68.7941 88.9509 68.8002 86.3556 67.1287 86.3556Z" fill="#00FCD6"/>
<path d="M17.6335 67.1552V36.8626C17.6335 35.1973 15.0381 35.1912 15.0381 36.8626V67.1552C15.0381 68.8266 17.6335 68.8266 17.6335 67.1552Z" fill="#00FCD6"/>
<path d="M88.9255 67.1552V36.8626C88.9255 35.1973 86.3301 35.1912 86.3301 36.8626V67.1552C86.3301 68.8266 88.9255 68.8266 88.9255 67.1552Z" fill="#00FCD6"/>
<path d="M45.1199 48.5106C44.6903 48.081 44.6903 47.382 45.1199 46.9524C45.5495 46.5228 46.2485 46.5228 46.6781 46.9524C47.1077 47.382 47.1077 48.081 46.6781 48.5106C46.2485 48.9402 45.5495 48.9402 45.1199 48.5106Z" fill="white"/>
<path d="M47.1982 59.8903C46.7686 59.4607 46.7686 58.7617 47.1982 58.3321C47.6278 57.9025 48.3268 57.9025 48.7564 58.3321C49.186 58.7617 49.186 59.4607 48.7564 59.8903C48.3268 60.3199 47.6278 60.3199 47.1982 59.8903Z" fill="white"/>
<path d="M61.7711 50.5524C61.7711 50.5524 62.489 48.0733 62.8085 45.8874C63.0181 44.4461 62.7501 43.4049 61.4859 42.3946C60.2217 41.3844 57.6384 41.905 56.3158 42.6532C54.9932 43.4014 45.3709 48.2457 45.3709 48.2457C45.3709 48.2457 52.8668 41.874 55.5978 40.3466C58.3289 38.8191 60.9397 39.0502 62.8635 40.3742C64.7873 41.7016 65.5052 44.322 64.9041 47.2355C64.2995 50.1455 63.6124 52.6556 63.6124 52.6556L61.7745 50.5524H61.7711Z" fill="white"/>
<path d="M50.512 42.829C50.512 42.829 48.042 42.1084 45.864 41.7877C44.428 41.5774 43.3906 41.8463 42.384 43.1152C41.3775 44.384 41.8962 46.9768 42.6417 48.3043C43.3871 49.6317 48.2137 59.2893 48.2137 59.2893C48.2137 59.2893 41.8653 51.766 40.3435 49.0249C38.8216 46.2872 39.0518 43.6634 40.3709 41.7326C41.6935 39.8017 44.3078 39.0811 47.2072 39.6879C50.1066 40.2948 52.6075 40.9844 52.6075 40.9844L50.512 42.829Z" fill="white"/>
<path d="M42.6287 54.2145C42.6287 54.2145 41.9107 56.6935 41.5913 58.8829C41.3817 60.3242 41.6497 61.3654 42.9139 62.3757C44.1781 63.3859 46.7614 62.8653 48.084 62.1171C49.4066 61.3689 59.0289 56.5246 59.0289 56.5246C59.0289 56.5246 51.533 62.8963 48.802 64.4237C46.0743 65.9512 43.4601 65.7202 41.5363 64.3962C39.6125 63.0687 38.8946 60.4483 39.4957 57.5348C40.1003 54.6248 40.7874 52.1147 40.7874 52.1147L42.6253 54.2179L42.6287 54.2145Z" fill="white"/>
<path d="M53.8864 61.9336C53.8864 61.9336 56.3564 62.6542 58.5344 62.9749C59.9703 63.1852 61.0078 62.9163 62.0143 61.6474C63.0209 60.3786 62.5021 57.7858 61.7567 56.4583C61.0112 55.1309 56.1846 45.4733 56.1846 45.4733C56.1846 45.4733 62.5331 52.9966 64.0549 55.7377C65.5767 58.4754 65.3466 61.0992 64.0274 63.03C62.7048 64.9609 60.094 65.6815 57.1912 65.0781C54.2918 64.4713 51.7909 63.7817 51.7909 63.7817L53.8864 61.9371V61.9336Z" fill="white"/>
<path d="M55.521 46.5525C55.0914 46.1229 55.0914 45.4239 55.521 44.9943C55.9506 44.5647 56.6497 44.5647 57.0793 44.9943C57.5089 45.4239 57.5089 46.1229 57.0793 46.5525C56.6497 46.9821 55.9506 46.9821 55.521 46.5525Z" fill="white"/>
<path d="M57.7234 57.6884C57.2938 57.2588 57.2938 56.5597 57.7234 56.1301C58.153 55.7005 58.852 55.7005 59.2816 56.1301C59.7112 56.5597 59.7112 57.2588 59.2816 57.6884C58.852 58.118 58.153 58.118 57.7234 57.6884Z" fill="white"/>
<path d="M52.1756 54.0795C53.1292 54.0795 53.9022 53.3064 53.9022 52.3527C53.9022 51.3989 53.1292 50.6258 52.1756 50.6258C51.2221 50.6258 50.449 51.3989 50.449 52.3527C50.449 53.3064 51.2221 54.0795 52.1756 54.0795Z" fill="white"/>
</g>
<defs>
<clipPath id="clip0_0_4">
<rect width="104" height="104" fill="white"/>
</clipPath>
</defs>
</svg>
