<svg width="37" height="30" viewBox="0 0 37 30" fill="none" xmlns="http://www.w3.org/2000/svg">
<path d="M3.7 29.6C2.6825 29.6 1.81146 29.2377 1.08687 28.5131C0.362292 27.7885 0 26.9175 0 25.9V3.7C0 2.6825 0.362292 1.81146 1.08687 1.08687C1.81146 0.362292 2.6825 0 3.7 0H33.3C34.3175 0 35.1885 0.362292 35.9131 1.08687C36.6377 1.81146 37 2.6825 37 3.7V25.9C37 26.9175 36.6377 27.7885 35.9131 28.5131C35.1885 29.2377 34.3175 29.6 33.3 29.6H3.7ZM18.5 16.65L3.7 7.4V25.9H33.3V7.4L18.5 16.65ZM18.5 12.95L33.3 3.7H3.7L18.5 12.95ZM3.7 7.4V3.7V25.9V7.4Z" fill="#00FCD6"/>
</svg>
