<svg width="122" height="118" viewBox="0 0 122 118" fill="none" xmlns="http://www.w3.org/2000/svg">
<g clip-path="url(#clip0_80_21495)">
<path d="M35.976 92.5777C30.3836 92.5777 25.8389 88.018 25.8389 82.407C25.8389 76.7961 30.3836 72.2363 35.976 72.2363C38.4915 72.2363 40.903 73.1644 42.7625 74.8548C44.8909 76.7819 46.1085 79.5376 46.1085 82.407C46.1085 88.018 41.5638 92.5777 35.9713 92.5777H35.976ZM35.976 76.9713C32.9887 76.9713 30.5582 79.4098 30.5582 82.407C30.5582 85.4043 32.9887 87.8428 35.976 87.8428C38.9634 87.8428 41.3939 85.4043 41.3939 82.407C41.3939 80.8729 40.7426 79.4003 39.6005 78.3681C38.6094 77.4685 37.3211 76.9713 35.976 76.9713Z" fill="#00FCD6"/>
<path d="M41.1854 78.9792C40.6191 78.9792 40.0574 78.7803 39.6044 78.3684C38.6369 77.4924 38.5614 75.9962 39.4345 75.0255L55.9475 56.6633C56.8206 55.6879 58.3119 55.6169 59.2794 56.4928C60.2468 57.3688 60.3224 58.8651 59.4493 59.8357L42.9363 78.1979C42.469 78.714 41.8272 78.9792 41.1854 78.9792Z" fill="#00FCD6"/>
<path d="M62.9039 62.6247C60.3885 62.6247 57.9769 61.6967 56.1175 60.0063C53.9891 58.0792 52.7715 55.3234 52.7715 52.4541C52.7715 46.8479 57.3162 42.2881 62.9087 42.2881C66.972 42.2881 70.6342 44.7124 72.2294 48.4577C72.7721 49.722 73.0458 51.0667 73.0458 52.4541C73.0458 58.065 68.5011 62.6247 62.9087 62.6247H62.9039ZM62.9039 47.023C59.9166 47.023 57.4861 49.4616 57.4861 52.4541C57.4861 53.9882 58.1374 55.4608 59.2795 56.493C60.2705 57.3926 61.5589 57.8898 62.9039 57.8898C65.8913 57.8898 68.3218 55.4513 68.3218 52.4541C68.3218 51.7107 68.1755 50.9909 67.8876 50.3233C67.0334 48.3157 65.0748 47.023 62.9039 47.023Z" fill="#00FCD6"/>
<path d="M70.0541 51.7578C69.1386 51.7578 68.2702 51.218 67.888 50.3231C67.3736 49.1204 67.9304 47.7283 69.1291 47.217L91.2016 37.747C92.3956 37.2262 93.7878 37.7897 94.2975 38.9923C94.8119 40.195 94.255 41.5871 93.0563 42.0985L70.9839 51.5684C70.6818 51.701 70.3656 51.7625 70.0541 51.7625V51.7578Z" fill="#00FCD6"/>
<path d="M99.2807 47.023C95.2174 47.023 91.5551 44.5987 89.9553 40.8486C89.4173 39.5891 89.1436 38.2444 89.1436 36.8523C89.1436 31.2414 93.6883 26.6816 99.2807 26.6816C104.873 26.6816 109.418 31.2414 109.418 36.8523C109.418 42.4633 104.873 47.023 99.2807 47.023ZM99.2807 31.4166C96.2934 31.4166 93.8629 33.8551 93.8629 36.8523C93.8629 37.5957 94.0092 38.3154 94.2971 38.9831C95.1513 40.9907 97.1098 42.2881 99.2807 42.2881C102.268 42.2881 104.699 39.8496 104.699 36.8523C104.699 33.8551 102.268 31.4166 99.2807 31.4166Z" fill="#00FCD6"/>
<path d="M119.64 21.7C118.644 21.7 117.715 21.0608 117.394 20.057L113.731 8.61732L102.33 12.2964C101.088 12.6894 99.7622 12.0123 99.361 10.767C98.9646 9.5217 99.6442 8.19118 100.885 7.7887L114.534 3.38519C115.775 2.99692 117.101 3.66929 117.502 4.91458L121.891 18.6081C122.288 19.8534 121.608 21.1839 120.367 21.5864C120.126 21.6621 119.886 21.7 119.645 21.7H119.64Z" fill="#00FCD6"/>
<path d="M15.4036 118C14.1011 118 13.0439 116.939 13.0439 115.633V2.36748C13.0439 1.06063 14.1011 0 15.4036 0C16.7062 0 17.7633 1.06063 17.7633 2.36748V115.633C17.7633 116.939 16.7062 118 15.4036 118Z" fill="#00FCD6"/>
<path d="M115.251 104.662H2.35968C1.05714 104.662 0 103.601 0 102.294C0 100.987 1.05714 99.9268 2.35968 99.9268H115.251C116.554 99.9268 117.611 100.987 117.611 102.294C117.611 103.601 116.554 104.662 115.251 104.662Z" fill="#00FCD6"/>
<path d="M102.821 32.2924C102.457 32.2924 102.089 32.2072 101.745 32.032C100.584 31.4354 100.131 30.0054 100.725 28.8454L113.151 4.55974C113.746 3.39967 115.171 2.93564 116.328 3.53698C117.488 4.13359 117.942 5.56355 117.347 6.72361L104.921 31.0092C104.506 31.8237 103.675 32.2924 102.821 32.2924Z" fill="#00FCD6"/>
</g>
<defs>
<clipPath id="clip0_80_21495">
<rect width="122" height="118" fill="white"/>
</clipPath>
</defs>
</svg>
