<svg width="150" height="130" viewBox="0 0 150 130" fill="none" xmlns="http://www.w3.org/2000/svg">
<g clip-path="url(#clip0_45_423)">
<path d="M147.504 130H2.49609C1.11825 130 0 128.883 0 127.507C0 126.13 1.11825 125.013 2.49609 125.013H147.504C148.882 125.013 150 126.13 150 127.507C150 128.883 148.882 130 147.504 130Z" fill="#00FCD6"/>
<path d="M26.0892 116.109H9.97949C8.60165 116.109 7.4834 114.992 7.4834 113.615V99.8542C7.4834 98.4776 8.60165 97.3604 9.97949 97.3604H26.0892C27.4671 97.3604 28.5853 98.4776 28.5853 99.8542V113.615C28.5853 114.992 27.4671 116.109 26.0892 116.109ZM12.4756 111.121H23.5932V102.348H12.4756V111.121Z" fill="#00FCD6"/>
<path d="M53.9955 116.109H37.8857C36.5079 116.109 35.3896 114.992 35.3896 113.615V93.5398C35.3896 92.1631 36.5079 91.0459 37.8857 91.0459H53.9955C55.3733 91.0459 56.4916 92.1631 56.4916 93.5398V113.615C56.4916 114.992 55.3733 116.109 53.9955 116.109ZM40.3818 111.121H51.4994V96.0336H40.3818V111.121Z" fill="#00FCD6"/>
<path d="M81.9066 116.109H65.7969C64.419 116.109 63.3008 114.992 63.3008 113.615V82.6862C63.3008 81.3096 64.419 80.1924 65.7969 80.1924H81.9066C83.2845 80.1924 84.4027 81.3096 84.4027 82.6862V113.615C84.4027 114.992 83.2845 116.109 81.9066 116.109ZM68.293 111.121H79.4105V85.1801H68.293V111.121Z" fill="#00FCD6"/>
<path d="M109.818 116.109H93.708C92.3302 116.109 91.2119 114.992 91.2119 113.615V67.4138C91.2119 66.0372 92.3302 64.9199 93.708 64.9199H109.818C111.196 64.9199 112.314 66.0372 112.314 67.4138V113.615C112.314 114.992 111.196 116.109 109.818 116.109ZM96.2041 111.121H107.322V69.9076H96.2041V111.121Z" fill="#00FCD6"/>
<path d="M137.729 116.109H121.619C120.241 116.109 119.123 114.992 119.123 113.615V39.8767C119.123 38.5001 120.241 37.3828 121.619 37.3828H137.729C139.107 37.3828 140.225 38.5001 140.225 39.8767V113.615C140.225 114.992 139.107 116.109 137.729 116.109ZM124.115 111.121H135.233V42.3705H124.115V111.121Z" fill="#00FCD6"/>
<path d="M9.97443 91.2054C8.86117 91.2054 7.84776 90.4572 7.55821 89.335C7.21874 87.9983 8.02248 86.6416 9.3554 86.2975C10.3638 86.0381 110.058 59.8177 127.281 1.78551C127.675 0.463761 129.053 -0.289385 130.386 0.104645C131.709 0.498675 132.463 1.88526 132.068 3.20701C114.036 63.9525 14.8118 90.0482 10.5984 91.1306C10.3888 91.1854 10.1841 91.2104 9.97443 91.2104V91.2054Z" fill="#00FCD6"/>
<path d="M136.906 18.3051C136.017 18.3051 135.163 17.8313 134.709 16.9983L128.668 5.8757L117.536 11.9108C116.328 12.5642 114.815 12.1203 114.151 10.9083C113.492 9.6963 113.947 8.18502 115.155 7.52664L128.479 0.29943C129.687 -0.358949 131.205 0.0899459 131.863 1.30196L139.097 14.6142C139.756 15.8262 139.302 17.3375 138.094 17.9959C137.714 18.2004 137.31 18.3001 136.906 18.3001V18.3051Z" fill="#00FCD6"/>
</g>
<defs>
<clipPath id="clip0_45_423">
<rect width="150" height="130" fill="white"/>
</clipPath>
</defs>
</svg>
