<svg width="106" height="126" viewBox="0 0 106 126" fill="none" xmlns="http://www.w3.org/2000/svg">
<g clip-path="url(#clip0_45_467)">
<path d="M72.0841 122.473V78.7084H78.8093L66.4599 55.7812L54.1152 78.7084H60.8405V122.473" stroke="#00FCD6" stroke-width="5" stroke-linecap="round" stroke-linejoin="round"/>
<path d="M46.8487 122.739V94.8197H53.574L41.2293 71.8926L28.8799 94.8197H35.6051V122.739" stroke="#00FCD6" stroke-width="5" stroke-linecap="round" stroke-linejoin="round"/>
<path d="M21.6143 124.09V110.599H28.3396L15.9949 87.667L3.64551 110.599H10.3755V124.09" stroke="#00FCD6" stroke-width="5" stroke-linecap="round" stroke-linejoin="round"/>
<path d="M97.3575 122.322V62.4281H104.083L91.7381 39.501L79.3887 62.4281H86.1187V122.322" stroke="#00FCD6" stroke-width="5" stroke-linecap="round" stroke-linejoin="round"/>
<path d="M83.9498 21.4526H98.0648C98.0648 10.6603 89.2797 1.91016 78.4443 1.91016V21.4526H83.9451H83.9498Z" stroke="#00FCD6" stroke-width="5" stroke-linecap="round" stroke-linejoin="round"/>
<path d="M15.6524 15.5479H13.2129C6.9765 15.5479 1.92188 20.5824 1.92188 26.794V50.2789C1.92188 56.4905 6.9765 61.525 13.2129 61.525H14.9215C15.5053 61.525 15.9799 61.9978 15.9799 62.5792V70.469C15.9799 71.405 17.119 71.8777 17.7834 71.2112L28.9036 61.8323C29.1029 61.6338 29.3687 61.525 29.6487 61.525H44.713C50.9494 61.525 56.004 56.4905 56.004 50.2789V26.794C56.004 20.5824 50.9494 15.5479 44.713 15.5479H26.4641" stroke="#00FCD6" stroke-width="5" stroke-linecap="round" stroke-linejoin="round"/>
<path d="M16.6543 29.4932H41.263" stroke="#00FCD6" stroke-width="5" stroke-linecap="round" stroke-linejoin="round"/>
<path d="M16.6543 38.541H41.263" stroke="#00FCD6" stroke-width="5" stroke-linecap="round" stroke-linejoin="round"/>
<path d="M16.6543 47.584H31.3578" stroke="#00FCD6" stroke-width="5" stroke-linecap="round" stroke-linejoin="round"/>
<path d="M78.4488 8.06445C71.0259 8.06445 65.0078 14.0586 65.0078 21.452C65.0078 28.8454 71.0259 34.8396 78.4488 34.8396C85.8718 34.8396 91.8899 28.8454 91.8899 21.452" stroke="#00FCD6" stroke-width="5" stroke-linecap="round" stroke-linejoin="round"/>
</g>
<defs>
<clipPath id="clip0_45_467">
<rect width="106" height="126" fill="white"/>
</clipPath>
</defs>
</svg>
