<svg width="34" height="41" viewBox="0 0 34 41" fill="none" xmlns="http://www.w3.org/2000/svg">
<path d="M16.7194 20.4C17.8414 20.4 18.8019 20.0005 19.6009 19.2015C20.3999 18.4025 20.7994 17.442 20.7994 16.32C20.7994 15.198 20.3999 14.2375 19.6009 13.4385C18.8019 12.6395 17.8414 12.24 16.7194 12.24C15.5974 12.24 14.6369 12.6395 13.8379 13.4385C13.0389 14.2375 12.6394 15.198 12.6394 16.32C12.6394 17.442 13.0389 18.4025 13.8379 19.2015C14.6369 20.0005 15.5974 20.4 16.7194 20.4ZM16.7194 35.394C20.8674 31.586 23.9444 28.1265 25.9504 25.0155C27.9564 21.9045 28.9594 19.142 28.9594 16.728C28.9594 13.022 27.7779 9.9875 25.4149 7.6245C23.0519 5.2615 20.1534 4.08 16.7194 4.08C13.2854 4.08 10.3869 5.2615 8.02391 7.6245C5.66091 9.9875 4.47941 13.022 4.47941 16.728C4.47941 19.142 5.48241 21.9045 7.48841 25.0155C9.49441 28.1265 12.5714 31.586 16.7194 35.394ZM16.7194 40.8C11.2454 36.142 7.15691 31.8155 4.45391 27.8205C1.75091 23.8255 0.399414 20.128 0.399414 16.728C0.399414 11.628 2.03991 7.565 5.32091 4.539C8.60191 1.513 12.4014 0 16.7194 0C21.0374 0 24.8369 1.513 28.1179 4.539C31.3989 7.565 33.0394 11.628 33.0394 16.728C33.0394 20.128 31.6879 23.8255 28.9849 27.8205C26.2819 31.8155 22.1934 36.142 16.7194 40.8Z" fill="#00FCD6"/>
</svg>
