<svg width="17" height="18" viewBox="0 0 17 18" fill="none" xmlns="http://www.w3.org/2000/svg">
<path fill-rule="evenodd" clip-rule="evenodd" d="M2.05034 1.13184C1.58575 0.667254 0.832502 0.667254 0.367913 1.13184C-0.0966761 1.59643 -0.0966764 2.34968 0.367913 2.81427L6.81723 9.26358L0.368069 15.7127C-0.0965199 16.1773 -0.0965196 16.9306 0.368069 17.3952C0.832659 17.8598 1.58591 17.8598 2.0505 17.3952L8.49965 10.946L14.9489 17.3953C15.4135 17.8599 16.1668 17.8599 16.6314 17.3953C17.096 16.9307 17.096 16.1775 16.6314 15.7129L10.1821 9.26358L16.6315 2.81414C17.0961 2.34955 17.0961 1.5963 16.6315 1.13171C16.1669 0.667124 15.4137 0.667124 14.9491 1.13171L8.49965 7.58116L2.05034 1.13184Z" fill="#00FCD6"/>
</svg>
