<svg width="36" height="33" viewBox="0 0 36 33" fill="none" xmlns="http://www.w3.org/2000/svg">
<path fill-rule="evenodd" clip-rule="evenodd" d="M35.982 32.9155H28.0296V21.3442C28.0296 18.3154 26.7857 16.2478 24.0503 16.2478C21.958 16.2478 20.7944 17.6431 20.2528 18.9878C20.0497 19.4704 20.0815 20.1428 20.0815 20.8152V32.9155H12.2031C12.2031 32.9155 12.3047 12.418 12.2031 10.5548H20.0815V14.0642C20.5469 12.5297 23.0644 10.3398 27.0819 10.3398C32.0661 10.3398 35.982 13.5562 35.982 20.4821V32.9154L35.982 32.9155ZM4.23538 7.75844H4.1846C1.64592 7.75844 0 6.0491 0 3.88239C0 1.67351 1.69457 0 4.28404 0C6.87138 0 8.46229 1.6693 8.51307 3.87606C8.51307 6.04277 6.87138 7.75843 4.23538 7.75843L4.23538 7.75844ZM0.908203 10.5566H7.92113V32.9174H0.908203V10.5566Z" fill="white"/>
</svg>
