<svg width="39" height="39" viewBox="0 0 39 39" fill="none" xmlns="http://www.w3.org/2000/svg">
<circle cx="19.5" cy="19.5" r="19.5" fill="#00FCD6" fill-opacity="0.2"/>
<circle cx="19.5007" cy="19.5004" r="12.1667" fill="#00FCD6"/>
<path d="M16.1156 17.9292C15.886 17.6996 15.886 17.3259 16.1156 17.0963C16.3452 16.8667 16.7189 16.8667 16.9485 17.0963C17.1781 17.3259 17.1781 17.6996 16.9485 17.9292C16.7189 18.1588 16.3452 18.1588 16.1156 17.9292Z" fill="#191919"/>
<path d="M17.2279 24.012C16.9983 23.7823 16.9983 23.4087 17.2279 23.1791C17.4575 22.9494 17.8312 22.9494 18.0608 23.1791C18.2904 23.4087 18.2904 23.7823 18.0608 24.012C17.8312 24.2416 17.4575 24.2416 17.2279 24.012Z" fill="#191919"/>
<path d="M25.0171 19.0205C25.0171 19.0205 25.4008 17.6954 25.5716 16.527C25.6836 15.7566 25.5404 15.2 24.8647 14.6601C24.1889 14.1201 22.8081 14.3984 22.1012 14.7983C21.3942 15.1982 16.251 17.7875 16.251 17.7875C16.251 17.7875 20.2576 14.3818 21.7174 13.5653C23.1772 12.7489 24.5727 12.8724 25.601 13.5801C26.6293 14.2896 27.013 15.6903 26.6917 17.2476C26.3685 18.803 26.0013 20.1447 26.0013 20.1447L25.0189 19.0205H25.0171Z" fill="#191919"/>
<path d="M18.9994 14.8922C18.9994 14.8922 17.6792 14.507 16.5151 14.3356C15.7475 14.2232 15.193 14.367 14.655 15.0452C14.117 15.7234 14.3942 17.1093 14.7927 17.8188C15.1911 18.5284 17.771 23.6905 17.771 23.6905C17.771 23.6905 14.3777 19.6691 13.5643 18.204C12.7508 16.7407 12.8738 15.3382 13.5789 14.3062C14.2859 13.2741 15.6832 12.8889 17.233 13.2133C18.7828 13.5376 20.1195 13.9062 20.1195 13.9062L18.9994 14.8922Z" fill="#191919"/>
<path d="M14.7852 20.9776C14.7852 20.9776 14.4014 22.3027 14.2307 23.4729C14.1186 24.2433 14.2619 24.7999 14.9376 25.3398C15.6133 25.8798 16.9942 25.6015 17.7011 25.2016C18.408 24.8017 23.5513 22.2124 23.5513 22.2124C23.5513 22.2124 19.5447 25.6181 18.0849 26.4346C16.6269 27.251 15.2296 27.1275 14.2013 26.4198C13.173 25.7103 12.7892 24.3096 13.1106 22.7523C13.4337 21.1969 13.801 19.8552 13.801 19.8552L14.7834 20.9794L14.7852 20.9776Z" fill="#191919"/>
<path d="M20.8027 25.1042C20.8027 25.1042 22.1229 25.4893 23.2871 25.6607C24.0546 25.7731 24.6092 25.6294 25.1472 24.9512C25.6852 24.273 25.4079 22.8871 25.0095 22.1775C24.611 21.468 22.0311 16.3059 22.0311 16.3059C22.0311 16.3059 25.4245 20.3272 26.2379 21.7924C27.0513 23.2557 26.9283 24.6582 26.2232 25.6902C25.5163 26.7223 24.1207 27.1074 22.5691 26.7849C21.0194 26.4606 19.6826 26.092 19.6826 26.092L20.8027 25.106V25.1042Z" fill="#191919"/>
<path d="M21.6751 16.8826C21.4455 16.6529 21.4455 16.2793 21.6751 16.0497C21.9048 15.82 22.2784 15.82 22.508 16.0497C22.7377 16.2793 22.7377 16.6529 22.508 16.8826C22.2784 17.1122 21.9048 17.1122 21.6751 16.8826Z" fill="#191919"/>
<path d="M22.8519 22.8347C22.6223 22.6051 22.6223 22.2314 22.8519 22.0018C23.0815 21.7722 23.4552 21.7722 23.6848 22.0018C23.9144 22.2314 23.9144 22.6051 23.6848 22.8347C23.4552 23.0643 23.0815 23.0643 22.8519 22.8347Z" fill="#191919"/>
<path d="M19.8867 20.9054C20.3964 20.9054 20.8096 20.4921 20.8096 19.9824C20.8096 19.4726 20.3964 19.0593 19.8867 19.0593C19.3771 19.0593 18.9639 19.4726 18.9639 19.9824C18.9639 20.4921 19.3771 20.9054 19.8867 20.9054Z" fill="#191919"/>
</svg>
