<svg width="132" height="109" viewBox="0 0 132 109" fill="none" xmlns="http://www.w3.org/2000/svg">
<path d="M87.1943 81.2512L100.669 75.1948C100.987 75.0458 101.353 75.0458 101.671 75.1948L115.129 81.2512" stroke="#00FCD6" stroke-width="3" stroke-linecap="round" stroke-linejoin="round"/>
<path d="M80.6634 101.571L72.0391 79.6974L97.5464 68.2232C99.847 67.1854 102.476 67.1854 104.777 68.2232L130.284 79.7134L120.944 103.38" stroke="#00FCD6" stroke-width="3" stroke-linecap="round" stroke-linejoin="round"/>
<path d="M74.1914 103.838C78.2995 103.141 79.2325 101.039 84.9043 101.039C91.6946 101.039 91.6946 104.056 98.4902 104.056C105.286 104.056 105.28 101.039 112.076 101.039C118.872 101.039 118.872 104.056 125.662 104.056" stroke="#00FCD6" stroke-width="3" stroke-linecap="round" stroke-linejoin="round"/>
<path d="M79.2119 69.7184L80.7809 57.4246C81.311 53.2362 84.9315 50.0962 89.2198 50.0962H113.121C117.409 50.0962 121.03 53.2362 121.565 57.4246L123.129 69.7184" stroke="#00FCD6" stroke-width="3" stroke-linecap="round" stroke-linejoin="round"/>
<path d="M33.704 38.0152L33.8683 41.3521C33.9213 42.4272 35.0292 43.1243 36.0151 42.7039C37.2184 42.193 38.1513 41.1978 38.5966 39.9631L45.037 21.9907L58.1724 13.071C61.1355 11.0965 63.4678 8.30778 64.8937 5.04007L64.9361 4.93895C65.5298 3.57652 64.5598 2.01717 63.0756 2.00121C59.3491 1.95863 55.7022 3.04432 52.6012 5.10926L41.8035 12.4749L27.2529 7.99379C24.3216 7.08904 21.1676 7.28596 18.3688 8.54727C17.6797 8.85595 17.5472 9.77666 18.1144 10.2769L29.8238 20.4686L16.8581 29.1168L9.52181 27.962C6.38905 27.467 3.31459 29.1328 2 32.028L7.19476 37.2063L13.9427 36.6634L11.6898 41.6821L14.372 44.3591L33.2958 29.8247L33.4442 32.8795L33.6987 38.0205L33.704 38.0152Z" stroke="#00FCD6" stroke-width="3" stroke-linecap="round" stroke-linejoin="round"/>
<path d="M98.5906 41.118C92.7863 29.053 80.6528 20.6283 66.5156 20.1919" stroke="#00FCD6" stroke-width="3" stroke-linecap="round" stroke-linejoin="round"/>
<path d="M28.5731 54.6997C28.5201 55.5246 28.4883 56.3549 28.4883 57.1904C28.4883 77.6376 45.0002 94.2103 65.3605 94.2103" stroke="#00FCD6" stroke-width="3" stroke-linecap="round" stroke-linejoin="round"/>
<path d="M112.321 39.2127C105.97 22.2143 90.7994 9.80334 72.7715 7.11572" stroke="#00FCD6" stroke-width="3" stroke-linecap="round" stroke-linejoin="round"/>
<path d="M15.2792 54.3857C15.1785 56.4666 15.205 58.5742 15.364 60.6976C17.4419 88.4253 41.5128 109.208 69.1298 107.121C70.8579 106.994 72.5541 106.776 74.2239 106.478" stroke="#00FCD6" stroke-width="3" stroke-linecap="round" stroke-linejoin="round"/>
<path d="M96 39.1459C93.4537 39.8331 90.7917 40.5151 88.314 39.4375C85.8363 38.3598 83.6439 34.9187 84.0484 31.2329C84.1821 30.0147 84.5577 28.9631 85.0597 28" stroke="#00FCD6" stroke-width="3" stroke-linecap="round" stroke-linejoin="round"/>
<path d="M29.6738 60.3105C31.952 60.1419 34.2217 60.7446 36.3936 61.3431C38.41 61.8984 40.642 62.6255 41.456 64.394C42.9362 67.6104 38.6362 71.6038 40.1318 74.8155C41.0938 76.8781 43.9179 77.4442 45.8462 78.7987C48.9474 80.9799 49.3952 85.6932 46.7825 88.6349" stroke="#00FCD6" stroke-width="3" stroke-linecap="round" stroke-linejoin="round"/>
<path d="M78.6086 30.6254C75.7004 31.1212 73.6729 29.3107 72.6377 26.7383C72.0131 25.1786 71.9296 23.1755 70.4108 22.3441C69.9866 22.1109 69.4679 21.985 69.0001 21.8119" stroke="#00FCD6" stroke-width="3" stroke-linecap="round" stroke-linejoin="round"/>
<path d="M56.1199 47.0978C55.7426 46.7205 55.7426 46.1067 56.1199 45.7294C56.4971 45.3522 57.111 45.3522 57.4882 45.7294C57.8654 46.1067 57.8654 46.7205 57.4882 47.0978C57.111 47.475 56.4971 47.475 56.1199 47.0978Z" fill="white"/>
<path d="M57.945 57.0907C57.5678 56.7135 57.5678 56.0996 57.945 55.7224C58.3223 55.3451 58.9361 55.3451 59.3134 55.7224C59.6906 56.0996 59.6906 56.7135 59.3134 57.0907C58.9361 57.468 58.3223 57.468 57.945 57.0907Z" fill="white"/>
<path d="M70.7422 48.8908C70.7422 48.8908 71.3727 46.7139 71.6533 44.7943C71.8373 43.5287 71.602 42.6144 70.4919 41.7272C69.3817 40.8401 67.1132 41.2973 65.9518 41.9543C64.7904 42.6113 56.3408 46.8652 56.3408 46.8652C56.3408 46.8652 62.9231 41.2701 65.3213 39.9288C67.7196 38.5875 70.0122 38.7904 71.7015 39.953C73.3908 41.1187 74.0213 43.4197 73.4934 45.9781C72.9625 48.5335 72.3592 50.7377 72.3592 50.7377L70.7453 48.8908H70.7422Z" fill="white"/>
<path d="M60.8556 42.1087C60.8556 42.1087 58.6866 41.4759 56.7741 41.1943C55.5131 41.0096 54.6021 41.2458 53.7182 42.36C52.8344 43.4742 53.2899 45.751 53.9445 46.9167C54.5991 48.0823 58.8375 56.5629 58.8375 56.5629C58.8375 56.5629 53.2627 49.9565 51.9264 47.5495C50.59 45.1455 50.7921 42.8414 51.9505 41.1459C53.1119 39.4504 55.4076 38.8176 57.9536 39.3505C60.4996 39.8833 62.6957 40.4889 62.6957 40.4889L60.8556 42.1087Z" fill="white"/>
<path d="M53.9328 52.1066C53.9328 52.1066 53.3023 54.2835 53.0218 56.2061C52.8378 57.4717 53.0731 58.3861 54.1832 59.2732C55.2933 60.1603 57.5618 59.7031 58.7232 59.0461C59.8846 58.3891 68.3342 54.1352 68.3342 54.1352C68.3342 54.1352 61.7519 59.7304 59.3537 61.0716C56.9585 62.4129 54.6628 62.2101 52.9735 61.0474C51.2842 59.8818 50.6537 57.5807 51.1816 55.0223C51.7126 52.4669 52.3159 50.2627 52.3159 50.2627L53.9298 52.1096L53.9328 52.1066Z" fill="white"/>
<path d="M63.8186 58.8849C63.8186 58.8849 65.9875 59.5177 67.9001 59.7993C69.161 59.984 70.0721 59.7478 70.9559 58.6336C71.8398 57.5194 71.3843 55.2426 70.7297 54.077C70.0751 52.9113 65.8367 44.4307 65.8367 44.4307C65.8367 44.4307 71.4114 51.0371 72.7478 53.4442C74.0842 55.8482 73.8821 58.1522 72.7237 59.8478C71.5623 61.5433 69.2696 62.1761 66.7206 61.6462C64.1745 61.1133 61.9784 60.5078 61.9784 60.5078L63.8186 58.888V58.8849Z" fill="white"/>
<path d="M65.2537 45.3785C64.8765 45.0012 64.8765 44.3874 65.2537 44.0101C65.6309 43.6329 66.2448 43.6329 66.622 44.0101C66.9993 44.3874 66.9993 45.0012 66.622 45.3785C66.2448 45.7557 65.6309 45.7557 65.2537 45.3785Z" fill="white"/>
<path d="M67.1873 55.1573C66.8101 54.7801 66.8101 54.1662 67.1873 53.789C67.5646 53.4117 68.1784 53.4117 68.5557 53.789C68.9329 54.1662 68.9329 54.7801 68.5557 55.1573C68.1784 55.5345 67.5646 55.5345 67.1873 55.1573Z" fill="white"/>
<path d="M62.316 51.9879C63.1533 51.9879 63.8321 51.309 63.8321 50.4715C63.8321 49.634 63.1533 48.9551 62.316 48.9551C61.4786 48.9551 60.7998 49.634 60.7998 50.4715C60.7998 51.309 61.4786 51.9879 62.316 51.9879Z" fill="white"/>
</svg>
