<svg width="98" height="100" viewBox="0 0 98 100" fill="none" xmlns="http://www.w3.org/2000/svg">
<g clip-path="url(#clip0_2_31)">
<path d="M65.3549 21.8861C51.669 13.2878 33.7712 13.097 20.0099 21.6549C5.91791 30.4151 -1.82718 46.9411 0.371614 63.3167C2.67483 80.4614 15.6877 94.8941 32.6109 98.8782C48.5594 102.637 65.6972 96.7907 75.8674 83.9481C87.3254 69.4749 87.9636 48.7683 77.515 33.5723C76.6216 32.2713 74.475 33.5029 75.38 34.8155C84.123 47.5309 84.9352 64.4847 77.0799 77.8362C69.242 91.1587 54.0883 98.7972 38.6909 97.3863C22.3363 95.8887 8.21533 84.0175 3.88736 68.2433C-0.202741 53.3479 4.83302 37.1516 16.6276 27.1481C29.9016 15.8841 49.447 14.8028 64.1076 24.0141C65.4594 24.8641 66.7009 22.7304 65.3549 21.8861Z" fill="#00FCD6"/>
<path d="M54.1979 33.4394C45.3099 29.3339 34.6524 30.0683 26.6811 35.8911C18.6285 41.7718 14.434 51.6596 15.838 61.5127C17.3464 72.1118 25.3815 81.0397 35.8011 83.6765C45.2867 86.0762 55.6309 83.0925 62.2795 75.9166C70.0188 67.5669 71.5098 55.1868 66.358 45.1198C65.6328 43.7031 63.4978 44.9521 64.223 46.363C68.2841 54.2848 67.791 63.9124 62.8016 71.3138C57.7601 78.7962 48.7502 82.8612 39.7926 81.9013C30.104 80.8663 21.7382 73.8465 19.0172 64.5311C16.4993 55.9212 18.9708 46.4439 25.4047 40.1701C32.6567 33.104 43.7841 31.3231 52.9506 35.5615C54.3835 36.2265 55.6425 34.0986 54.1979 33.4336V33.4394Z" fill="#00FCD6"/>
<path d="M34.0905 53.1263C33.5845 52.6239 33.5845 51.8064 34.0905 51.304C34.5965 50.8016 35.4199 50.8016 35.9259 51.304C36.4319 51.8064 36.4319 52.6239 35.9259 53.1263C35.4199 53.6287 34.5965 53.6287 34.0905 53.1263Z" fill="white"/>
<path d="M36.5389 66.4344C36.0329 65.932 36.0329 65.1145 36.5389 64.6121C37.0449 64.1097 37.8683 64.1097 38.3743 64.6121C38.8803 65.1145 38.8803 65.932 38.3743 66.4344C37.8683 66.9368 37.0449 66.9368 36.5389 66.4344Z" fill="white"/>
<path d="M53.7032 55.5142C53.7032 55.5142 54.5489 52.6152 54.9252 50.0588C55.1721 48.3734 54.8564 47.1557 53.3674 45.9743C51.8783 44.7928 48.8354 45.4017 47.2776 46.2767C45.7197 47.1516 34.3857 52.8168 34.3857 52.8168C34.3857 52.8168 43.215 45.3654 46.4319 43.5792C49.6487 41.793 52.724 42.0631 54.99 43.6114C57.256 45.1638 58.1017 48.2282 57.3935 51.6354C56.6814 55.0385 55.8721 57.9738 55.8721 57.9738L53.7073 55.5142H53.7032Z" fill="white"/>
<path d="M40.4421 46.4822C40.4421 46.4822 37.5328 45.6395 34.9674 45.2645C33.276 45.0186 32.054 45.3331 30.8684 46.8169C29.6828 48.3007 30.2938 51.3329 31.1719 52.8852C32.0499 54.4376 37.7351 65.7316 37.7351 65.7316C37.7351 65.7316 30.2574 56.9335 28.4648 53.7279C26.6723 50.5264 26.9434 47.458 28.4972 45.2C30.055 42.942 33.1344 42.0993 36.5495 42.809C39.9647 43.5186 42.9104 44.325 42.9104 44.325L40.4421 46.4822Z" fill="white"/>
<path d="M31.1566 59.7968C31.1566 59.7968 30.3109 62.6959 29.9346 65.2563C29.6878 66.9418 30.0034 68.1595 31.4925 69.3409C32.9815 70.5223 36.0244 69.9134 37.5823 69.0385C39.1401 68.1635 50.4741 62.4984 50.4741 62.4984C50.4741 62.4984 41.6449 69.9497 38.428 71.736C35.2151 73.5222 32.1358 73.252 29.8698 71.7037C27.6039 70.1513 26.7582 67.0869 27.4663 63.6798C28.1785 60.2767 28.9877 57.3413 28.9877 57.3413L31.1526 59.8009L31.1566 59.7968Z" fill="white"/>
<path d="M44.4165 68.824C44.4165 68.824 47.3259 69.6667 49.8913 70.0417C51.5827 70.2877 52.8047 69.9732 53.9903 68.4894C55.1759 67.0055 54.5649 63.9734 53.6868 62.421C52.8088 60.8687 47.1236 49.5747 47.1236 49.5747C47.1236 49.5747 54.6013 58.3728 56.3939 61.5783C58.1864 64.7798 57.9153 67.8483 56.3615 70.1062C54.8036 72.3642 51.7284 73.2069 48.3092 72.5013C44.894 71.7917 41.9482 70.9853 41.9482 70.9853L44.4165 68.8281V68.824Z" fill="white"/>
<path d="M46.3423 50.8367C45.8362 50.3343 45.8362 49.5168 46.3423 49.0144C46.8483 48.512 47.6717 48.512 48.1777 49.0144C48.6837 49.5168 48.6837 50.3343 48.1777 50.8367C47.6717 51.339 46.8483 51.339 46.3423 50.8367Z" fill="white"/>
<path d="M48.936 63.8592C48.43 63.3569 48.43 62.5394 48.936 62.037C49.442 61.5346 50.2654 61.5346 50.7714 62.037C51.2774 62.5394 51.2774 63.3569 50.7714 63.8592C50.2654 64.3616 49.442 64.3616 48.936 63.8592Z" fill="white"/>
<path d="M42.4019 59.639C43.5251 59.639 44.4356 58.7349 44.4356 57.6196C44.4356 56.5042 43.5251 55.6001 42.4019 55.6001C41.2787 55.6001 40.3682 56.5042 40.3682 57.6196C40.3682 58.7349 41.2787 59.639 42.4019 59.639Z" fill="white"/>
<path d="M43.3725 58.5232C53.4266 47.849 63.4807 37.1805 73.5348 26.5063C74.962 24.9913 76.3892 23.4764 77.8222 21.9556C78.9129 20.7991 77.1666 19.0529 76.0701 20.2093C66.016 30.8835 55.9619 41.552 45.9078 52.2262C44.4806 53.7412 43.0534 55.2562 41.6204 56.7769C40.5297 57.9334 42.276 59.6797 43.3725 58.5232Z" fill="#00FCD6"/>
<path d="M95.9003 13.2531C90.8878 18.4457 85.8694 23.6382 80.8568 28.8308C81.2572 28.7267 81.6575 28.6168 82.0636 28.5127C78.9945 27.2233 75.9197 25.9338 72.8507 24.6443C73.0944 24.8352 73.3438 25.0202 73.5875 25.211C72.1777 22.1984 70.7679 19.1916 69.3582 16.179C69.2943 16.6763 69.2305 17.1735 69.1667 17.6708C74.1793 12.4783 79.1976 7.28573 84.2102 2.09318C83.5604 2.01222 82.9164 1.92549 82.2666 1.84453C83.0208 3.45203 83.775 5.05952 84.5234 6.66702C84.9934 7.67314 85.4691 8.67927 85.939 9.6854C86.1769 10.2 86.3625 10.8477 86.8151 11.2177C87.2038 11.5415 87.8825 11.7092 88.3409 11.9C89.4026 12.3453 90.4642 12.7905 91.5317 13.2415C93.1736 13.9296 94.8154 14.6177 96.4515 15.3058C97.9193 15.9188 98.5574 13.5364 97.107 12.9293C94.038 11.6398 90.9632 10.3504 87.8941 9.06091C88.1378 9.25173 88.3873 9.43676 88.631 9.62758C87.2212 6.61497 85.8114 3.60815 84.4016 0.595546C84.0651 -0.127248 82.9744 -0.185071 82.4581 0.346905C77.4455 5.53946 72.4272 10.732 67.4146 15.9246C67.0027 16.3525 66.9795 16.9076 67.2232 17.4164C67.9774 19.0239 68.7316 20.6314 69.48 22.2389L70.8956 25.2573C71.1334 25.7719 71.3191 26.4195 71.7716 26.7896C72.1603 27.1134 72.8391 27.2811 73.2974 27.4719C74.3591 27.9172 75.4208 28.3624 76.4883 28.8134C78.1301 29.5015 79.772 30.1896 81.408 30.8777C81.7967 31.0396 82.3362 30.843 82.6147 30.5597C87.6273 25.3671 92.6456 20.1746 97.6582 14.982C98.7605 13.8371 97.0142 12.0909 95.9061 13.2358L95.9003 13.2531Z" fill="#00FCD6"/>
</g>
<defs>
<clipPath id="clip0_2_31">
<rect width="98" height="100" fill="white"/>
</clipPath>
</defs>
</svg>
