<svg width="40" height="40" viewBox="0 0 40 40" fill="none" xmlns="http://www.w3.org/2000/svg">
<rect x="0.128647" y="0.128647" width="39.7427" height="39.7427" rx="3.0452" fill="#0F0F0F" stroke="#272727" stroke-width="0.257294"/>
<path fill-rule="evenodd" clip-rule="evenodd" d="M14.0503 12.1318C13.5858 11.6673 12.8325 11.6673 12.3679 12.1318C11.9033 12.5964 11.9033 13.3497 12.3679 13.8143L18.8172 20.2636L12.3681 26.7127C11.9035 27.1773 11.9035 27.9306 12.3681 28.3952C12.8327 28.8598 13.5859 28.8598 14.0505 28.3952L20.4997 21.946L26.9489 28.3953C27.4135 28.8599 28.1668 28.8599 28.6314 28.3953C29.096 27.9307 29.096 27.1775 28.6314 26.7129L22.1821 20.2636L28.6315 13.8141C29.0961 13.3496 29.0961 12.5963 28.6315 12.1317C28.1669 11.6671 27.4137 11.6671 26.9491 12.1317L20.4997 18.5812L14.0503 12.1318Z" fill="#00FCD6"/>
</svg>
