<svg width="103" height="103" viewBox="0 0 103 103" fill="none" xmlns="http://www.w3.org/2000/svg">
<path d="M68.2259 20.6115C68.1041 27.6751 63.9078 34.1425 57.3332 36.6267C50.7018 39.1358 43.1288 37.049 38.5916 31.534C34.0949 26.0603 33.5105 18.0279 37.0737 11.9C40.6208 5.80528 47.7392 2.46809 54.5816 3.81787C62.5036 5.38296 68.0798 12.4548 68.2178 20.6115C68.2584 22.8805 71.7161 22.8887 71.6836 20.6115C71.5375 11.9166 66.3022 4.18223 58.2504 1.18455C50.4096 -1.73032 41.2376 0.878161 35.9455 7.42834C30.5154 14.1441 29.7362 23.9239 34.241 31.3766C38.6159 38.6224 47.0005 42.3654 55.1904 40.8748C64.76 39.1275 71.5213 30.3747 71.6836 20.6115C71.7242 18.3343 68.2584 18.3343 68.2178 20.6115H68.2259Z" fill="#00FCD6"/>
<path d="M47.0639 17.3835C46.7531 17.0727 46.7531 16.5668 47.0639 16.256C47.3748 15.9452 47.8806 15.9452 48.1914 16.256C48.5022 16.5668 48.5022 17.0727 48.1914 17.3835C47.8806 17.6943 47.3748 17.6943 47.0639 17.3835Z" fill="white"/>
<path d="M48.5678 25.6175C48.257 25.3067 48.257 24.8009 48.5678 24.4901C48.8787 24.1792 49.3845 24.1792 49.6953 24.4901C50.0061 24.8009 50.0061 25.3067 49.6953 25.6175C49.3845 25.9284 48.8787 25.9284 48.5678 25.6175Z" fill="white"/>
<path d="M59.1123 18.861C59.1123 18.861 59.6318 17.0673 59.863 15.4857C60.0146 14.4429 59.8207 13.6895 58.906 12.9585C57.9913 12.2276 56.1221 12.6043 55.1652 13.1456C54.2082 13.687 47.246 17.1921 47.246 17.1921C47.246 17.1921 52.6696 12.5818 54.6457 11.4766C56.6217 10.3715 58.5108 10.5386 59.9027 11.4966C61.2947 12.4571 61.8142 14.3531 61.3792 16.4611C60.9417 18.5667 60.4446 20.3828 60.4446 20.3828L59.1148 18.861H59.1123Z" fill="white"/>
<path d="M50.9664 13.2731C50.9664 13.2731 49.1792 12.7517 47.6034 12.5196C46.5644 12.3675 45.8137 12.5621 45.0854 13.4801C44.3572 14.3982 44.7325 16.2742 45.2719 17.2347C45.8112 18.1952 49.3035 25.1829 49.3035 25.1829C49.3035 25.1829 44.7101 19.7394 43.609 17.7561C42.5079 15.7753 42.6744 13.8768 43.6289 12.4797C44.5858 11.0827 46.4774 10.5613 48.5752 11.0004C50.6731 11.4394 52.4826 11.9384 52.4826 11.9384L50.9664 13.2731Z" fill="white"/>
<path d="M45.2619 21.5107C45.2619 21.5107 44.7424 23.3045 44.5112 24.8886C44.3596 25.9314 44.5535 26.6848 45.4682 27.4158C46.3829 28.1467 48.2521 27.77 49.209 27.2287C50.166 26.6873 57.1282 23.1822 57.1282 23.1822C57.1282 23.1822 51.7046 27.7925 49.7285 28.8976C47.7549 30.0028 45.8634 29.8357 44.4715 28.8777C43.0795 27.9172 42.56 26.0212 42.995 23.9132C43.4325 21.8076 43.9296 19.9915 43.9296 19.9915L45.2594 21.5132L45.2619 21.5107Z" fill="white"/>
<path d="M53.4075 27.0959C53.4075 27.0959 55.1947 27.6173 56.7705 27.8493C57.8095 28.0015 58.5602 27.8069 59.2885 26.8888C60.0167 25.9708 59.6414 24.0947 59.102 23.1343C58.5627 22.1738 55.0704 15.1861 55.0704 15.1861C55.0704 15.1861 59.6638 20.6295 60.7649 22.6129C61.866 24.5937 61.6995 26.4922 60.745 27.8892C59.7881 29.2863 57.899 29.8077 55.7987 29.3711C53.7008 28.932 51.8913 28.4331 51.8913 28.4331L53.4075 27.0984V27.0959Z" fill="white"/>
<path d="M54.5904 15.9667C54.2795 15.6559 54.2795 15.1501 54.5904 14.8392C54.9012 14.5284 55.407 14.5284 55.7178 14.8392C56.0287 15.1501 56.0287 15.6559 55.7178 15.9667C55.407 16.2775 54.9012 16.2775 54.5904 15.9667Z" fill="white"/>
<path d="M56.1831 24.0243C55.8723 23.7135 55.8723 23.2077 56.1831 22.8968C56.4939 22.586 56.9997 22.586 57.3106 22.8968C57.6214 23.2077 57.6214 23.7135 57.3106 24.0243C56.9997 24.3351 56.4939 24.3351 56.1831 24.0243Z" fill="white"/>
<path d="M52.17 21.4127C52.8599 21.4127 53.4192 20.8533 53.4192 20.1632C53.4192 19.4731 52.8599 18.9137 52.17 18.9137C51.48 18.9137 50.9207 19.4731 50.9207 20.1632C50.9207 20.8533 51.48 21.4127 52.17 21.4127Z" fill="white"/>
<path d="M21.853 86.1171C19.2812 84.5097 21.6009 81.7 22.6598 79.9913C23.7566 78.2257 25.3261 74.6186 27.9924 76.3462C30.4885 77.9599 28.3454 80.5988 27.2801 82.3201C26.0825 84.2503 24.6958 87.6612 21.8467 86.1171C20.3213 85.2944 18.9661 87.6233 20.4915 88.4459C23.6683 90.1672 26.5048 88.6801 28.2572 85.8513C29.4926 83.8579 31.6042 81.4468 31.8248 79.0168C32.1778 75.1628 28.295 72.2138 24.6895 73.5997C22.2312 74.549 20.9831 77.5739 19.6784 79.6749C18.9409 80.8646 18.1467 81.9911 18.0143 83.4339C17.8315 85.4273 18.7896 87.3765 20.4915 88.4396C21.9665 89.3572 23.3154 87.0284 21.8467 86.1108L21.853 86.1171Z" fill="#00FCD6"/>
<path d="M28.515 90.2747C25.4894 88.3825 29.511 83.8451 30.6897 81.9403C31.8747 80.0292 34.2826 74.0742 37.3901 76.0866C40.3968 78.0294 36.4005 82.5099 35.2154 84.421C33.8854 86.5663 31.7864 92.0466 28.515 90.2747C26.9896 89.452 25.6344 91.7808 27.1598 92.6035C29.4227 93.8249 32.1709 93.5401 33.9044 91.534C34.6481 90.6734 35.1902 89.5849 35.7827 88.6294C37.4153 85.9968 39.3819 83.3895 40.7245 80.5924C43.0757 75.7133 37.1506 70.7772 32.8328 74.0616C31.7991 74.8463 31.1939 76.0233 30.5258 77.1055C29.492 78.7762 28.452 80.4468 27.4183 82.1238C26.6745 83.3262 25.8046 84.5096 25.1869 85.7816C24.0145 88.2053 24.8843 91.1923 27.1598 92.6162C28.6348 93.5338 29.9837 91.205 28.515 90.2874V90.2747Z" fill="#00FCD6"/>
<path d="M35.1719 94.4319C32.3922 92.6916 35.3799 89.2743 36.4893 87.4771C37.6302 85.6355 39.4645 81.1424 42.3388 83.003C45.0618 84.7686 42.2379 87.996 41.1159 89.7996C39.8616 91.8246 38.2227 96.0772 35.1719 94.4256C33.6465 93.6029 32.2913 95.9317 33.8167 96.7544C35.6699 97.7606 37.8319 97.7986 39.6031 96.5582C40.6432 95.8241 41.242 94.7103 41.8976 93.6535C42.7485 92.2803 43.5994 90.907 44.4504 89.5401C45.0933 88.5023 45.8434 87.4771 46.1082 86.262C47.0095 82.0854 42.5594 78.5731 38.7333 80.3894C36.2372 81.5728 34.8126 85.0913 33.4322 87.3189C32.7325 88.4453 31.8186 89.6224 31.4845 90.926C30.9172 93.1536 31.8816 95.5393 33.8293 96.7544C35.3043 97.672 36.6532 95.3432 35.1845 94.4256L35.1719 94.4319Z" fill="#00FCD6"/>
<path d="M41.8287 98.5901C39.4523 97.103 41.2803 94.6476 42.2951 93.0149C43.3478 91.3126 44.8038 88.3129 47.2873 89.9267C49.588 91.4138 47.9303 93.7173 46.9154 95.35C45.7682 97.1979 44.5139 100.046 41.8287 98.5901C40.3033 97.7674 38.948 100.096 40.4734 100.919C42.4275 101.976 44.766 101.957 46.5309 100.514C47.6781 99.5773 48.3778 98.1028 49.1468 96.8625C49.9347 95.5905 50.8865 94.3502 51.0945 92.8314C51.3782 90.7747 50.4264 88.68 48.6488 87.5915C46.7705 86.4461 44.2996 86.598 42.5914 87.9965C41.4505 88.9331 40.7445 90.4139 39.9755 91.648C39.1876 92.92 38.2358 94.1603 38.0278 95.6791C37.7441 97.7485 38.7022 99.8115 40.4734 100.919C41.9484 101.837 43.2973 99.5077 41.8287 98.5901Z" fill="#00FCD6"/>
<path d="M75.3244 51.0328C72.0403 52.3997 68.9895 52.3681 65.9639 50.3241C63.575 48.7103 61.9424 47.1979 58.9042 47.1283C57.3725 47.0966 55.8282 47.1283 54.2965 47.1283C52.8657 47.1283 51.3025 46.9764 49.8968 47.3054C47.3188 47.913 45.1693 50.2355 43.2027 51.8808C40.5868 54.0704 37.7062 56.0891 35.4433 58.6648C34.3403 59.9178 32.8968 61.8795 34.0755 63.5439C35.2542 65.2019 37.9584 65.7082 39.8494 65.6196C43.5935 65.4424 47.2873 63.5123 50.2057 61.2277C49.6636 61.2973 49.1215 61.367 48.5794 61.4366C54.5739 65.1829 60.5746 68.9356 66.5691 72.682C70.2628 74.9918 73.9565 77.3017 77.6503 79.6115C78.5832 80.1937 79.5476 80.7506 80.4615 81.3644C82.3525 82.6427 82.5479 85.7436 79.869 86.2689C78.0411 86.6296 75.5765 84.4083 74.1456 83.5097C72.4437 82.4466 70.7482 81.3834 69.0463 80.3266C67.5713 79.409 66.2224 81.7378 67.691 82.6554C69.3425 83.6869 70.9877 84.7121 72.6391 85.7436C74.2402 86.7435 76.0114 88.2433 77.852 88.7939C81.0604 89.7558 84.5083 87.4016 84.6532 84.0033C84.7478 81.7884 83.5249 80.1304 81.7537 78.985C74.1015 74.0489 66.298 69.3216 58.5765 64.4995C55.7022 62.7022 52.8216 60.905 49.9472 59.1014C49.3926 58.7534 48.7874 58.9432 48.321 59.3103C48.819 58.9179 48.0689 59.4875 47.9113 59.6014C47.4196 59.9494 46.9091 60.2722 46.3922 60.5822C44.8353 61.5062 43.1712 62.2909 41.4 62.6959C40.4923 62.8984 39.5342 63.0123 38.6076 62.8921C38.1475 62.8288 36.4141 62.3858 36.3573 62.101C36.2376 61.4556 37.7062 60.1899 38.097 59.7912C39.1623 58.7154 40.3221 57.7282 41.4945 56.7663C43.6187 55.0133 45.7177 53.2161 47.8798 51.5074C49.2791 50.4 50.5272 49.8304 52.2984 49.8304H56.6603C57.8516 49.8304 59.2572 49.6786 60.4233 49.9823C61.9803 50.3873 63.0833 51.5834 64.3692 52.4757C65.5164 53.273 66.7519 53.9438 68.0882 54.3362C70.8049 55.1399 73.4901 54.7096 76.0618 53.6401C77.6377 52.9819 76.9443 50.3683 75.3496 51.0391L75.3244 51.0328Z" fill="#00FCD6"/>
<path d="M66.7827 82.0984C68.0244 82.8768 69.2851 83.6298 70.5142 84.4272C71.0752 84.7942 71.6173 85.079 71.9766 85.6992C72.8212 87.1674 71.9955 89.1038 70.3503 89.5025C68.7304 89.8949 66.9529 88.2938 65.6544 87.4774C64.5954 86.8193 63.5365 86.1548 62.4775 85.4903C61.0025 84.5727 59.6536 86.9016 61.1223 87.8192C64.5387 89.9581 69.5372 94.5145 73.3759 90.8125C75.7018 88.5659 75.4497 84.712 72.8969 82.7628C71.4156 81.6364 69.72 80.7441 68.1442 79.7569C66.6692 78.8393 65.3203 81.1681 66.789 82.0857L66.7827 82.0984Z" fill="#00FCD6"/>
<path d="M61.1161 87.8325C62.1058 88.4526 63.1395 89.0285 64.0913 89.693C66.0957 91.0915 65.6545 94.5974 62.8432 94.5468C61.5069 94.5278 60.1202 93.3001 59.0297 92.623C58.286 92.161 57.5422 91.6927 56.8047 91.2308C55.3297 90.3132 53.9808 92.642 55.4495 93.5596C58.5633 95.5024 62.4777 98.983 66.0958 96.1036C68.3145 94.338 68.762 91.0472 67.0412 88.7754C65.9382 87.3199 63.9904 86.4466 62.4713 85.4973C60.9964 84.5797 59.6475 86.9085 61.1161 87.8261V87.8325Z" fill="#00FCD6"/>
<path d="M55.4498 93.5656C56.0738 93.958 56.7671 94.306 57.3533 94.7554C59.1561 96.1476 58.7716 99.1852 56.2629 99.4826C54.561 99.6851 52.5124 97.8246 51.1383 96.9639C49.6633 96.04 48.3144 98.3752 49.7831 99.2928C52.7204 101.128 56.1053 103.767 59.3956 100.919C61.2236 99.3434 61.7341 96.6285 60.6185 94.4832C59.799 92.9138 58.2421 92.1291 56.805 91.2305C55.33 90.3129 53.9811 92.6417 55.4498 93.5593V93.5656Z" fill="#00FCD6"/>
<path d="M26.7319 52.9252C29.2344 53.8112 31.8313 54.1529 34.4094 53.3366C35.7583 52.9062 36.9685 52.2165 38.1031 51.3685C39.4142 50.3939 40.8892 48.217 42.6667 49.2548C44.1669 50.1281 45.5221 47.7993 44.0219 46.926C41.0972 45.2237 39.2125 47.0779 36.9685 48.8625C34.0186 51.2103 30.9173 51.552 27.4379 50.3243C25.7991 49.7484 25.0994 52.3557 26.7256 52.9252H26.7319Z" fill="#00FCD6"/>
<path d="M85.9638 70.6632C83.1399 71.6187 80.9464 73.9855 80.4169 76.9662C80.1144 78.6622 82.705 79.3962 83.0076 77.6813C83.3732 75.6435 84.6969 73.9349 86.6761 73.2641C88.3086 72.7135 87.609 70.1063 85.9638 70.6632Z" fill="#00FCD6"/>
<path d="M21.242 73.7135C20.5487 71.6505 18.8342 70.0115 16.6658 69.6191C15.9535 69.4925 15.2161 69.8153 15.0144 70.562C14.8379 71.2138 15.235 72.0935 15.9535 72.22C17.2142 72.4479 18.2669 73.2895 18.6514 74.4286C19.1997 76.0677 21.7967 75.3652 21.242 73.7135Z" fill="#00FCD6"/>
<path d="M78.7462 49.1912C81.9735 46.8814 85.2008 44.5779 88.4218 42.2681C87.8103 42.1099 87.1926 41.9453 86.5812 41.7808C91.2204 50.9315 95.866 60.0823 100.505 69.233C100.669 68.6192 100.827 67.999 100.991 67.3851C97.5048 68.9925 94.0191 70.6063 90.5334 72.2136C91.1448 72.3782 91.7625 72.5364 92.3739 72.7009C87.9931 64.2463 83.606 55.7917 79.2252 47.3434C78.4247 45.7993 76.1051 47.1662 76.9056 48.704C81.2864 57.1586 85.6735 65.6132 90.0543 74.0615C90.4136 74.7513 91.2582 74.8399 91.8949 74.5488C95.3806 72.9414 98.8663 71.3277 102.352 69.7203C103.039 69.4039 103.14 68.4736 102.837 67.8724C98.1982 58.7217 93.5527 49.5709 88.9134 40.4202C88.6046 39.8127 87.6402 39.5279 87.0729 39.9329C83.8456 42.2427 80.6183 44.5463 77.3973 46.8561C75.998 47.856 77.3406 50.1974 78.7525 49.1849L78.7462 49.1912Z" fill="#00FCD6"/>
<path d="M25.6032 46.3942C22.3759 44.0844 19.1487 41.7809 15.9277 39.471C15.3604 39.066 14.396 39.3508 14.0871 39.9583C9.44787 49.1091 4.80233 58.2598 0.163101 67.4105C-0.139457 68.0117 -0.0449079 68.9357 0.648456 69.2584C4.13418 70.8658 7.61991 72.4795 11.1056 74.0869C11.7423 74.378 12.5869 74.3021 12.9462 73.5996C17.327 65.145 21.7141 56.6904 26.0949 48.2421C26.8954 46.7043 24.5758 45.3374 23.7753 46.8815C19.3945 55.3361 15.0074 63.7907 10.6266 72.239C11.238 72.0745 11.8557 71.9163 12.4672 71.7518C8.98142 70.1444 5.4957 68.5307 2.00997 66.9233C2.17386 67.5371 2.33144 68.1573 2.49532 68.7711C7.13456 59.6204 11.7801 50.4697 16.4193 41.3189C15.8079 41.4834 15.1902 41.6417 14.5788 41.8062C17.806 44.116 21.0333 46.4195 24.2543 48.7294C25.6663 49.7419 27.0089 47.4004 25.6095 46.4005L25.6032 46.3942Z" fill="#00FCD6"/>
</svg>
