<svg width="30" height="30" viewBox="0 0 30 30" fill="none" xmlns="http://www.w3.org/2000/svg">
<path d="M28.0735 29.6C24.6476 29.6 21.2628 28.8531 17.9191 27.3594C14.5754 25.8657 11.5332 23.7485 8.79242 21.0078C6.05168 18.267 3.93445 15.2248 2.44075 11.8811C0.947047 8.53741 0.200195 5.15259 0.200195 1.72667C0.200195 1.23333 0.36464 0.822222 0.693529 0.493333C1.02242 0.164444 1.43353 0 1.92686 0H8.58686C8.97057 0 9.31316 0.130185 9.61464 0.390556C9.91612 0.650926 10.0943 0.959259 10.1491 1.31556L11.218 7.07111C11.2728 7.50963 11.2591 7.87963 11.1769 8.18111C11.0946 8.48259 10.9439 8.74296 10.7246 8.96222L6.73686 12.9911C7.28501 14.0052 7.93594 14.985 8.68964 15.9306C9.44334 16.8761 10.2724 17.7874 11.1769 18.6644C12.0265 19.5141 12.9172 20.302 13.8491 21.0283C14.7809 21.7546 15.7676 22.4193 16.8091 23.0222L20.6735 19.1578C20.9202 18.9111 21.2422 18.7261 21.6396 18.6028C22.037 18.4794 22.4276 18.4452 22.8113 18.5L28.4846 19.6511C28.8683 19.7607 29.1835 19.9594 29.4302 20.2472C29.6769 20.535 29.8002 20.857 29.8002 21.2133V27.8733C29.8002 28.3667 29.6358 28.7778 29.3069 29.1067C28.978 29.4356 28.5669 29.6 28.0735 29.6ZM5.17464 9.86667L7.88797 7.15333L7.18908 3.28889H3.5302C3.66723 4.41259 3.85908 5.52259 4.10575 6.61889C4.35242 7.71519 4.70871 8.79778 5.17464 9.86667ZM19.8924 24.5844C20.9613 25.0504 22.0508 25.4204 23.1608 25.6944C24.2708 25.9685 25.3876 26.1467 26.5113 26.2289V22.6111L22.6469 21.83L19.8924 24.5844Z" fill="#00FCD6"/>
</svg>
