<svg width="27" height="27" viewBox="0 0 27 27" fill="none" xmlns="http://www.w3.org/2000/svg">
<circle cx="13.5" cy="13.5" r="13.5" fill="#00FCD6" fill-opacity="0.2"/>
<circle cx="13.5005" cy="13.5005" r="8.42308" fill="#00FCD6"/>
<path d="M11.1573 12.4122C10.9983 12.2532 10.9983 11.9945 11.1573 11.8355C11.3163 11.6766 11.575 11.6766 11.7339 11.8355C11.8929 11.9945 11.8929 12.2532 11.7339 12.4122C11.575 12.5711 11.3163 12.5711 11.1573 12.4122Z" fill="#191919"/>
<path d="M11.927 16.6237C11.768 16.4647 11.768 16.206 11.927 16.047C12.086 15.8881 12.3446 15.8881 12.5036 16.047C12.6626 16.206 12.6626 16.4647 12.5036 16.6237C12.3446 16.7826 12.086 16.7826 11.927 16.6237Z" fill="#191919"/>
<path d="M17.3198 13.168C17.3198 13.168 17.5855 12.2507 17.7037 11.4417C17.7813 10.9084 17.6821 10.5231 17.2143 10.1493C16.7465 9.77543 15.7905 9.96809 15.3011 10.245C14.8117 10.5218 11.251 12.3145 11.251 12.3145C11.251 12.3145 14.0248 9.95661 15.0354 9.39139C16.046 8.82617 17.0122 8.91166 17.7241 9.4016C18.4359 9.89282 18.7016 10.8625 18.4792 11.9406C18.2554 13.0175 18.0012 13.9463 18.0012 13.9463L17.3211 13.168H17.3198Z" fill="#191919"/>
<path d="M13.1538 10.3102C13.1538 10.3102 12.2398 10.0435 11.4338 9.92485C10.9024 9.84702 10.5185 9.94654 10.146 10.4161C9.77358 10.8856 9.96553 11.8451 10.2414 12.3363C10.5172 12.8275 12.3033 16.4013 12.3033 16.4013C12.3033 16.4013 9.95409 13.6173 9.39094 12.6029C8.82779 11.5899 8.91296 10.6189 9.40111 9.90443C9.89053 9.18993 10.8579 8.92327 11.9308 9.14783C13.0038 9.37239 13.9292 9.62756 13.9292 9.62756L13.1538 10.3102Z" fill="#191919"/>
<path d="M10.2359 14.5228C10.2359 14.5228 9.97021 15.4401 9.85199 16.2503C9.77444 16.7836 9.8736 17.169 10.3414 17.5428C10.8092 17.9166 11.7652 17.724 12.2546 17.4471C12.744 17.1702 16.3047 15.3776 16.3047 15.3776C16.3047 15.3776 13.5309 17.7355 12.5203 18.3007C11.5109 18.8659 10.5435 18.7804 9.83165 18.2905C9.11976 17.7993 8.85408 16.8296 9.07654 15.7515C9.30028 14.6746 9.55452 13.7458 9.55452 13.7458L10.2346 14.524L10.2359 14.5228Z" fill="#191919"/>
<path d="M14.4014 17.3802C14.4014 17.3802 15.3154 17.6468 16.1214 17.7655C16.6528 17.8433 17.0367 17.7438 17.4091 17.2743C17.7816 16.8047 17.5897 15.8453 17.3138 15.354C17.0379 14.8628 15.2519 11.2891 15.2519 11.2891C15.2519 11.2891 17.6011 14.0731 18.1643 15.0874C18.7274 16.1004 18.6422 17.0714 18.1541 17.7859C17.6647 18.5004 16.6985 18.767 15.6243 18.5438C14.5514 18.3192 13.626 18.064 13.626 18.064L14.4014 17.3814V17.3802Z" fill="#191919"/>
<path d="M15.0059 11.6879C14.8469 11.529 14.8469 11.2703 15.0059 11.1113C15.1648 10.9523 15.4235 10.9523 15.5825 11.1113C15.7415 11.2703 15.7415 11.529 15.5825 11.6879C15.4235 11.8469 15.1648 11.8469 15.0059 11.6879Z" fill="#191919"/>
<path d="M15.8205 15.8086C15.6616 15.6497 15.6616 15.391 15.8205 15.232C15.9795 15.0731 16.2382 15.0731 16.3972 15.232C16.5561 15.391 16.5561 15.6497 16.3972 15.8086C16.2382 15.9676 15.9795 15.9676 15.8205 15.8086Z" fill="#191919"/>
<path d="M13.7677 14.4728C14.1206 14.4728 14.4067 14.1867 14.4067 13.8338C14.4067 13.4808 14.1206 13.1947 13.7677 13.1947C13.4149 13.1947 13.1288 13.4808 13.1288 13.8338C13.1288 14.1867 13.4149 14.4728 13.7677 14.4728Z" fill="#191919"/>
</svg>
