<svg width="51" height="45" viewBox="0 0 51 45" fill="none" xmlns="http://www.w3.org/2000/svg">
<g clip-path="url(#clip0_61_279)">
<path d="M0.507812 4.39691C0.507812 2.24557 2.27961 0.500488 4.46387 0.500488H46.5358C48.7201 0.500488 50.4919 2.24557 50.4919 4.39691V27.5213C50.4919 29.6726 48.7201 31.4177 46.5358 31.4177H4.46387C2.27961 31.4177 0.507812 29.6726 0.507812 27.5213V9.65618" stroke="#191919" stroke-width="1.37864" stroke-linecap="round" stroke-linejoin="round"/>
<path d="M25.5 33.7393V39.763" stroke="#191919" stroke-width="1.37864" stroke-linecap="round" stroke-linejoin="round"/>
<path d="M17.2891 44.4999H36.0047V39.7429H14.9951V44.4999" stroke="#191919" stroke-width="1.37864" stroke-linecap="round" stroke-linejoin="round"/>
<path d="M6.94065 25.82C6.54153 26.2017 6.52743 26.8347 6.90915 27.2338C7.29088 27.6329 7.92389 27.6471 8.32302 27.2653L6.94065 25.82ZM16.6859 17.8833L16.9186 16.9107C16.5882 16.8316 16.2402 16.9257 15.9947 17.1606L16.6859 17.8833ZM28.5195 20.715L28.2868 21.6876C28.6664 21.7784 29.0641 21.6401 29.3055 21.3333L28.5195 20.715ZM35.1596 12.2738L34.6651 11.4046C34.5526 11.4686 34.4537 11.5538 34.3737 11.6555L35.1596 12.2738ZM43.7301 7.39673L32.1833 7.32461L37.8942 17.3605L43.7301 7.39673ZM8.32302 27.2653L17.377 18.6059L15.9947 17.1606L6.94065 25.82L8.32302 27.2653ZM16.4531 18.8558L28.2868 21.6876L28.7522 19.7425L16.9186 16.9107L16.4531 18.8558ZM29.3055 21.3333L35.9456 12.892L34.3737 11.6555L27.7335 20.0967L29.3055 21.3333ZM35.6542 13.1429L36.4025 12.7171L35.4133 10.9788L34.6651 11.4046L35.6542 13.1429Z" fill="#191919"/>
</g>
<defs>
<clipPath id="clip0_61_279">
<rect width="51" height="45" fill="white" transform="translate(0 0.000244141)"/>
</clipPath>
</defs>
</svg>
