<svg width="42" height="55" viewBox="0 0 42 55" fill="none" xmlns="http://www.w3.org/2000/svg">
<path d="M24.0083 9.53271H18.0663V14.3663C16.2118 14.7406 14.4842 15.4582 12.9575 16.4482L9.4832 13.031L5.28151 17.1636L8.7579 20.5829C7.74924 22.0866 7.01971 23.7838 6.63908 25.6057H1.72266V31.45H6.63697C7.01759 33.272 7.74713 34.9712 8.75579 36.4728L5.2794 39.8921L9.48109 44.0247L12.9554 40.6075C13.7187 41.1025 14.5328 41.531 15.3871 41.8804M18.0642 47.5251H24.0062V42.6915C25.8607 42.3172 27.5883 41.5996 29.1151 40.6096L32.5893 44.0268L36.791 39.8942L33.3146 36.4749C34.3233 34.9712 35.0528 33.274 35.4335 31.4521H40.3478V25.6078H35.4335C35.0528 23.7858 34.3233 22.0866 33.3146 20.585L36.791 17.1657L32.5893 13.0331L29.1151 16.4502C28.2671 15.9012 27.3578 15.4353 26.3999 15.0651M21.0352 35.1334C17.3262 35.1334 14.3193 32.1759 14.3193 28.5279C14.3193 24.8798 17.3262 21.9223 21.0352 21.9223C24.7442 21.9223 27.7512 24.8798 27.7512 28.5279C27.7512 32.1759 24.7442 35.1334 21.0352 35.1334Z" stroke="black" stroke-width="1.58831" stroke-linecap="round" stroke-linejoin="round"/>
<path d="M15.1553 19.5847L39.4752 3.58032" stroke="black" stroke-width="1.58831" stroke-linecap="round" stroke-linejoin="round"/>
<path d="M38.6901 8.94008L40.3733 3.14982L34.4863 1.49219" stroke="black" stroke-width="1.58831" stroke-linecap="round" stroke-linejoin="round"/>
<path d="M29.7008 35.5659L5.38086 51.5703" stroke="black" stroke-width="1.58831" stroke-linecap="round" stroke-linejoin="round"/>
<path d="M6.16482 46.2129L4.47949 52.0032L10.3686 53.6608" stroke="black" stroke-width="1.58831" stroke-linecap="round" stroke-linejoin="round"/>
</svg>
