<svg width="59" height="55" viewBox="0 0 59 55" fill="none" xmlns="http://www.w3.org/2000/svg">
<path d="M39.1098 15.8158C39.691 17.3787 40.0066 19.0684 40.0066 20.8272C40.0066 28.922 33.3136 35.4851 25.0586 35.4851C20.2295 35.4851 15.9363 33.241 13.2051 29.7591" stroke="#191919" stroke-width="1.58831" stroke-linecap="round" stroke-linejoin="round"/>
<path d="M10.266 22.9556C10.1639 22.261 10.1094 21.5508 10.1094 20.8272C10.1094 12.7324 16.8024 6.16931 25.0574 6.16931C29.6298 6.16931 33.7233 8.18188 36.4659 11.3544" stroke="#191919" stroke-width="1.58831" stroke-linecap="round" stroke-linejoin="round"/>
<path d="M42.2483 36.663L44.2235 34.7261L57.4256 47.672C58.42 48.6471 58.42 50.23 57.4256 51.2051L55.9135 52.6878C54.9191 53.6629 53.3049 53.6629 52.3105 52.6878L39.1084 39.7419L40.6886 38.1924" stroke="#191919" stroke-width="1.58831" stroke-linecap="round" stroke-linejoin="round"/>
<path d="M43.4497 35.4874L37.2539 29.4119" stroke="#191919" stroke-width="1.58831" stroke-linecap="round" stroke-linejoin="round"/>
<path d="M34.1689 32.4486L37.8378 36.0463" stroke="#191919" stroke-width="1.58831" stroke-linecap="round" stroke-linejoin="round"/>
<path d="M41.5744 7.5874L31.6553 22.5192" stroke="#191919" stroke-width="1.58831" stroke-linecap="round" stroke-linejoin="round"/>
<path d="M16.9555 21.1389L7.36328 29.6701" stroke="#191919" stroke-width="1.58831" stroke-linecap="round" stroke-linejoin="round"/>
<path d="M26.6384 23.5589L22.5449 20.8362" stroke="#191919" stroke-width="1.58831" stroke-linecap="round" stroke-linejoin="round"/>
<path d="M8.23578 32.8201C8.67935 30.9772 7.51542 29.1307 5.63608 28.6957C3.75674 28.2608 1.87366 29.4021 1.4301 31.245C0.986533 33.0878 2.15046 34.9344 4.02979 35.3693C5.90913 35.8043 7.79222 34.663 8.23578 32.8201Z" stroke="#191919" stroke-width="1.58831" stroke-linecap="round" stroke-linejoin="round"/>
<path d="M23.1304 18.937C23.1304 19.6383 22.9147 20.2929 22.5446 20.8361C21.918 21.7578 20.8487 22.3655 19.634 22.3655C18.5579 22.3655 17.5953 21.8891 16.955 21.1388C16.4442 20.5422 16.1377 19.7741 16.1377 18.937C16.1377 17.0425 17.702 15.5085 19.634 15.5085C21.5661 15.5085 23.1304 17.0425 23.1304 18.937Z" stroke="#191919" stroke-width="1.58831" stroke-linecap="round" stroke-linejoin="round"/>
<path d="M33.1353 25.3201C33.1353 27.2147 31.571 28.7486 29.6389 28.7486C27.7068 28.7486 26.1426 27.2147 26.1426 25.3201C26.1426 24.6767 26.3242 24.0734 26.6375 23.5591C27.2482 22.5595 28.363 21.8916 29.6389 21.8916C30.3904 21.8916 31.0851 22.1231 31.655 22.5194C32.5495 23.1406 33.1353 24.1624 33.1353 25.3201Z" stroke="#191919" stroke-width="1.58831" stroke-linecap="round" stroke-linejoin="round"/>
<path d="M46.9057 5.53786C47.3493 3.69499 46.1853 1.84845 44.306 1.41349C42.4267 0.978537 40.5436 2.11988 40.1 3.96275C39.6565 5.80562 40.8204 7.65216 42.6997 8.08712C44.5791 8.52208 46.4621 7.38074 46.9057 5.53786Z" stroke="#191919" stroke-width="1.58831" stroke-linecap="round" stroke-linejoin="round"/>
</svg>
