<svg width="60" height="50" viewBox="0 0 60 50" fill="none" xmlns="http://www.w3.org/2000/svg">
<path d="M33.4781 1.35498H25.8125V9.08729H33.4781V1.35498Z" stroke="black" stroke-width="1.58831" stroke-linecap="round" stroke-linejoin="round"/>
<path d="M29.6445 9.08716V13.0888" stroke="black" stroke-width="1.58831" stroke-linecap="round" stroke-linejoin="round"/>
<path d="M17.1514 20.6855V15.5322H42.1374V20.6855" stroke="black" stroke-width="1.58831" stroke-linecap="round" stroke-linejoin="round"/>
<path d="M20.9829 21.5454H13.3174V29.2777H20.9829V21.5454Z" stroke="black" stroke-width="1.58831" stroke-linecap="round" stroke-linejoin="round"/>
<path d="M17.1514 29.2776V33.2792" stroke="black" stroke-width="1.58831" stroke-linecap="round" stroke-linejoin="round"/>
<path d="M4.65918 40.8783V35.7227H29.6452V40.8783" stroke="black" stroke-width="1.58831" stroke-linecap="round" stroke-linejoin="round"/>
<path d="M45.9702 21.5454H38.3047V29.2777H45.9702V21.5454Z" stroke="black" stroke-width="1.58831" stroke-linecap="round" stroke-linejoin="round"/>
<path d="M33.4781 41.4507H25.8125V49.183H33.4781V41.4507Z" stroke="black" stroke-width="1.58831" stroke-linecap="round" stroke-linejoin="round"/>
<path d="M8.49172 41.4507H0.826172V49.183H8.49172V41.4507Z" stroke="black" stroke-width="1.58831" stroke-linecap="round" stroke-linejoin="round"/>
<path d="M58.4644 41.4507H50.7988V49.183H58.4644V41.4507Z" stroke="black" stroke-width="1.58831" stroke-linecap="round" stroke-linejoin="round"/>
<path d="M42.1367 29.2776V33.2792" stroke="black" stroke-width="1.58831" stroke-linecap="round" stroke-linejoin="round"/>
<path d="M29.6445 40.8783V35.7227H54.6305V40.8783" stroke="black" stroke-width="1.58831" stroke-linecap="round" stroke-linejoin="round"/>
<path d="M29.5421 3.99708C29.4007 3.99708 29.277 3.94627 29.171 3.84465C29.0694 3.73862 29.0186 3.61491 29.0186 3.47353C29.0186 3.33215 29.0694 3.20845 29.171 3.10241C29.277 2.99638 29.4007 2.94336 29.5421 2.94336C29.6879 2.94336 29.8116 2.99638 29.9132 3.10241C30.0193 3.20845 30.0723 3.33215 30.0723 3.47353C30.0723 3.61491 30.0193 3.73862 29.9132 3.84465C29.8116 3.94627 29.6879 3.99708 29.5421 3.99708ZM29.9729 7.28084C29.9729 7.51692 29.7815 7.70829 29.5454 7.70829C29.3093 7.70829 29.118 7.51692 29.118 7.28084V4.82216C29.118 4.58609 29.3093 4.39471 29.5454 4.39471C29.7815 4.39471 29.9729 4.58609 29.9729 4.82216V7.28084Z" fill="black"/>
<path d="M17.2335 23.8508C17.0921 23.8508 16.9684 23.8 16.8624 23.6984C16.7608 23.5924 16.71 23.4687 16.71 23.3273C16.71 23.1859 16.7608 23.0622 16.8624 22.9562C16.9684 22.8501 17.0921 22.7971 17.2335 22.7971C17.3793 22.7971 17.503 22.8501 17.6046 22.9562C17.7107 23.0622 17.7637 23.1859 17.7637 23.3273C17.7637 23.4687 17.7107 23.5924 17.6046 23.6984C17.503 23.8 17.3793 23.8508 17.2335 23.8508ZM17.6643 27.1346C17.6643 27.3707 17.4729 27.5621 17.2368 27.5621C17.0007 27.5621 16.8094 27.3707 16.8094 27.1346V24.6759C16.8094 24.4398 17.0007 24.2485 17.2368 24.2485C17.4729 24.2485 17.6643 24.4398 17.6643 24.6759V27.1346Z" fill="black"/>
<path d="M41.8517 23.8508C41.7103 23.8508 41.5866 23.8 41.4805 23.6984C41.3789 23.5924 41.3281 23.4687 41.3281 23.3273C41.3281 23.1859 41.3789 23.0622 41.4805 22.9562C41.5866 22.8501 41.7103 22.7971 41.8517 22.7971C41.9975 22.7971 42.1212 22.8501 42.2228 22.9562C42.3288 23.0622 42.3818 23.1859 42.3818 23.3273C42.3818 23.4687 42.3288 23.5924 42.2228 23.6984C42.1212 23.8 41.9975 23.8508 41.8517 23.8508ZM42.2824 27.1346C42.2824 27.3707 42.0911 27.5621 41.855 27.5621C41.6189 27.5621 41.4275 27.3707 41.4275 27.1346V24.6759C41.4275 24.4398 41.6189 24.2485 41.855 24.2485C42.0911 24.2485 42.2824 24.4398 42.2824 24.6759V27.1346Z" fill="black"/>
<path d="M4.52648 43.7046C4.3851 43.7046 4.26139 43.6538 4.15535 43.5522C4.05374 43.4461 4.00293 43.3224 4.00293 43.1811C4.00293 43.0397 4.05374 42.916 4.15535 42.8099C4.26139 42.7039 4.3851 42.6509 4.52648 42.6509C4.67227 42.6509 4.79598 42.7039 4.8976 42.8099C5.00363 42.916 5.05665 43.0397 5.05665 43.1811C5.05665 43.3224 5.00363 43.4461 4.8976 43.5522C4.79598 43.6538 4.67227 43.7046 4.52648 43.7046ZM4.95724 46.9884C4.95724 47.2244 4.76587 47.4158 4.52979 47.4158C4.29371 47.4158 4.10234 47.2244 4.10234 46.9884V44.5297C4.10234 44.2936 4.29371 44.1022 4.52979 44.1022C4.76587 44.1022 4.95724 44.2936 4.95724 44.5297V46.9884Z" fill="black"/>
<path d="M29.9396 43.7046C29.7982 43.7046 29.6745 43.6538 29.5684 43.5522C29.4668 43.4461 29.416 43.3224 29.416 43.1811C29.416 43.0397 29.4668 42.916 29.5684 42.8099C29.6745 42.7039 29.7982 42.6509 29.9396 42.6509C30.0854 42.6509 30.2091 42.7039 30.3107 42.8099C30.4167 42.916 30.4697 43.0397 30.4697 43.1811C30.4697 43.3224 30.4167 43.4461 30.3107 43.5522C30.2091 43.6538 30.0854 43.7046 29.9396 43.7046ZM30.3703 46.9884C30.3703 47.2244 30.179 47.4158 29.9429 47.4158C29.7068 47.4158 29.5154 47.2244 29.5154 46.9884V44.5297C29.5154 44.2936 29.7068 44.1022 29.9429 44.1022C30.179 44.1022 30.3703 44.2936 30.3703 44.5297V46.9884Z" fill="black"/>
<path d="M54.5577 43.7046C54.4163 43.7046 54.2926 43.6538 54.1866 43.5522C54.085 43.4461 54.0342 43.3224 54.0342 43.1811C54.0342 43.0397 54.085 42.916 54.1866 42.8099C54.2926 42.7039 54.4163 42.6509 54.5577 42.6509C54.7035 42.6509 54.8272 42.7039 54.9288 42.8099C55.0349 42.916 55.0879 43.0397 55.0879 43.1811C55.0879 43.3224 55.0349 43.4461 54.9288 43.5522C54.8272 43.6538 54.7035 43.7046 54.5577 43.7046ZM54.9885 46.9884C54.9885 47.2244 54.7971 47.4158 54.561 47.4158C54.325 47.4158 54.1336 47.2244 54.1336 46.9884V44.5297C54.1336 44.2936 54.325 44.1022 54.561 44.1022C54.7971 44.1022 54.9885 44.2936 54.9885 44.5297V46.9884Z" fill="black"/>
</svg>
