<svg width="56" height="55" viewBox="0 0 56 55" fill="none" xmlns="http://www.w3.org/2000/svg">
<path d="M23.7205 14.8711H34.1196C35.7355 14.8711 37.0444 16.18 37.0444 17.7959V18.6278C37.0444 20.2438 35.7355 21.5526 34.1196 21.5526H21.5928C19.9768 21.5526 18.668 20.2438 18.668 18.6278V17.7959C18.668 16.18 19.9768 14.8711 21.5928 14.8711" stroke="#191919" stroke-width="1.58831" stroke-linecap="round" stroke-linejoin="round"/>
<path d="M23.7205 23.702H34.1196C35.7355 23.702 37.0444 25.0109 37.0444 26.6268V27.4588C37.0444 29.0747 35.7355 30.3836 34.1196 30.3836H21.5928C19.9768 30.3836 18.668 29.0747 18.668 27.4588V26.6268C18.668 25.0109 19.9768 23.702 21.5928 23.702" stroke="#191919" stroke-width="1.58831" stroke-linecap="round" stroke-linejoin="round"/>
<path d="M23.7205 32.5353H34.1196C35.7355 32.5353 37.0444 33.8441 37.0444 35.4601V36.292C37.0444 37.908 35.7355 39.2168 34.1196 39.2168H21.5928C19.9768 39.2168 18.668 37.908 18.668 36.292V35.4601C18.668 33.8441 19.9768 32.5353 21.5928 32.5353" stroke="#191919" stroke-width="1.58831" stroke-linecap="round" stroke-linejoin="round"/>
<path d="M27.9291 7.77568C29.8078 7.77568 31.3309 6.25266 31.3309 4.37392C31.3309 2.49519 29.8078 0.972168 27.9291 0.972168C26.0504 0.972168 24.5273 2.49519 24.5273 4.37392C24.5273 6.25266 26.0504 7.77568 27.9291 7.77568Z" stroke="#191919" stroke-width="1.58831" stroke-linecap="round" stroke-linejoin="round"/>
<path d="M27.9287 7.77368V12.0727" stroke="#191919" stroke-width="1.58831" stroke-linecap="round" stroke-linejoin="round"/>
<path d="M31.287 50.823C31.588 48.9685 30.3287 47.2212 28.4743 46.9201C26.6198 46.6191 24.8724 47.8784 24.5714 49.7329C24.2704 51.5874 25.5297 53.3347 27.3842 53.6357C29.2386 53.9368 30.986 52.6775 31.287 50.823Z" stroke="#191919" stroke-width="1.58831" stroke-linecap="round" stroke-linejoin="round"/>
<path d="M27.9287 46.8743V42.5753" stroke="#191919" stroke-width="1.58831" stroke-linecap="round" stroke-linejoin="round"/>
<path d="M50.8793 30.7259C52.758 30.7259 54.281 29.2029 54.281 27.3241C54.281 25.4454 52.758 23.9224 50.8793 23.9224C49.0006 23.9224 47.4775 25.4454 47.4775 27.3241C47.4775 29.2029 49.0006 30.7259 50.8793 30.7259Z" stroke="#191919" stroke-width="1.58831" stroke-linecap="round" stroke-linejoin="round"/>
<path d="M47.4797 27.324H43.1807" stroke="#191919" stroke-width="1.58831" stroke-linecap="round" stroke-linejoin="round"/>
<path d="M4.9789 30.7259C6.85764 30.7259 8.38066 29.2029 8.38066 27.3241C8.38066 25.4454 6.85764 23.9224 4.9789 23.9224C3.10017 23.9224 1.57715 25.4454 1.57715 27.3241C1.57715 29.2029 3.10017 30.7259 4.9789 30.7259Z" stroke="#191919" stroke-width="1.58831" stroke-linecap="round" stroke-linejoin="round"/>
<path d="M8.37793 27.324H12.6769" stroke="#191919" stroke-width="1.58831" stroke-linecap="round" stroke-linejoin="round"/>
<path d="M11.7006 14.4965C13.5793 14.4965 15.1023 12.9735 15.1023 11.0947C15.1023 9.21601 13.5793 7.69299 11.7006 7.69299C9.82185 7.69299 8.29883 9.21601 8.29883 11.0947C8.29883 12.9735 9.82185 14.4965 11.7006 14.4965Z" stroke="#191919" stroke-width="1.58831" stroke-linecap="round" stroke-linejoin="round"/>
<path d="M14.1055 13.5015L17.1435 16.5395" stroke="#191919" stroke-width="1.58831" stroke-linecap="round" stroke-linejoin="round"/>
<path d="M41.7512 45.9573C40.4228 44.6288 40.4228 42.475 41.7512 41.1465C43.0797 39.818 45.2336 39.818 46.562 41.1465C47.8905 42.475 47.8905 44.6288 46.562 45.9573C45.2336 47.2858 43.0797 47.2858 41.7512 45.9573Z" stroke="#191919" stroke-width="1.58831" stroke-linecap="round" stroke-linejoin="round"/>
<path d="M41.7509 41.1466L38.7129 38.1085" stroke="#191919" stroke-width="1.58831" stroke-linecap="round" stroke-linejoin="round"/>
<path d="M44.1576 14.4965C46.0364 14.4965 47.5594 12.9735 47.5594 11.0947C47.5594 9.21601 46.0364 7.69299 44.1576 7.69299C42.2789 7.69299 40.7559 9.21601 40.7559 11.0947C40.7559 12.9735 42.2789 14.4965 44.1576 14.4965Z" stroke="#191919" stroke-width="1.58831" stroke-linecap="round" stroke-linejoin="round"/>
<path d="M41.7509 13.5015L38.7129 16.5395" stroke="#191919" stroke-width="1.58831" stroke-linecap="round" stroke-linejoin="round"/>
<path d="M9.29616 41.1465C10.6246 39.818 12.7785 39.818 14.107 41.1465C15.4354 42.475 15.4354 44.6288 14.107 45.9573C12.7785 47.2858 10.6246 47.2858 9.29616 45.9573C7.96769 44.6288 7.96769 42.475 9.29616 41.1465Z" stroke="#191919" stroke-width="1.58831" stroke-linecap="round" stroke-linejoin="round"/>
<path d="M14.1055 41.1466L17.1435 38.1085" stroke="#191919" stroke-width="1.58831" stroke-linecap="round" stroke-linejoin="round"/>
</svg>
