<svg width="1678" height="1003" viewBox="0 0 1678 1003" fill="none" xmlns="http://www.w3.org/2000/svg">
<line x1="-16.4732" y1="946.052" x2="97.3754" y2="1002.51" stroke="#383838" stroke-width="0.877604"/>
<line x1="-16.4596" y1="881.264" x2="205.684" y2="1002.52" stroke="#383838" stroke-width="0.877604"/>
<line x1="-16.4546" y1="809.067" x2="326.942" y2="1002.52" stroke="#383838" stroke-width="0.877604"/>
<line x1="-16.4507" y1="742.425" x2="433.39" y2="1002.52" stroke="#383838" stroke-width="0.877604"/>
<line x1="-16.4491" y1="680.411" x2="516.695" y2="992.338" stroke="#383838" stroke-width="0.877604"/>
<line x1="-16.4464" y1="614.694" x2="635.174" y2="1002.52" stroke="#383838" stroke-width="0.877604"/>
<line x1="-16.4475" y1="550.826" x2="749.022" y2="1002.52" stroke="#383838" stroke-width="0.877604"/>
<line x1="-16.4484" y1="486.96" x2="838.804" y2="989.56" stroke="#383838" stroke-width="0.877604"/>
<line x1="-16.4504" y1="424.019" x2="982.27" y2="1002.52" stroke="#383838" stroke-width="0.877604"/>
<line x1="-16.4502" y1="361.079" x2="1087.79" y2="1002.52" stroke="#383838" stroke-width="0.877604"/>
<line x1="-16.4506" y1="299.989" x2="1197.93" y2="1002.52" stroke="#383838" stroke-width="0.877604"/>
<line x1="-16.4505" y1="234.271" x2="1310.86" y2="1002.52" stroke="#383838" stroke-width="0.877604"/>
<line x1="-16.4501" y1="168.554" x2="1418.23" y2="1002.52" stroke="#383838" stroke-width="0.877604"/>
<line x1="-16.4507" y1="106.539" x2="1533" y2="1002.52" stroke="#383838" stroke-width="0.877604"/>
<line x1="-0.714937" y1="54.7056" x2="1642.22" y2="1002.52" stroke="#383838" stroke-width="0.877604"/>
<line x1="116.836" y1="54.7057" x2="1744.3" y2="995.582" stroke="#383838" stroke-width="0.877604"/>
<line x1="217.724" y1="54.7054" x2="1760.7" y2="939.577" stroke="#383838" stroke-width="0.877604"/>
<line x1="333.425" y1="54.7058" x2="1760.7" y2="882.19" stroke="#383838" stroke-width="0.877604"/>
<line x1="448.201" y1="54.7058" x2="1760.7" y2="816.473" stroke="#383838" stroke-width="0.877604"/>
<line x1="557.422" y1="54.7058" x2="1760.7" y2="753.532" stroke="#383838" stroke-width="0.877604"/>
<line x1="662.014" y1="54.7056" x2="1760.7" y2="688.74" stroke="#383838" stroke-width="0.877604"/>
<line x1="762.901" y1="54.7053" x2="1760.7" y2="623.948" stroke="#383838" stroke-width="0.877604"/>
<line x1="892.486" y1="54.7057" x2="1760.7" y2="556.38" stroke="#383838" stroke-width="0.877604"/>
<line x1="1007.26" y1="54.706" x2="1760.7" y2="495.291" stroke="#383838" stroke-width="0.877604"/>
<line x1="1108.15" y1="54.7056" x2="1760.7" y2="430.498" stroke="#383838" stroke-width="0.877604"/>
<line x1="1219.22" y1="54.7056" x2="1760.7" y2="366.632" stroke="#383838" stroke-width="0.877604"/>
<line x1="1337.7" y1="54.7067" x2="1760.7" y2="307.395" stroke="#383838" stroke-width="0.877604"/>
<line x1="1448.77" y1="54.7059" x2="1760.7" y2="236.123" stroke="#383838" stroke-width="0.877604"/>
<line x1="1541.33" y1="54.705" x2="1760.69" y2="178.735" stroke="#383838" stroke-width="0.877604"/>
<line y1="-0.438802" x2="122.543" y2="-0.438802" transform="matrix(-0.92905 0.460748 0.337132 0.67979 1695.68 946.351)" stroke="#383838" stroke-width="0.877604"/>
<line y1="-0.438802" x2="249.606" y2="-0.438802" transform="matrix(-0.889976 0.485779 0.368116 0.674411 1695.68 881.56)" stroke="#383838" stroke-width="0.877604"/>
<line y1="-0.438802" x2="391.74" y2="-0.438802" transform="matrix(-0.876594 0.493823 0.378811 0.672434 1695.68 809.362)" stroke="#383838" stroke-width="0.877604"/>
<line y1="-0.438802" x2="519.809" y2="-0.438802" transform="matrix(-0.865396 0.500363 0.387805 0.670723 1695.68 742.72)" stroke="#383838" stroke-width="0.877604"/>
<line y1="-0.438802" x2="619.751" y2="-0.438802" transform="matrix(-0.860255 0.503309 0.391949 0.669919 1695.68 680.705)" stroke="#383838" stroke-width="0.877604"/>
<line y1="-0.438802" x2="764.127" y2="-0.438802" transform="matrix(-0.852765 0.50754 0.398007 0.668728 1695.68 614.987)" stroke="#383838" stroke-width="0.877604"/>
<line y1="-0.438802" x2="893.689" y2="-0.438802" transform="matrix(-0.856528 0.505424 0.394961 0.66933 1695.68 551.12)" stroke="#383838" stroke-width="0.877604"/>
<line y1="-0.438802" x2="996.419" y2="-0.438802" transform="matrix(-0.858326 0.504406 0.393507 0.669615 1695.68 487.254)" stroke="#383838" stroke-width="0.877604"/>
<line y1="-0.438802" x2="1155.11" y2="-0.438802" transform="matrix(-0.864609 0.500816 0.388439 0.670601 1695.68 424.313)" stroke="#383838" stroke-width="0.877604"/>
<line y1="-0.438802" x2="1278.98" y2="-0.438802" transform="matrix(-0.863376 0.501525 0.389433 0.670408 1695.68 361.373)" stroke="#383838" stroke-width="0.877604"/>
<line y1="-0.438802" x2="1403.65" y2="-0.438802" transform="matrix(-0.865159 0.5005 0.387996 0.670686 1695.68 300.283)" stroke="#383838" stroke-width="0.877604"/>
<line y1="-0.438802" x2="1534.57" y2="-0.438802" transform="matrix(-0.864938 0.500627 0.388174 0.670652 1695.68 234.566)" stroke="#383838" stroke-width="0.877604"/>
<line y1="-0.438802" x2="1662.28" y2="-0.438802" transform="matrix(-0.863075 0.501697 0.389675 0.670362 1695.68 168.849)" stroke="#383838" stroke-width="0.877604"/>
<line y1="-0.438802" x2="1790.56" y2="-0.438802" transform="matrix(-0.865347 0.500392 0.387845 0.670715 1695.68 106.833)" stroke="#383838" stroke-width="0.877604"/>
<line y1="-0.438802" x2="1896.36" y2="-0.438802" transform="matrix(-0.866362 0.499806 0.387027 0.670873 1679.94 55)" stroke="#383838" stroke-width="0.877604"/>
<line y1="-0.438802" x2="1880.5" y2="-0.438802" transform="matrix(-0.865446 0.500334 0.387765 0.670731 1562.39 55)" stroke="#383838" stroke-width="0.877604"/>
<line y1="-0.438802" x2="1775.72" y2="-0.438802" transform="matrix(-0.868929 0.498318 0.384963 0.671268 1461.5 55)" stroke="#383838" stroke-width="0.877604"/>
<line y1="-0.438802" x2="1651.52" y2="-0.438802" transform="matrix(-0.864215 0.501043 0.388756 0.670539 1345.8 55)" stroke="#383838" stroke-width="0.877604"/>
<line y1="-0.438802" x2="1519.54" y2="-0.438802" transform="matrix(-0.863745 0.501313 0.389135 0.670466 1231.03 55)" stroke="#383838" stroke-width="0.877604"/>
<line y1="-0.438802" x2="1393.55" y2="-0.438802" transform="matrix(-0.863465 0.501474 0.389361 0.670422 1121.8 55)" stroke="#383838" stroke-width="0.877604"/>
<line y1="-0.438802" x2="1268.36" y2="-0.438802" transform="matrix(-0.866224 0.499885 0.387138 0.670851 1017.21 55)" stroke="#383838" stroke-width="0.877604"/>
<line y1="-0.438802" x2="1145.34" y2="-0.438802" transform="matrix(-0.871178 0.497008 0.383156 0.671613 916.322 55)" stroke="#383838" stroke-width="0.877604"/>
<line y1="-0.438802" x2="1002.94" y2="-0.438802" transform="matrix(-0.865669 0.500205 0.387585 0.670765 786.738 55)" stroke="#383838" stroke-width="0.877604"/>
<line y1="-0.438802" x2="875.599" y2="-0.438802" transform="matrix(-0.860481 0.503181 0.391767 0.669955 671.965 55)" stroke="#383838" stroke-width="0.877604"/>
<line y1="-0.438802" x2="752.541" y2="-0.438802" transform="matrix(-0.867124 0.499365 0.386414 0.67099 571.074 55)" stroke="#383838" stroke-width="0.877604"/>
<line y1="-0.438802" x2="624.547" y2="-0.438802" transform="matrix(-0.866987 0.499444 0.386524 0.670969 460.002 55)" stroke="#383838" stroke-width="0.877604"/>
<line y1="-0.438802" x2="496.979" y2="-0.438802" transform="matrix(-0.85114 0.508449 0.399324 0.668466 341.526 55)" stroke="#383838" stroke-width="0.877604"/>
<line y1="-0.438802" x2="361.511" y2="-0.438802" transform="matrix(-0.862842 0.501831 0.389863 0.670325 230.454 55)" stroke="#383838" stroke-width="0.877604"/>
<line y1="-0.438802" x2="250.695" y2="-0.438802" transform="matrix(-0.875033 0.494745 0.380062 0.672199 137.895 55)" stroke="#383838" stroke-width="0.877604"/>
<rect width="1697" height="1003" transform="matrix(-1 8.74228e-08 8.74228e-08 1 1680 0)" fill="url(#paint0_linear_1_18)"/>
<defs>
<linearGradient id="paint0_linear_1_18" x1="848.5" y1="0" x2="848.5" y2="1003" gradientUnits="userSpaceOnUse">
<stop/>
<stop offset="0.333972" stop-opacity="0"/>
<stop offset="0.50408" stop-opacity="0"/>
<stop offset="1"/>
</linearGradient>
</defs>
</svg>
