<svg width="33" height="35" viewBox="0 0 33 35" fill="none" xmlns="http://www.w3.org/2000/svg">
<path d="M2.30975 31.7347L3.94979 25.5536L4.07888 25.0671L3.83314 24.6278C2.5856 22.3976 1.92774 19.8636 1.92845 17.2637M2.30975 31.7347L16.1376 2.56268C8.34368 2.56299 1.93155 9.12148 1.92845 17.2637M2.30975 31.7347L8.42282 30.0803L8.91385 29.9474L9.35721 30.1968C11.4292 31.3624 13.7608 31.9766 16.132 31.9777L2.30975 31.7347ZM1.92845 17.2637L0.685111 17.2634L1.92845 17.2637ZM26.1761 6.86043L26.176 6.86031C23.4892 4.08433 19.9297 2.56453 16.1382 2.56268L26.1761 6.86043ZM26.1761 6.86043C28.8654 9.63819 30.3496 13.3324 30.3482 17.2754M26.1761 6.86043L30.3482 17.2754M30.3482 17.2754C30.3449 25.4182 23.932 31.9777 16.139 31.9777L30.3482 17.2754ZM16.139 33.221H16.139H16.139ZM16.1388 31.9777H16.1325H16.1388Z" stroke="white" stroke-width="2.48668"/>
<path d="M0 34.0732L2.27085 25.5145C0.870097 23.0096 0.133307 20.1682 0.134336 17.2571C0.137939 8.15029 7.31849 0.741211 16.142 0.741211C20.4237 0.74307 24.4427 2.46313 27.465 5.58507C30.4871 8.707 32.1509 12.8568 32.1493 17.2704C32.1455 26.377 24.9639 33.7871 16.142 33.7871C16.1414 33.7871 16.1422 33.7871 16.142 33.7871H16.135C13.456 33.786 10.8238 33.0925 8.48582 31.7765L0 34.0732ZM8.87879 28.7865L9.36493 29.0837C11.4072 30.3348 13.7489 30.9964 16.1368 30.9977H16.142C23.4749 30.9977 29.4433 24.8388 29.4464 17.2693C29.4477 13.6011 28.0652 10.1516 25.5532 7.55692C23.041 4.96222 19.7008 3.53246 16.1468 3.53087C8.80802 3.53087 2.83985 9.68894 2.83701 17.2582C2.83598 19.8521 3.53906 22.378 4.8711 24.5639L5.18764 25.0835L3.84325 30.1491L8.87879 28.7865Z" fill="white"/>
<path d="M1.75409 32.3103L3.47261 25.8334L3.60167 25.347L3.35604 24.9077C2.06027 22.5905 1.37672 19.9585 1.37768 17.2576M1.75409 32.3103L16.1414 1.98455C8.0415 1.98486 1.38102 8.79999 1.37768 17.2576M1.75409 32.3103L8.161 30.5763L8.65224 30.4433L9.09572 30.693C11.2485 31.9048 13.6708 32.5427 16.135 32.5438C16.1352 32.5438 16.1353 32.5438 16.1355 32.5438L1.75409 32.3103ZM1.37768 17.2576L0.134336 17.2571L1.37768 17.2576ZM16.1368 32.241H16.1361C13.5189 32.2396 10.9532 31.5145 8.71638 30.1445L16.1368 32.241ZM16.1368 32.241H16.142C24.1983 32.241 30.6864 25.4883 30.6897 17.2698V17.2698C30.6911 13.2843 29.1871 9.52292 26.4465 6.6921L26.4465 6.69206C23.7044 3.86004 20.0441 2.28928 16.1474 2.28753H16.1468C8.08503 2.28753 1.59675 9.03906 1.59367 17.2577C1.59255 20.0767 2.35674 22.8271 3.80932 25.2109C3.80933 25.2109 3.80934 25.2109 3.80936 25.2109M16.1368 32.241L3.80936 25.2109M3.80936 25.2109L3.84981 25.2773L2.64151 29.8302L2.08905 31.9118L4.168 31.3493L8.68689 30.1265L8.71548 30.144L3.80936 25.2109ZM16.142 32.5438C24.2405 32.5438 30.9023 25.7275 30.906 17.27L16.142 32.5438ZM16.142 32.5438H16.142H16.142ZM16.142 1.98455C20.0811 1.98641 23.7796 3.56566 26.5717 6.44987C29.3653 9.33576 30.9074 13.1736 30.906 17.2699L16.142 1.98455Z" fill="white" stroke="white" stroke-width="2.48668"/>
<path fill-rule="evenodd" clip-rule="evenodd" d="M12.142 10.3519C11.8424 9.6645 11.5269 9.65069 11.2418 9.63874C11.0086 9.62838 10.7418 9.62891 10.4754 9.62891C10.2088 9.62891 9.77546 9.7325 9.409 10.1455C9.04228 10.5585 8.00879 11.5572 8.00879 13.5883C8.00879 15.6197 9.4422 17.5823 9.64215 17.858C9.84211 18.1334 12.4091 22.4346 16.4744 24.0894C19.8531 25.4647 20.5404 25.1911 21.2738 25.1223C22.0073 25.0535 23.6401 24.1236 23.9734 23.1597C24.3069 22.1959 24.3069 21.3698 24.2068 21.1969C24.1067 21.0251 23.8401 20.9217 23.4402 20.7154C23.0403 20.509 21.0739 19.51 20.7072 19.3724C20.3405 19.2346 20.0739 19.1661 19.8072 19.5794C19.5404 19.9921 18.7745 20.9217 18.5411 21.1969C18.3077 21.4729 18.0743 21.5074 17.6744 21.3008C17.2745 21.0938 15.9862 20.6583 14.4581 19.2519C13.2692 18.1578 12.4662 16.8064 12.2328 16.3931C11.9997 15.9804 12.229 15.7764 12.4086 15.5509C12.7321 15.1448 13.2748 14.4146 13.4081 14.1395C13.5414 13.8638 13.4748 13.6228 13.3749 13.4162C13.2748 13.2098 12.4974 11.1684 12.142 10.3519Z" fill="white"/>
</svg>
