<svg width="38" height="38" viewBox="0 0 38 38" fill="none" xmlns="http://www.w3.org/2000/svg">
<path fill-rule="evenodd" clip-rule="evenodd" d="M27.2954 22.5356C26.8296 22.3025 24.5397 21.1761 24.1127 21.0207C23.6858 20.8654 23.3753 20.7877 23.0648 21.2538C22.7543 21.7199 21.8617 22.7687 21.59 23.0795C21.3183 23.3902 21.0466 23.4291 20.5809 23.1959C20.1151 22.963 18.6144 22.4712 16.8353 20.8849C15.4507 19.6503 14.516 18.1254 14.2442 17.6593C13.9725 17.1932 14.2153 16.9412 14.4485 16.709C14.658 16.5005 14.9142 16.1653 15.1471 15.8934C15.38 15.6214 15.4576 15.4272 15.6129 15.1165C15.7681 14.8057 15.6905 14.5338 15.574 14.3008C15.4576 14.0677 14.5262 11.7759 14.138 10.8436C13.76 9.93571 13.376 10.0586 13.0901 10.0443C12.8187 10.0308 12.5079 10.0279 12.1974 10.0279C11.8869 10.0279 11.3823 10.1445 10.9553 10.6106C10.5284 11.0767 9.3252 12.2032 9.3252 14.495C9.3252 16.7868 10.9942 19.0008 11.2271 19.3116C11.4599 19.6224 14.5114 24.3255 19.1836 26.3423C20.2949 26.822 21.1625 27.1085 21.8389 27.3232C22.9547 27.6775 23.97 27.6275 24.7726 27.5076C25.6674 27.3739 27.5283 26.3812 27.9164 25.2935C28.3045 24.2059 28.3045 23.2737 28.1881 23.0795C28.0717 22.8852 27.7611 22.7687 27.2954 22.5356ZM18.7973 34.1356H18.791C16.0109 34.1345 13.2841 33.3879 10.9054 31.9767L10.3396 31.641L4.47567 33.1788L6.04087 27.4633L5.67243 26.8774C4.12155 24.4114 3.30246 21.5611 3.30362 18.6346C3.30703 10.0948 10.2574 3.14719 18.8035 3.14719C22.9417 3.1488 26.8317 4.76199 29.7569 7.68951C32.6821 10.6171 34.2922 14.5086 34.2906 18.6471C34.2871 27.1875 27.3368 34.1356 18.7973 34.1356ZM31.9832 5.46495C28.4639 1.94263 23.7836 0.00191116 18.7971 -6.10352e-05C8.52263 -6.10352e-05 0.160451 8.35889 0.156332 18.6334C0.154989 21.9177 1.0133 25.1237 2.64449 27.9495L0 37.606L9.88172 35.0147C12.6044 36.4993 15.6698 37.2816 18.7896 37.2829H18.7972H18.7973C29.0708 37.2829 37.4337 28.9229 37.4379 18.6483C37.4397 13.6691 35.5027 8.98718 31.9832 5.46495Z" fill="white"/>
</svg>
